<svg id="Icons" height="512" viewBox="0 0 60 60" width="512" xmlns="http://www.w3.org/2000/svg">
    <path
        d="m27 51.87v5.13a2.019 2.019 0 0 1 -2 2h-6a2.006 2.006 0 0 1 -2-2 3.035 3.035 0 0 1 3-3h1v-3.31z"
        fill="#d8b360" />
    <path
        d="m39 50.69v3.31h1a3.035 3.035 0 0 1 3 3 2.006 2.006 0 0 1 -2 2h-6a2.019 2.019 0 0 1 -2-2v-5.13z"
        fill="#d8b360" />
    <path
        d="m11.92 24.62-.01.01c-3.88 3.35-8.91 9.84-8.91 20.37a3.062 3.062 0 0 0 3 3h1a3 3 0 0 0 3-3 43.465 43.465 0 0 1 .26-5.91v-.01z"
        fill="#d8b360" />
    <path
        d="m49.74 39.08v.01a43.465 43.465 0 0 1 .26 5.91 3 3 0 0 0 3 3h1a3.062 3.062 0 0 0 3-3c0-10.53-5.03-17.02-8.91-20.37l-.01-.01z"
        fill="#d8b360" />
    <path d="m15.02 18.51c-.9-1.46-1.87-2.96-2.59-3.95l3.31-2.56c.62.88 1.37 2.03 2.08 3.19z"
        fill="#d8b360" />
    <path
        d="m50 36c0 11.05-8.95 16-20 16s-20-4.949-20-16c0-11.15 4.95-20.09 12.03-23.94a12.8 12.8 0 0 0 -.88-1.21.68.68 0 0 1 .43-1.1 8.008 8.008 0 0 1 3.81.41c.67-1.08 2.4-2.9 6.59-3.159a.683.683 0 0 1 .7.861 5.775 5.775 0 0 0 -.18 1.338 7.935 7.935 0 0 1 3.92-.45.68.68 0 0 1 .43 1.1 12.635 12.635 0 0 0 -.91 1.26c8.15 3.15 14.06 12.7 14.06 24.89z"
        fill="#f4cc67" />
    <circle cx="10" cy="8" fill="#f4cc67" r="7" />
    <path d="m44.98 18.51c.9-1.46 1.87-2.96 2.59-3.95l-3.31-2.56c-.62.88-1.37 2.03-2.08 3.19z"
        fill="#d8b360" />
    <circle cx="50" cy="8" fill="#f4cc67" r="7" />
    <path
        d="m37 22a7 7 0 0 1 -14 0c0-.128 0-.255.01-.381.198-3.689 3.252-5.619 6.99-5.619s6.792 1.93 6.99 5.619c.01.126.01.253.01.381z"
        fill="#fff" />
    <path
        d="m44 35a10 10 0 0 1 -10 10h-8a10 10 0 0 1 -10-10 2.35 2.35 0 0 1 3.09-2.24 39.513 39.513 0 0 0 10.91 1.24 39.513 39.513 0 0 0 10.91-1.24 2.35 2.35 0 0 1 3.09 2.24z"
        fill="#b59659" />
    <g fill="#fff">
        <path d="m28 45v-3a1 1 0 0 1 1-1h2a1 1 0 0 1 1 1v3z" />
        <path d="m24 33.69v2.31a1 1 0 0 1 -1 1h-2a1 1 0 0 1 -1-1v-2.98a29.7 29.7 0 0 0 4 .67z" />
        <path
            d="m32 33.96v3.04a1 1 0 0 1 -1 1h-2a1 1 0 0 1 -1-1v-3.04c.65.03 1.32.04 2 .04s1.35-.01 2-.04z" />
        <path d="m40 33.02v2.98a1 1 0 0 1 -1 1h-2a1 1 0 0 1 -1-1v-2.31a29.7 29.7 0 0 0 4-.67z" />
        <circle cx="10" cy="8" r="5" />
        <circle cx="50" cy="8" r="5" />
    </g>
    <circle cx="30" cy="22" fill="#3778c6" r="5" />
    <path d="m10.47 5.04a3 3 0 1 1 -3.47 2.96 2.784 2.784 0 0 1 .06-.58l.94-1.42z" fill="#3778c6" />
    <path
        d="m14.97 3.07c-6.21 2.07-9.51 5.44-11.22 8.08a6.9 6.9 0 0 1 -.75-3.15 7 7 0 0 1 11.97-4.93z"
        fill="#d8b360" />
    <path d="m49.53 5.04a3 3 0 1 0 3.47 2.96 2.784 2.784 0 0 0 -.06-.58l-.94-1.42z" fill="#3778c6" />
    <path
        d="m45.03 3.07c6.21 2.07 9.51 5.44 11.22 8.08a6.9 6.9 0 0 0 .75-3.15 7 7 0 0 0 -11.97-4.93z"
        fill="#d8b360" />
    <path
        d="m32.37 20.17a3 3 0 0 1 .371 3.061 2.931 2.931 0 0 1 -1.952 1.669 3 3 0 0 1 -3.159-4.73 7.841 7.841 0 0 1 4.74 0z"
        fill="#2c4359" />
    <path
        d="m36.98 21.62a14.835 14.835 0 0 0 -6.98-1.62 14.835 14.835 0 0 0 -6.98 1.62 6.99 6.99 0 0 1 13.96 0z"
        fill="#d8b360" />
    <circle cx="10" cy="8" fill="#2c4359" r="1.544" />
    <circle cx="11" cy="7" fill="#fff" r="1" />
    <circle cx="50" cy="8" fill="#2c4359" r="1.544" />
    <path d="m52 7a1 1 0 1 1 -1-1 .375.375 0 0 1 .11.01c.27.18.54.37.79.56a1.043 1.043 0 0 1 .1.43z"
        fill="#fff" />
    <path
        d="m33 20.5a1.5 1.5 0 0 1 -3 0 1.386 1.386 0 0 1 .09-.5 16.861 16.861 0 0 1 2.89.26 1.942 1.942 0 0 1 .02.24z"
        fill="#fff" />
</svg>