<svg id="Icons" height="512" viewBox="0 0 60 60" width="512" xmlns="http://www.w3.org/2000/svg"><g fill="#3778c6"><path d="m9.79 14.85a5 5 0 1 1 5.28-7.75z"/><path d="m50.21 14.85a5 5 0 1 0 -5.28-7.75z"/><path d="m8.08 21.95c-2.11 2.37-7.08 9.22-7.08 21.05a3 3 0 0 0 3 3h.92a3 3 0 0 0 3-3.01 65.087 65.087 0 0 1 .96-11.54z"/><path d="m51.12 31.45a65.087 65.087 0 0 1 .96 11.54 3 3 0 0 0 3 3.01h.92a3 3 0 0 0 3-3c0-11.83-4.97-18.68-7.08-21.05z"/></g><path d="m50.27 57.82a5.144 5.144 0 0 1 -6.73-.15 8.224 8.224 0 0 1 -2-2.57 10.984 10.984 0 0 1 -8.42 3.9h-6.24a10.987 10.987 0 0 1 -8.34-3.8 8.43 8.43 0 0 1 -1.96 2.47 5.153 5.153 0 0 1 -3.45 1.33 5.113 5.113 0 0 1 -4.68-7.18 12.708 12.708 0 0 1 4.89-5.72 67.366 67.366 0 0 1 -5.18-19.52c-1.59-13.63 8.75-25.58 21.84-25.58 12.19 0 22 10.37 22 22.81a23.635 23.635 0 0 1 -.16 2.77 67.259 67.259 0 0 1 -5.16 19.46 12.617 12.617 0 0 1 4.99 5.78 5.076 5.076 0 0 1 -1.4 6z" fill="#4b95ff"/><path d="m21 36h18a2 2 0 0 1 2 2 11 11 0 0 1 -11 11 11 11 0 0 1 -11-11 2 2 0 0 1 2-2z" fill="#2d629b"/><path d="m37 36v2a3 3 0 0 1 -3 3h-8a3 3 0 0 1 -3-3v-2z" fill="#fff"/><path d="m39 15a8.956 8.956 0 0 1 -.94 4l-1.06 1h-14l-1.06-1a9 9 0 1 1 17.06-4z" fill="#fff"/><circle cx="17" cy="27" fill="#fff" r="5"/><circle cx="18.25" cy="27.25" fill="#3778c6" r="3.75"/><circle cx="43" cy="27" fill="#fff" r="5"/><circle cx="41.75" cy="27.25" fill="#3778c6" r="3.75"/><circle cx="30" cy="15" fill="#3778c6" r="6"/><path d="m17 27.5a2.5 2.5 0 0 0 4.7 1.19l.03-.06a4.891 4.891 0 0 0 .26-1.39v-.02a2.5 2.5 0 0 0 -4.99.28z" fill="#2c4359"/><circle cx="18" cy="26" fill="#fff" r="1"/><path d="m43 27.5a2.5 2.5 0 0 1 -4.7 1.19l-.03-.06a4.891 4.891 0 0 1 -.26-1.39v-.02a2.5 2.5 0 0 1 4.99.28z" fill="#2c4359"/><circle cx="42" cy="26" fill="#fff" r="1"/><path d="m38.06 19a9 9 0 0 1 -16.12 0z" fill="#3778c6"/><path d="m33.82 13.81s.01 0 0 .01a3.879 3.879 0 0 1 .18 1.18 4 4 0 1 1 -4-4 3.879 3.879 0 0 1 1.18.18c.01-.01.01 0 .01 0z" fill="#2c4359"/><circle cx="32" cy="13" fill="#fff" r="2"/></svg>