<svg id="Icons" height="512" viewBox="0 0 60 60" width="512" xmlns="http://www.w3.org/2000/svg"><path d="m11.41 17.6c-6.01-5.119-4.32-11.909-2.52-15.858a1.271 1.271 0 0 1 2.38.19 9.98 9.98 0 0 0 7.66 7.459z" fill="#efcf9c"/><path d="m41.07 9.391a9.98 9.98 0 0 0 7.66-7.459 1.271 1.271 0 0 1 2.38-.19c1.8 3.949 3.49 10.739-2.52 15.858z" fill="#efcf9c"/><path d="m9.27 38.61a38.584 38.584 0 0 0 -.27 4.39 4 4 0 0 1 -8 0c0-10.57 5.13-16.01 7.64-18.04z" fill="#d65821"/><path d="m51.36 24.96c2.51 2.03 7.64 7.47 7.64 18.04a4 4 0 0 1 -8 0 38.584 38.584 0 0 0 -.27-4.39z" fill="#d65821"/><path d="m45.46 54h1.97l-3.43 5h-5.16a3.015 3.015 0 0 1 -3.01-2.8c-.14-2.11-.34-4.29-.5-6.01a17.941 17.941 0 0 1 -10.66 0c-.07.78-.15 1.66-.23 2.58-.1 1.1-.19 2.28-.27 3.43a3.015 3.015 0 0 1 -3.01 2.8h-5.16l-3.43-5h1.97a1.521 1.521 0 0 0 1.5-1.62c-.41-6.76-8.04-9.39-8.04-21.44 0-13.77 9.85-24.94 22-24.94s22 11.17 22 24.94c0 12.05-7.63 14.68-8.04 21.44a1.521 1.521 0 0 0 1.5 1.62z" fill="#fd812c"/><circle cx="21.453" cy="22.081" fill="#fff" r="5.128"/><circle cx="38.547" cy="22.081" fill="#fff" r="5.128"/><path d="m20.884 36.485v-2.438a2.286 2.286 0 0 1 2.279-2.28h2.279a2.286 2.286 0 0 1 2.279 2.28v3.353z" fill="#fff"/><path d="m16 57.88v1.12h-7.1a.975.975 0 0 1 -.87-1.25 5.275 5.275 0 0 1 1.21-2.29 4.764 4.764 0 0 1 3.33-1.46c2.29 0 3.43 1.76 3.43 3.88z" fill="#efcf9c"/><path d="m51.1 59h-7.1v-1.12c0-2.12 1.14-3.88 3.43-3.88a4.764 4.764 0 0 1 3.33 1.46 5.275 5.275 0 0 1 1.21 2.29.975.975 0 0 1 -.87 1.25z" fill="#efcf9c"/><g fill="#d65821"><path d="m30 38.465a41.04 41.04 0 0 1 -14.046-2.35 1 1 0 0 1 .741-1.857 39.859 39.859 0 0 0 13.305 2.207 39.859 39.859 0 0 0 13.305-2.207 1 1 0 1 1 .741 1.857 41.04 41.04 0 0 1 -14.046 2.35z"/><path d="m24.67 50.19c-.07.78-.15 1.66-.23 2.58a4.392 4.392 0 0 1 -2.44-3.77 11.933 11.933 0 0 0 2.67 1.19z"/><path d="m35.33 50.19c.07.78.15 1.66.23 2.58a4.392 4.392 0 0 0 2.44-3.77 11.933 11.933 0 0 1 -2.67 1.19z"/></g><path d="m21.5 24a1.5 1.5 0 0 1 0-3 1.5 1.5 0 0 1 0 3z" fill="#252534"/><path d="m38.5 24a1.5 1.5 0 0 1 0-3 1.5 1.5 0 0 1 0 3z" fill="#252534"/></svg>