<svg id="Icons" height="512" viewBox="0 0 60 60" width="512" xmlns="http://www.w3.org/2000/svg">
    <path
        d="m5.56 14.13a25.928 25.928 0 0 1 -4.55-11.79 1.164 1.164 0 0 1 1.98-.99 23.38 23.38 0 0 0 4.99 3.84z"
        fill="#eabea3" />
    <path
        d="m14.82 7.92-2.52 11.17a14.369 14.369 0 0 1 -6.74-4.96 16.462 16.462 0 0 1 2.42-8.94 25.545 25.545 0 0 0 6.84 2.73z"
        fill="#f9d2b6" />
    <path
        d="m54.437 14.13a25.928 25.928 0 0 0 4.55-11.79 1.164 1.164 0 0 0 -1.98-.99 23.38 23.38 0 0 1 -4.99 3.84z"
        fill="#eabea3" />
    <path
        d="m45.177 7.92 2.523 11.17a14.369 14.369 0 0 0 6.74-4.96 16.462 16.462 0 0 0 -2.42-8.94 25.545 25.545 0 0 1 -6.843 2.73z"
        fill="#f9d2b6" />
    <path
        d="m45.84 39.37a4.654 4.654 0 0 0 5.38 1.25 4.626 4.626 0 0 0 2.54-5.71 32.169 32.169 0 0 0 -6.45-11.58z"
        fill="#4ab591" />
    <path
        d="m12.69 23.33a32.169 32.169 0 0 0 -6.45 11.58 4.626 4.626 0 0 0 2.54 5.71 4.469 4.469 0 0 0 1.82.38 4.447 4.447 0 0 0 3.56-1.63z"
        fill="#4ab591" />
    <path
        d="m32 49a2 2 0 0 1 2 2v4.79a3.286 3.286 0 0 0 3.21 3.21 3.151 3.151 0 0 0 2.82-1.68c1.61-3.1 5.406-11.189 6.59-23.871l1.37-20.149a6 6 0 0 0 -5.99-6.3h-24a6 6 0 0 0 -5.99 6.3l1.37 20.149c1.184 12.682 4.98 20.771 6.59 23.871a3.151 3.151 0 0 0 2.82 1.68 3.247 3.247 0 0 0 3.21-3.21v-4.79a2 2 0 0 1 2-2z"
        fill="#5acca6" />
    <circle cx="30" cy="21" fill="#fff" r="10" />
    <path
        d="m41.87 34.27c-1.96 5.13-6.53 8.73-11.87 8.73s-9.91-3.6-11.87-8.73a1.59 1.59 0 0 1 2.25-2.04 19.776 19.776 0 0 0 6.62 2.43 17.8 17.8 0 0 0 3 .34 17.8 17.8 0 0 0 3-.34 19.776 19.776 0 0 0 6.62-2.43 1.59 1.59 0 0 1 2.25 2.04z"
        fill="#427c67" />
    <path
        d="m33 34.66v2.34a2.006 2.006 0 0 1 -2 2h-2a2.006 2.006 0 0 1 -2-2v-2.34a17.8 17.8 0 0 0 3 .34 17.8 17.8 0 0 0 3-.34z"
        fill="#fff" />
    <circle cx="30" cy="21" fill="#3778c6" r="7" />
    <path
        d="m34.78 19.51s.01 0 0 .01a5.2 5.2 0 0 1 .22 1.48 5 5 0 1 1 -5-5 5.2 5.2 0 0 1 1.48.22c.01-.01.01 0 .01 0z"
        fill="#2c4359" />
    <circle cx="32.5" cy="18.5" fill="#fff" r="2.5" />
</svg>