<svg height="512" viewBox="0 0 64 64" width="512" xmlns="http://www.w3.org/2000/svg"><g id="Flat"><g id="Color_copy" data-name="Color copy"><path d="m5.772 24.355a4.881 4.881 0 0 0 1.835-1.7 4.87 4.87 0 0 0 .707-2.425 12.882 12.882 0 0 1 3.68-9.224 29.008 29.008 0 0 1 48.206 27.784 5.785 5.785 0 0 1 -2.71 3.73 4.461 4.461 0 0 0 -.81.58l-1.12 1a4.882 4.882 0 0 0 -1.34 2.03l-.166.5a11.153 11.153 0 0 0 -.481 2.736 5.655 5.655 0 0 1 -1.693 3.744 29.04 29.04 0 0 1 -32.55 4.99 5.692 5.692 0 0 1 -3.11-3.91 4.721 4.721 0 0 0 -1.11-2.22l-.412-.459a8.832 8.832 0 0 0 -3.777-2.477l-.761-.254c-.01 0-.01 0-.02-.01a6.2 6.2 0 0 1 -3.57-2.83 29.024 29.024 0 0 1 -3.213-18.484 4.1 4.1 0 0 1 2.275-3.033z" fill="#f9dbaf"/><path d="m54.32 45.89a2.443 2.443 0 0 0 -.1.24l-.17.5a11.408 11.408 0 0 0 -.48 2.73 5.65 5.65 0 0 1 -1.69 3.75 29.04 29.04 0 0 1 -32.55 4.99 5.692 5.692 0 0 1 -3.11-3.91 4.721 4.721 0 0 0 -1.11-2.22l-.41-.46a8.888 8.888 0 0 0 -3.78-2.48l-.76-.25c-.01 0-.01 0-.02-.01a6.2 6.2 0 0 1 -3.57-2.83 28.772 28.772 0 0 1 -3.57-13.94 28.288 28.288 0 0 1 .36-4.54 4.114 4.114 0 0 1 2.27-3.04l.14-.06a4.957 4.957 0 0 0 1.84-1.71 4.766 4.766 0 0 0 .7-2.42 12.877 12.877 0 0 1 3.68-9.22 28.811 28.811 0 0 1 7.95-5.38 28.6 28.6 0 0 0 -3.55 12.31 6.193 6.193 0 0 0 1.53 4.29c0 .01 0 .01.01.02l.51.62a8.727 8.727 0 0 1 1.89 4.1l.11.61a4.7 4.7 0 0 1 -.24 2.47 5.661 5.661 0 0 0 .57 4.96 28.994 28.994 0 0 0 30.24 13.02 5.531 5.531 0 0 0 3.31-2.14z" fill="#edb88e"/><path d="m16.842 8.019-2.55-1.319a2.526 2.526 0 0 0 -3.62 1.659 2.52 2.52 0 0 1 -.736 1.265l-.385.358a2.528 2.528 0 0 0 -.269 3.4l1.337 1.718z" fill="#f9dbaf"/><g fill="#edb88e"><path d="m9.787 9.9a31.466 31.466 0 0 1 4.4-1.045 4.858 4.858 0 0 0 2.363-.985l.29.15-6.22 7.08-1.34-1.72a2.527 2.527 0 0 1 .27-3.4z"/><path d="m47.444 54.424.658 1.353a1.884 1.884 0 0 1 -1.18 2.637l-.025.007a1.881 1.881 0 0 0 -1.108.853 1.883 1.883 0 0 1 -2.843.476l-2.279-1.943z"/><path d="m24.993 18.721 1.119 1.253a4.753 4.753 0 0 1 .962 4.673 4.753 4.753 0 0 1 -2.186 2.639l-1.148.642a4.75 4.75 0 0 1 -3.828.36l-1.167-.39a4.748 4.748 0 0 1 -2.037-1.342l-1-1.119a4.751 4.751 0 0 1 -.871-4.92l.391-.984a4.751 4.751 0 0 1 3.172-2.833h.009a4.744 4.744 0 0 1 2.752.079l1.8.6a4.758 4.758 0 0 1 2.032 1.342z"/><path d="m34.618 45.1.967-.645a4.608 4.608 0 0 1 5.11 0l.231.154a4.608 4.608 0 0 1 2.051 3.833v.388a4.606 4.606 0 0 1 -3.489 4.468l-.984.246a4.6 4.6 0 0 1 -3.672-.636l-.214-.143a4.6 4.6 0 0 1 -1.818-5.293 4.607 4.607 0 0 1 1.818-2.372z"/><path d="m41.816 23.456.6-.4a2.857 2.857 0 0 1 3.17 0l.143.1a2.857 2.857 0 0 1 1.271 2.373v.24a2.857 2.857 0 0 1 -2.164 2.772l-.61.152a2.85 2.85 0 0 1 -2.277-.394l-.133-.089a2.857 2.857 0 0 1 -1.126-3.28 2.858 2.858 0 0 1 1.126-1.474z"/><path d="m54.816 35.456.6-.4a2.857 2.857 0 0 1 3.17 0l.143.095a2.857 2.857 0 0 1 1.271 2.378v.24a2.857 2.857 0 0 1 -2.164 2.772l-.61.152a2.85 2.85 0 0 1 -2.277-.394l-.133-.089a2.857 2.857 0 0 1 -1.126-3.28 2.858 2.858 0 0 1 1.126-1.474z"/><path d="m26.816 32.456.6-.4a2.857 2.857 0 0 1 3.17 0l.143.095a2.857 2.857 0 0 1 1.271 2.378v.24a2.857 2.857 0 0 1 -2.164 2.772l-.61.152a2.85 2.85 0 0 1 -2.277-.394l-.133-.089a2.857 2.857 0 0 1 -1.126-3.28 2.858 2.858 0 0 1 1.126-1.474z"/><path d="m32.816 10.456.6-.4a2.857 2.857 0 0 1 3.17 0l.143.095a2.857 2.857 0 0 1 1.271 2.378v.24a2.857 2.857 0 0 1 -2.164 2.772l-.61.152a2.85 2.85 0 0 1 -2.277-.394l-.133-.089a2.857 2.857 0 0 1 -1.126-3.28 2.858 2.858 0 0 1 1.126-1.474z"/><circle cx="45" cy="35" r="2"/><circle cx="23" cy="51" r="2"/><circle cx="18" cy="40" r="2"/><path d="m10.77 38.13v.39a4.61 4.61 0 0 1 -3.49 4.47l-.99.24a4.122 4.122 0 0 1 -.98.13 28.845 28.845 0 0 1 -2.22-9.02l.29-.19a4.575 4.575 0 0 1 5.11 0l.23.15a4.6 4.6 0 0 1 2.05 3.83z"/><path d="m60.96 30.49a4.627 4.627 0 0 1 -2.05-.2l-1.17-.39a4.788 4.788 0 0 1 -2.03-1.34l-1-1.12a4.742 4.742 0 0 1 -.87-4.92l.39-.99a4.747 4.747 0 0 1 3.17-2.83h.01c.1-.03.19-.05.29-.07a28.663 28.663 0 0 1 3.26 11.86z"/></g><path d="m20.44 27.58-.11-.61a8.727 8.727 0 0 0 -1.89-4.1l-.51-.62c-.01-.01-.01-.01-.01-.02a6.193 6.193 0 0 1 -1.53-4.29c0-.039.006-.078.01-.117a4.74 4.74 0 0 0 -1.172 1.71l-.391.984a4.751 4.751 0 0 0 .871 4.92l1 1.119a4.748 4.748 0 0 0 2.037 1.344l1.167.39a4.532 4.532 0 0 0 .583.129 4.716 4.716 0 0 0 -.055-.839z" fill="#da9367"/><path d="m26.112 19.974-1.119-1.253a4.758 4.758 0 0 0 -2.037-1.341l-1.8-.6a4.744 4.744 0 0 0 -2.752-.079h-.009a4.744 4.744 0 0 0 -1.691.86 4.623 4.623 0 0 1 1.452.217l1.8.6a4.758 4.758 0 0 1 2.037 1.341l1.119 1.253a4.752 4.752 0 0 1 -1.224 7.312l-.4.223a4.725 4.725 0 0 0 2.251-.581l1.148-.642a4.752 4.752 0 0 0 1.224-7.312z" fill="#da9367"/><path d="m40.926 44.605-.231-.154a4.608 4.608 0 0 0 -5.11 0l-.967.645a4.606 4.606 0 0 0 0 7.665l.214.143a4.6 4.6 0 0 0 3.672.636l.984-.246a4.606 4.606 0 0 0 3.489-4.468v-.388a4.608 4.608 0 0 0 -2.051-3.833zm-7.315 1.515c.01-.007.019-.017.03-.024l.967-.645a4.608 4.608 0 0 1 5.11 0l.231.154a4.6 4.6 0 0 1 1.926 2.785 28.776 28.776 0 0 1 -8.264-2.27z" fill="#da9367"/><path d="m47 25.53v.24a2.856 2.856 0 0 1 -2.16 2.77l-.58.14a2.816 2.816 0 0 0 .74-1.91v-.24a2.866 2.866 0 0 0 -1.27-2.38l-.15-.09a2.827 2.827 0 0 0 -1.95-.45.9.9 0 0 1 .19-.15l.6-.4a2.84 2.84 0 0 1 3.16 0l.15.09a2.866 2.866 0 0 1 1.27 2.38z" fill="#da9367"/><path d="m38 12.53v.24a2.856 2.856 0 0 1 -2.16 2.77l-.58.14a2.816 2.816 0 0 0 .74-1.91v-.24a2.866 2.866 0 0 0 -1.27-2.38l-.15-.09a2.827 2.827 0 0 0 -1.95-.45.9.9 0 0 1 .19-.15l.6-.4a2.84 2.84 0 0 1 3.16 0l.15.09a2.866 2.866 0 0 1 1.27 2.38z" fill="#da9367"/><path d="m53.922 24.256a4.78 4.78 0 0 1 1.737-1.7l1.306-.742a4.768 4.768 0 0 1 1.929-.6q-.537-1.323-1.194-2.584c-.1.02-.19.04-.29.07h-.01a4.747 4.747 0 0 0 -3.17 2.83l-.39.99a4.692 4.692 0 0 0 -.289 2.364z" fill="#da9367"/><path d="m60 37.53v.24a2.875 2.875 0 0 1 -1.01 2.18 1.087 1.087 0 0 0 .01-.18v-.24a2.866 2.866 0 0 0 -1.27-2.38l-.15-.09a2.84 2.84 0 0 0 -3.16 0l-.6.4a2.472 2.472 0 0 0 -.27.21 2.69 2.69 0 0 1 .14-.74 2.846 2.846 0 0 1 1.13-1.47l.6-.4a2.84 2.84 0 0 1 3.16 0l.15.09a2.866 2.866 0 0 1 1.27 2.38z" fill="#da9367"/><path d="m32 34.53v.24a2.875 2.875 0 0 1 -1.01 2.18 1.087 1.087 0 0 0 .01-.18v-.24a2.866 2.866 0 0 0 -1.27-2.38l-.15-.09a2.84 2.84 0 0 0 -3.16 0l-.6.4a2.472 2.472 0 0 0 -.27.21 2.69 2.69 0 0 1 .14-.74 2.846 2.846 0 0 1 1.13-1.47l.6-.4a2.84 2.84 0 0 1 3.16 0l.15.09a2.866 2.866 0 0 1 1.27 2.38z" fill="#da9367"/><path d="m45 33a2 2 0 0 0 -1.82 1.18 1.992 1.992 0 0 1 2.64 2.64 2 2 0 0 0 -.82-3.82z" fill="#da9367"/><path d="m18 38a2 2 0 0 0 -1.82 1.18 1.992 1.992 0 0 1 2.64 2.64 2 2 0 0 0 -.82-3.82z" fill="#da9367"/><path d="m23 49a2 2 0 0 0 -1.82 1.18 1.992 1.992 0 0 1 2.64 2.64 2 2 0 0 0 -.82-3.82z" fill="#da9367"/><path d="m10.77 38.13v.39a4.61 4.61 0 0 1 -3.49 4.47l-.99.24a.926.926 0 0 1 -.23.04 4.6 4.6 0 0 0 1.94-3.75v-.39a4.6 4.6 0 0 0 -2.05-3.83l-.23-.15a4.649 4.649 0 0 0 -2.63-.78v-.03l.29-.19a4.575 4.575 0 0 1 5.11 0l.23.15a4.6 4.6 0 0 1 2.05 3.83z" fill="#da9367"/><path d="m46.45 8.57 1.99 3.46a3.343 3.343 0 0 0 1.56 1.398l.647.282a3.345 3.345 0 0 0 3.41-.47c.21.24.41.48.6.73l-.534 1.63a4.357 4.357 0 0 1 -4.677 2.957 4.356 4.356 0 0 1 -3.765-4.984z" fill="#edb88e"/><path d="m50.8 14.37a3.668 3.668 0 0 0 3.995-1.906l.156-.3a2.527 2.527 0 0 0 -1.661-3.62 2.525 2.525 0 0 1 -1.265-.736l-.358-.384a2.527 2.527 0 0 0 -3.4-.268l-1.821 1.417 1.772 3.766a3.667 3.667 0 0 0 2.582 2.031z" fill="#f9dbaf"/><path d="m54.5 11c-3.038 0-5.5-1.791-5.5-4 0-.082.01-.163.017-.244a2.512 2.512 0 0 0 -.756.4l-1.815 1.417 1.772 3.766a3.667 3.667 0 0 0 6.575.125l.156-.3a2.492 2.492 0 0 0 .276-1.2c-.237.02-.478.036-.725.036z" fill="#edb88e"/><circle cx="37" cy="31" fill="#da9367" r="1"/><circle cx="36" cy="22" fill="#da9367" r="1"/><circle cx="46.779" cy="14.78" fill="#da9367" r="1"/><circle cx="45" cy="41" fill="#da9367" r="1"/><circle cx="23" cy="11" fill="#da9367" r="1"/><circle cx="13" cy="30" fill="#da9367" r="1"/></g></g></svg>