<?xml version="1.0" encoding="iso-8859-1"?>
<!-- Generator: Adobe Illustrator 19.0.0, SVG Export Plug-In . SVG Version: 6.00 Build 0)  -->
<svg version="1.1" id="Layer_1" xmlns="http://www.w3.org/2000/svg" xmlns:xlink="http://www.w3.org/1999/xlink" x="0px" y="0px"
	 viewBox="0 0 511.999 511.999" style="enable-background:new 0 0 511.999 511.999;" xml:space="preserve">
<path style="fill:#C0A27A;" d="M282.063,359.69l-24.254,72.762c-4.225,12.675,1.513,26.527,13.462,32.502l88.421,44.21
	c9.71,4.855,21.386,3.385,29.588-3.725l104.213-90.318c9.598-8.318,12.053-22.223,5.885-33.326l-63.475-114.255
	c-8.07-14.525-27.264-18.306-40.239-7.925l-99.106,79.285C289.825,344.288,284.79,351.507,282.063,359.69z"/>
<path style="fill:#AF8764;" d="M452.925,450.281l-94.468-41.331c-10.967-4.798-17.432-16.278-15.851-28.144l11.753-88.148
	l-57.8,46.24c-6.735,5.388-11.769,12.608-14.497,20.791l-24.254,72.762c-4.225,12.675,1.513,26.527,13.462,32.502l88.42,44.21
	c9.708,4.855,21.386,3.385,29.588-3.725L452.925,450.281z"/>
<path style="fill:#C0A27A;" d="M78.829,31.849L9.419,135.966C3.603,144.689,3.398,156,8.892,164.928l52.162,84.763
	c6.187,10.054,18.218,14.888,29.641,11.906l168.923-44.067c11.329-2.955,21.049-10.234,27.074-20.275l55.904-93.174
	c8.163-13.605,2.81-31.283-11.528-38.075l-130.26-61.7c-8.456-4.005-17.954-5.259-27.159-3.585l-65.593,11.926
	C96.112,14.818,85.563,21.749,78.829,31.849z"/>
<path style="fill:#AF8764;" d="M175.741,349.883L146.918,457.97c-2.233,8.373-10.144,13.943-18.779,13.224l-73.549-6.129
	c-10.262-0.855-17.688-10.173-16.231-20.367l13.596-95.169c0.987-6.905,5.894-12.608,12.575-14.611l69.877-20.964
	c5.442-1.633,11.336-0.584,15.882,2.824l18.899,14.174C175.029,335.335,177.623,342.827,175.741,349.883z"/>
<path style="fill:#A07353;" d="M103.671,427.416c-10.139,1.796-19.7-5.313-20.899-15.542l-9.326-79.633l-8.919,2.676
	c-6.681,2.005-11.589,7.707-12.575,14.612l-13.594,95.169c-1.456,10.194,5.969,19.512,16.231,20.368l73.549,6.129
	c8.636,0.72,16.547-4.85,18.78-13.224l10.696-40.111L103.671,427.416z"/>
<g>
	<path style="fill:#AF8764;" d="M427.428,86.674L415.546,134.2c-2.269,9.073,2.831,18.363,11.704,21.321l26.381,8.793
		c6.989,2.33,14.693,0.139,19.409-5.521l29.902-35.883c4.309-5.17,5.353-12.322,2.701-18.509l-15.049-35.113
		c-4.056-9.466-15.244-13.563-24.455-8.958l-29.354,14.676C432.114,77.342,428.695,81.604,427.428,86.674z"/>
	<path style="fill:#AF8764;" d="M156.646,191.328c7.932-4.666,13.26-13.285,13.26-23.152c0-14.827-12.019-26.847-26.847-26.847
		c-11.334,0-21.021,7.027-24.958,16.959l-4.184-3.586c-9.207-7.892-11.981-20.977-6.768-31.926L164.478,2.388l-56.423,10.259
		c-11.943,2.171-22.492,9.102-29.226,19.202L9.418,135.965c-5.816,8.723-6.021,20.033-0.527,28.962l52.162,84.764
		c6.187,10.054,18.217,14.886,29.64,11.906l113.416-29.586L156.646,191.328z"/>
	<circle style="fill:#AF8764;" cx="223.6" cy="132.376" r="17.898"/>
	<circle style="fill:#AF8764;" cx="165.432" cy="87.631" r="13.423"/>
	<circle style="fill:#AF8764;" cx="384.68" cy="351.624" r="13.423"/>
</g>
<circle style="fill:#C0A27A;" cx="348.884" cy="445.587" r="17.898"/>
<circle style="fill:#AF8764;" cx="442.848" cy="391.894" r="13.423"/>
<g>
	<circle style="fill:#A07353;" cx="111.739" cy="405.317" r="13.423"/>
	<circle style="fill:#A07353;" cx="125.162" cy="365.047" r="8.949"/>
	<circle style="fill:#A07353;" cx="210.176" cy="414.266" r="13.423"/>
	<circle style="fill:#A07353;" cx="26.724" cy="302.405" r="8.949"/>
</g>
<circle style="fill:#AF8764;" cx="241.498" cy="302.405" r="17.898"/>
<path style="fill:#A07353;" d="M250.51,311.358c-9.885,0-17.898-8.014-17.898-17.898c0-2.643,0.607-5.131,1.635-7.39
	c-6.265,2.785-10.649,9.04-10.649,16.338c0,9.884,8.014,17.898,17.898,17.898c7.242,0,13.445-4.321,16.261-10.508
	C255.54,310.785,253.097,311.358,250.51,311.358z"/>
<circle style="fill:#AF8764;" cx="366.782" cy="195.018" r="17.898"/>
<g>
	<path style="fill:#A07353;" d="M375.795,203.971c-9.885,0-17.898-8.014-17.898-17.898c0-2.643,0.607-5.131,1.635-7.39
		c-6.265,2.785-10.649,9.04-10.649,16.338c0,9.884,8.014,17.898,17.898,17.898c7.242,0,13.445-4.321,16.261-10.508
		C380.824,203.399,378.381,203.971,375.795,203.971z"/>
	<circle style="fill:#A07353;" cx="326.512" cy="253.186" r="13.423"/>
	<circle style="fill:#A07353;" cx="474.169" cy="239.762" r="8.949"/>
	<circle style="fill:#A07353;" cx="393.629" cy="38.412" r="13.423"/>
</g>
<g>
</g>
<g>
</g>
<g>
</g>
<g>
</g>
<g>
</g>
<g>
</g>
<g>
</g>
<g>
</g>
<g>
</g>
<g>
</g>
<g>
</g>
<g>
</g>
<g>
</g>
<g>
</g>
<g>
</g>
</svg>
