<?xml version="1.0" encoding="utf-8"?>
<!-- Generator: Adobe Illustrator 27.9.1, SVG Export Plug-In . SVG Version: 6.00 Build 0)  -->
<svg version="1.1" id="Layer_1" xmlns="http://www.w3.org/2000/svg" xmlns:xlink="http://www.w3.org/1999/xlink" x="0px" y="0px"
	 viewBox="0 0 512 512" style="enable-background:new 0 0 512 512;" xml:space="preserve">
<style type="text/css">
	.st0{fill:#F9DBAF;}
	.st1{fill:#EDB88E;}
	.st2{fill:#DA9367;}
</style>
<g id="Flat">
	<g id="Color_copy">
		<path class="st0" d="M46.2,100.6c6-1.4,11.1-3.5,14.7-6.1c3.6-2.6,5.5-5.6,5.7-8.7C66.1,73.5,76.7,61.6,96,52.7
			c92.8-39.6,239.7-38,328.1,3.6c54.3,25.6,75.9,61.7,57.6,96c-2.8,5.6-10.6,10.5-21.7,13.4c-2.3,0.6-4.5,1.3-6.5,2.1l-9,3.6
			c-4.9,2-8.6,4.5-10.7,7.3l-1.3,1.8c-2.2,3.2-3.5,6.5-3.8,9.8c-0.6,5.1-5.4,9.9-13.5,13.4c-70.1,29.6-173.7,36.7-260.4,17.9
			c-12.7-2.7-21.9-7.9-24.9-14c-1.3-3-4.4-5.7-8.9-8l-3.3-1.6c-8.2-4.1-18.6-7.1-30.2-8.9l-6.1-0.9c-0.1,0-0.1,0-0.2,0
			c-12-1.6-22.3-5.3-28.6-10.1c-24.7-20.2-33.7-43.5-25.7-66.3c1.7-4.7,8.5-8.8,18.2-10.9L46.2,100.6z"/>
		<path class="st1" d="M434.6,177.8c-0.3,0.3-0.6,0.6-0.8,0.9l-1.4,1.8c-2.2,3.2-3.5,6.5-3.8,9.8c-0.6,5.1-5.4,9.9-13.5,13.4
			c-70.1,29.6-173.7,36.7-260.4,17.9c-12.7-2.7-21.9-7.9-24.9-14c-1.3-3-4.4-5.7-8.9-8l-3.3-1.6c-8.2-4.1-18.6-7.1-30.2-8.9
			l-6.1-0.9c-0.1,0-0.1,0-0.2,0c-12-1.6-22.3-5.3-28.6-10.1c-18.8-15.3-28.6-32.5-28.6-50c0-5.5,0.9-10.9,2.9-16.3
			c1.7-4.7,8.5-8.8,18.2-10.9l1.1-0.2c6-1.4,11.1-3.6,14.7-6.1c3.6-2.6,5.5-5.6,5.6-8.7C66,73.5,76.6,61.6,95.9,52.8
			c18.6-8,40.1-14.5,63.6-19.3C142.7,47,133,62.1,131.1,77.6c-0.4,5.6,3.9,11.1,12.2,15.4c0,0,0,0,0.1,0.1l4.1,2.2
			c7.8,4.2,13,9.3,15.1,14.7l0.9,2.2c1.1,3,0.5,6-1.9,8.9c-4.7,5.9-3,12.5,4.6,17.8c51.2,36.6,147.5,55.1,241.9,46.7
			C418.7,184.5,428.1,181.7,434.6,177.8L434.6,177.8z"/>
		<path class="st0" d="M134.7,42l-20.4-4.7c-9.9-2.3-22.1-0.6-27.2,3.9c-0.8,0.7-1.3,1.4-1.7,2.1c-0.9,1.7-3,3.3-5.9,4.5l-3.1,1.3
			c-7.6,3.2-8.6,8.5-2.2,12.2L85,67.4L134.7,42z"/>
		<g>
			<path class="st1" d="M78.3,48.8c11.5-1.6,23.3-2.9,35.2-3.7c6.9-0.4,13.4-1.6,18.9-3.5l2.3,0.5L85,67.4l-10.7-6.2
				c-6.4-3.7-5.5-9,2.2-12.2L78.3,48.8z"/>
			<path class="st1" d="M379.6,208.4l5.3,4.9c3.6,3.4,0.5,7.4-7,9c-0.8,0.2-1.6,0.3-2.5,0.4l-0.2,0c-3.7,0.5-6.9,1.6-8.9,3.1
				c-4.2,3.2-13.5,4.3-20.6,2.4c-0.7-0.2-1.5-0.4-2.1-0.7l-18.2-7L379.6,208.4z"/>
			<path class="st1" d="M199.9,80.4l9,4.5c9.1,4.6,12,11,7.7,16.8c-3,4-9.2,7.4-17.5,9.5l-9.2,2.3c-9.3,2.3-20.5,2.8-30.6,1.3
				l-9.3-1.4c-6.3-0.9-11.9-2.6-16.3-4.8l-8-4c-9.6-4.8-12.3-11.6-7-17.6l3.1-3.5c4.4-5,13.8-8.8,25.4-10.2h0.1
				c7.2-0.9,14.9-0.8,22,0.3l14.4,2.2C189.9,76.5,195.5,78.2,199.9,80.4L199.9,80.4z"/>
			<path class="st1" d="M276.9,175l7.7-2.3c12.4-3.7,28.5-3.7,40.9,0l1.8,0.6c10.3,3.1,16.4,8.2,16.4,13.7v1.4
				c0,7.6-11.5,14.2-27.9,16l-7.9,0.9c-10.1,1.1-20.7,0.3-29.4-2.3l-1.7-0.5c-13.9-4.1-19.8-11.9-14.5-19
				C265,180,270.1,177,276.9,175L276.9,175z"/>
			<path class="st1" d="M334.5,97.4l4.8-1.4c7.7-2.3,17.7-2.3,25.4,0l1.1,0.4c6.3,1.9,10.2,5.1,10.2,8.5v0.9c0,4.7-7.1,8.8-17.3,9.9
				l-4.9,0.5c-6.2,0.7-12.9,0.2-18.2-1.4l-1.1-0.3c-8.6-2.6-12.3-7.4-9-11.8C327.1,100.5,330.3,98.6,334.5,97.4L334.5,97.4z"/>
			<path class="st1" d="M438.5,140.4l4.8-1.4c7.7-2.3,17.7-2.3,25.4,0l1.1,0.3c6.4,1.9,10.2,5.1,10.2,8.5v0.9
				c0,4.7-7.1,8.8-17.3,9.9l-4.9,0.5c-6.2,0.7-12.9,0.2-18.2-1.4l-1.1-0.3c-8.6-2.6-12.3-7.4-9-11.8
				C431.1,143.5,434.3,141.7,438.5,140.4L438.5,140.4z"/>
			<path class="st1" d="M214.5,129.7l4.8-1.4c7.7-2.3,17.7-2.3,25.4,0l1.1,0.3c6.4,1.9,10.2,5.1,10.2,8.5v0.9
				c0,4.7-7.1,8.8-17.3,9.9l-4.9,0.5c-6.2,0.7-12.9,0.2-18.2-1.4l-1.1-0.3c-8.6-2.6-12.3-7.4-9-11.8
				C207.1,132.8,210.3,130.9,214.5,129.7z"/>
			<path class="st1" d="M262.5,50.8l4.8-1.4c7.7-2.3,17.7-2.3,25.4,0l1.1,0.3c6.4,1.9,10.2,5.1,10.2,8.5v0.9c0,4.7-7.1,8.8-17.3,9.9
				l-4.9,0.5c-6.2,0.7-12.9,0.2-18.2-1.4l-1.1-0.3c-8.6-2.6-12.3-7.4-9-11.8C255.1,53.9,258.3,52,262.5,50.8L262.5,50.8z"/>
			<ellipse class="st1" cx="360" cy="138.8" rx="16" ry="7.2"/>
			<ellipse class="st1" cx="184" cy="196.1" rx="16" ry="7.2"/>
			<ellipse class="st1" cx="144" cy="156.7" rx="16" ry="7.2"/>
			<path class="st1" d="M86.2,150v1.4c0,7.6-11.5,14.2-27.9,16l-7.9,0.9c-2.6,0.3-5.2,0.5-7.8,0.5c-9.8-10.3-15.8-21.2-17.8-32.3
				l2.3-0.7c12.4-3.7,28.5-3.7,40.9,0l1.8,0.5C80,139.3,86.2,144.5,86.2,150L86.2,150z"/>
			<path class="st1" d="M487.7,122.6c-5.5,0.3-11.1,0.1-16.4-0.7l-9.4-1.4c-6.2-0.9-11.8-2.6-16.2-4.8l-8-4
				c-9.6-4.8-12.3-11.6-7-17.6l3.1-3.5c4.4-5,13.8-8.7,25.4-10.1h0.1c0.8-0.1,1.5-0.2,2.3-0.3C477.1,93.2,486,107.8,487.7,122.6
				L487.7,122.6z"/>
		</g>
		<path class="st2" d="M163.5,112.2l-0.9-2.2c-2.1-5.4-7.3-10.5-15.1-14.7l-4.1-2.2c-0.1,0-0.1,0-0.1-0.1
			c-8.3-4.2-12.7-9.7-12.2-15.4c0-0.1,0-0.3,0.1-0.4c-4.1,1.7-7.3,3.8-9.4,6.1l-3.1,3.5c-5.3,6-2.6,12.8,7,17.6l8,4
			c4.4,2.2,10,3.9,16.3,4.8l9.3,1.4c1.5,0.2,3.1,0.4,4.7,0.5C164,114.2,163.9,113.2,163.5,112.2L163.5,112.2z"/>
		<path class="st2" d="M208.9,84.9l-9-4.5c-4.4-2.2-10-3.9-16.3-4.8l-14.4-2.2c-7.1-1.1-14.8-1.2-22-0.3h-0.1
			c-4.9,0.6-9.5,1.7-13.5,3.1c3.9,0,7.9,0.2,11.6,0.8l14.4,2.2c6.3,0.9,11.9,2.6,16.3,4.8l9,4.5c14,7,12.6,17.8-3,24.1
			c-2.1,0.8-4.3,1.6-6.8,2.2l-3.2,0.8c6.3,0,12.5-0.7,18-2.1l9.2-2.3c18.3-4.6,24.9-15,14.6-23.2C212.4,86.8,210.7,85.8,208.9,84.9
			L208.9,84.9z"/>
		<path class="st2" d="M327.4,173.2l-1.8-0.6c-12.4-3.7-28.5-3.7-40.9,0l-7.7,2.3c-16.9,5.1-21.5,15.3-10.2,22.9
			c2.7,1.8,6.2,3.4,10.2,4.6l1.7,0.5c8.6,2.6,19.3,3.4,29.4,2.3l7.9-0.9c16.4-1.8,27.9-8.4,27.9-16V187
			C343.8,181.4,337.7,176.3,327.4,173.2L327.4,173.2z M268.9,178.6c0.1,0,0.2-0.1,0.2-0.1l7.7-2.3c12.4-3.7,28.5-3.7,40.9,0l1.8,0.6
			c7.8,2.3,13.3,5.9,15.4,10C312.2,185.6,289.9,182.8,268.9,178.6L268.9,178.6z"/>
		<path class="st2" d="M376,104.8v0.9c0,4.7-7.1,8.8-17.3,9.9l-4.6,0.5c3.8-1.9,5.9-4.3,5.9-6.8v-0.9c0-3.4-3.8-6.6-10.2-8.5
			l-1.2-0.3c-4.6-1.4-10.1-1.9-15.6-1.6c0.5-0.2,1-0.4,1.5-0.5l4.8-1.4c7.6-2.3,17.6-2.3,25.3,0l1.2,0.3
			C372.2,98.2,376,101.4,376,104.8L376,104.8z"/>
		<path class="st2" d="M304,58.2v0.9c0,4.7-7.1,8.8-17.3,9.9l-4.6,0.5c3.8-1.9,5.9-4.3,5.9-6.8v-0.9c0-3.4-3.8-6.6-10.2-8.5
			l-1.2-0.3c-4.6-1.4-10.1-1.9-15.6-1.6c0.5-0.2,1-0.4,1.5-0.5l4.8-1.4c7.6-2.3,17.6-2.3,25.3,0l1.2,0.3
			C300.2,51.6,304,54.8,304,58.2L304,58.2z"/>
		<path class="st2" d="M431.4,100.3c3.4-2.5,8.2-4.6,13.9-6.1l10.4-2.7c4.7-1.2,10-1.9,15.4-2.2c-2.9-3.2-6-6.3-9.6-9.3
			c-0.8,0.1-1.5,0.1-2.3,0.3h-0.1c-11.5,1.4-20.9,5.2-25.4,10.1l-3.1,3.5c-2.4,2.7-3.2,5.6-2.3,8.5L431.4,100.3z"/>
		<path class="st2" d="M480,147.8v0.9c0,3-3,5.9-8.1,7.8c0.1-0.2,0.1-0.4,0.1-0.6V155c0-3.4-3.8-6.6-10.2-8.5l-1.2-0.3
			c-7.6-2.3-17.6-2.3-25.3,0l-4.8,1.4c-0.8,0.2-1.5,0.5-2.2,0.8c0.1-0.9,0.5-1.8,1.1-2.7c1.6-2.2,4.8-4,9-5.3l4.8-1.4
			c7.6-2.3,17.6-2.3,25.3,0l1.2,0.3C476.2,141.2,480,144.4,480,147.8L480,147.8z"/>
		<path class="st2" d="M256,137.1v0.9c0,3-3,5.9-8.1,7.8c0.1-0.2,0.1-0.4,0.1-0.6v-0.9c0-3.4-3.8-6.6-10.2-8.5l-1.2-0.3
			c-7.6-2.3-17.6-2.3-25.3,0l-4.8,1.4c-0.8,0.2-1.5,0.5-2.2,0.8c0.1-0.9,0.5-1.8,1.1-2.7c1.6-2.2,4.8-4,9-5.3l4.8-1.4
			c7.6-2.3,17.6-2.3,25.3,0l1.2,0.3C252.2,130.5,256,133.7,256,137.1L256,137.1z"/>
		<path class="st2" d="M360,131.6c-6.3,0-12,1.7-14.6,4.2c8-1.6,17.5-0.1,21.1,3.5c1.9,1.9,1.9,4.1,0,5.9c8-1.6,11.6-5.9,7.9-9.5
			C371.9,133.3,366.2,131.6,360,131.6z"/>
		<path class="st2" d="M144,149.5c-6.3,0-12,1.7-14.6,4.2c8-1.6,17.5-0.1,21.1,3.5c1.9,1.9,1.9,4.1,0,5.9c8-1.6,11.6-5.9,7.9-9.5
			C155.9,151.2,150.2,149.5,144,149.5z"/>
		<path class="st2" d="M184,189c-6.3,0-12,1.7-14.6,4.2c8-1.6,17.5-0.1,21.1,3.5c1.9,1.9,1.9,4.1,0,5.9c8-1.6,11.6-5.9,7.9-9.5
			C195.9,190.6,190.2,189,184,189z"/>
		<path class="st2" d="M86.2,150v1.4c0,7.6-11.5,14.2-27.9,16l-7.9,0.9c-0.6,0.1-1.2,0.1-1.8,0.1c9.7-3.1,15.5-8.1,15.5-13.4v-1.4
			c0-5.5-6.2-10.7-16.4-13.7l-1.8-0.5c-6.2-1.9-13.6-2.8-21-2.8v-0.1l2.3-0.7c12.4-3.7,28.5-3.7,40.9,0l1.8,0.5
			C80,139.3,86.2,144.5,86.2,150L86.2,150z"/>
		<path class="st1" d="M371.6,44l15.9,12.4c2.9,2.2,7.2,4,12.5,5l5.2,1c9.1,1.7,19.6,1.1,27.3-1.7c1.7,0.9,3.3,1.7,4.8,2.6l-4.3,5.8
			c-5.2,7.1-20.9,11.5-37.4,10.6c-19.1-1.1-32.6-8.9-30.3-17.4c0-0.1,0.1-0.3,0.1-0.4L371.6,44z"/>
		<path class="st0" d="M406.4,64.8c12.9,1.2,25.9-1.6,32-6.8l1.2-1.1c5.1-4.4,1.3-9.9-8.7-12.2c-1.5-0.3-3-0.6-4.6-0.8
			c-3.9-0.4-7.4-1.3-10.1-2.6l-2.9-1.4c-7.1-3.4-18.9-3.8-27.2-1L371.6,44l14.2,13.5C389.7,61.3,397.3,64,406.4,64.8L406.4,64.8z"/>
		<path class="st1" d="M436,52.7c-24.3,0-44-6.4-44-14.3c0-0.3,0.1-0.6,0.1-0.9c-2.2,0.3-4.2,0.8-6,1.4L371.6,44l14.2,13.5
			c6.9,6.6,24.4,9.4,39,6.3c5.8-1.2,10.6-3.3,13.6-5.9l1.2-1.1c1.5-1.3,2.3-2.8,2.2-4.3C439.9,52.7,438,52.7,436,52.7z"/>
		<ellipse class="st2" cx="296" cy="124.4" rx="8" ry="3.6"/>
		<ellipse class="st2" cx="288" cy="92.2" rx="8" ry="3.6"/>
		<ellipse class="st2" cx="374.2" cy="66.3" rx="8" ry="3.6"/>
		<ellipse class="st2" cx="360" cy="160.3" rx="8" ry="3.6"/>
		<ellipse class="st2" cx="184" cy="52.7" rx="8" ry="3.6"/>
		<ellipse class="st2" cx="104" cy="120.8" rx="8" ry="3.6"/>
	</g>
</g>
</svg>
