<svg height="512" viewBox="0 0 48 48" width="512" xmlns="http://www.w3.org/2000/svg"><g id="Bubbles"><path d="m25 35c0 11.53-14.76 16.4-21.65 7.15a12 12 0 1 1 21.65-7.15z" fill="#b2e5fb"/><path d="m22.5 32.5a12 12 0 0 1 -19.15 9.65 12 12 0 0 1 16.8-16.8 12 12 0 0 1 2.35 7.15z" fill="#9fdbf3"/><path d="m13 44a1 1 0 0 1 0-2 7 7 0 0 0 7-6.12 1 1 0 0 1 2 .24 9 9 0 0 1 -9 7.88z" fill="#edebf2"/><path d="m47 25a8 8 0 1 1 -14.56-4.56 8 8 0 0 1 14.56 4.56z" fill="#b2e5fb"/><path d="m45 27a7.87 7.87 0 0 1 -1.44 4.56 7.87 7.87 0 0 1 -4.56 1.44 8 8 0 0 1 -6.56-12.56 8 8 0 0 1 12.56 6.56z" fill="#9fdbf3"/><path d="m44 26a1 1 0 0 1 -1-1 4 4 0 0 0 -4-4 1 1 0 0 1 0-2c5.52 0 7.41 7 5 7z" fill="#edebf2"/><path d="m30 7a6 6 0 1 1 -6-6 6 6 0 0 1 6 6z" fill="#b2e5fb"/><path d="m20.88 12.12c-3.28-5.32 2.93-11.51 8.24-8.24 3.26 5.3-2.9 11.53-8.24 8.24z" fill="#9fdbf3"/><path d="m21 8c-2.1 0-.81-5 3-5a1 1 0 0 1 0 2 2 2 0 0 0 -2 2 1 1 0 0 1 -1 1z" fill="#edebf2"/><path d="m12 13a4 4 0 1 1 -7.28-2.28 4 4 0 0 1 7.28 2.28z" fill="#b2e5fb"/><path d="m10.28 16.28a4 4 0 0 1 -5.56-5.56 4 4 0 0 1 5.56 5.56z" fill="#9fdbf3"/></g></svg>