<svg id="Flat" height="512" viewBox="0 0 64 64" width="512" xmlns="http://www.w3.org/2000/svg"><path d="m39.029 8s3 8-2 10c-4.22-5.484-1.385-17-15-17 0 0 7.022 8.374 1.507 18.633-3.138-3.1-3.046-6.2-3.046-6.2a31.66 31.66 0 0 0 -11.461 26.567 23 23 0 0 0 46 0 39.423 39.423 0 0 0 -16-32z" fill="#ff786e"/><path d="m33.529 62.946a23 23 0 0 0 21.5-22.946 39.628 39.628 0 0 0 -12.243-28.883c.016.114.031.229.045.346a5.848 5.848 0 0 1 -5.802 6.537c-3.851-5-1.829-15.03-11.8-16.743a17.281 17.281 0 0 1 2.643 15.243 4.542 4.542 0 0 1 -4.336 3.133 10.6 10.6 0 0 1 -2.576-3.908 31.87 31.87 0 0 0 -8.931 24.275 23 23 0 0 0 21.5 22.946z" fill="#ff5050"/><path d="m18.029 8c-2.209 0-4-2.239-4-5a6.235 6.235 0 0 1 .068-.85 4.894 4.894 0 0 0 -3.068 4.85c0 2.761 1.791 5 4 5 1.976 0 3.607-1.8 3.932-4.15a3.239 3.239 0 0 1 -.932.15z" fill="#ff786e"/><path d="m14.082 3.654a5.663 5.663 0 0 0 -1.053 3.346 4.917 4.917 0 0 0 3 4.823 4.71 4.71 0 0 0 2.932-3.973 3.239 3.239 0 0 1 -.932.15c-2.029 0-3.688-1.9-3.947-4.346z" fill="#ff5050"/><circle cx="32" cy="40" fill="#e6f0ff" r="14"/><path d="m34 28a14 14 0 0 0 -10.848 22.846 14 14 0 0 0 19.7-19.692 13.939 13.939 0 0 0 -8.852-3.154z" fill="#f5faff"/><g fill="#3f4d56"><path d="m33 39h-2v-7a1 1 0 0 1 1-1 1 1 0 0 1 1 1z"/><path d="m39 41.027h-6v-2h6a1 1 0 0 1 1 1 1 1 0 0 1 -1 1z"/><path d="m32 29a1 1 0 0 1 -1-1v-3h2v3a1 1 0 0 1 -1 1z"/><path d="m33 55h-2v-3a1 1 0 0 1 1-1 1 1 0 0 1 1 1z"/><path d="m25.134 30.108-1.5-2.6 1.732-1 1.5 2.6a1 1 0 0 1 -.366 1.366 1 1 0 0 1 -1.366-.366z"/><path d="m38.634 53.49-1.5-2.6a1 1 0 0 1 .366-1.366 1 1 0 0 1 1.366.366l1.5 2.6z"/><path d="m21.108 34.866-2.6-1.5 1-1.732 2.6 1.5a1 1 0 0 1 .366 1.366 1 1 0 0 1 -1.366.366z"/><path d="m44.491 48.366-2.6-1.5a1 1 0 0 1 -.366-1.366 1 1 0 0 1 1.366-.366l2.6 1.5z"/><path d="m20 41h-3v-2h3a1 1 0 0 1 1 1 1 1 0 0 1 -1 1z"/><path d="m47 41h-3a1 1 0 0 1 -1-1 1 1 0 0 1 1-1h3z"/><path d="m19.509 48.366-1-1.732 2.6-1.5a1 1 0 0 1 1.366.366 1 1 0 0 1 -.366 1.366z"/><path d="m41.526 34.5a1 1 0 0 1 .366-1.366l2.6-1.5 1 1.732-2.6 1.5a1 1 0 0 1 -1.366-.366z"/><path d="m25.366 53.49-1.732-1 1.5-2.6a1 1 0 0 1 1.366-.366 1 1 0 0 1 .366 1.366z"/><path d="m37.5 30.474a1 1 0 0 1 -.366-1.366l1.5-2.6 1.732 1-1.5 2.6a1 1 0 0 1 -1.366.366z"/></g><path d="m32 22a18 18 0 1 0 18 18 18 18 0 0 0 -18-18zm0 32a14 14 0 1 1 14-14 14 14 0 0 1 -14 14z" fill="#ffd246"/><path d="m34 24a17.987 17.987 0 0 0 -13.682 29.678 17.986 17.986 0 0 0 25.364-25.356 17.914 17.914 0 0 0 -11.682-4.322zm-2 30a14 14 0 1 1 14-14 14 14 0 0 1 -14 14z" fill="#ffbe37"/><circle cx="32" cy="40" fill="#5a6978" r="2.5"/></svg>