<svg id="Layer_1" enable-background="new 0 0 512 512" height="512" viewBox="0 0 512 512" width="512" xmlns="http://www.w3.org/2000/svg" xmlns:xlink="http://www.w3.org/1999/xlink"><clipPath id="XMLID_3_"><path id="XMLID_2363_" d="m331 222h-75l-167.5-25.8 48.5-14.2h89.8c31.3 0 61.9 9.8 87.4 28z"/></clipPath><g id="XMLID_1_"><g id="XMLID_3638_"><path id="XMLID_1674_" d="m404.2 224h-42.2l-44.3-30c-24.9-17-54.3-26-84.4-26h-105.3l-123 37.5v13.5h11v43h-11v34l17.5 23h472.5v-23.8l12-27.3-23.1-17.3c-23-17.3-50.9-26.6-79.7-26.6z" fill="#db3328"/><path id="XMLID_1990_" d="m99 182h-16.9l-77.1 23.5 20.8.5z" fill="#485143"/><path id="XMLID_1988_" d="m296.6 182h-11.2l61.4 42h15.2l-44.3-30.1c-6.7-4.5-13.8-8.9-21.1-11.9z" fill="#747e6c"/><path id="XMLID_1670_" d="m495 319h-472.5l-17.5-23h490z" fill="#b5100b"/><path id="XMLID_1673_" d="m37.7 262h-21.7v-43h21.7l10.5 24.5z" fill="#b5100b"/><path id="XMLID_1672_" d="m331 222h-75l-167.5-25.8 48.5-14.2h89.8c31.3 0 61.9 9.8 87.4 28z" fill="#485143"/><path id="XMLID_1678_" d="m357 295.1-162.9-9.7-31-39 32.4-14.4 158.5 24c0 5.3-4.6 9.5-9.9 8.9l-136.7-15.5-12.1 6 16.9 16 137.2 15.2c4.3.4 7.6 4.1 7.6 8.5z" fill="#b5100b"/><g id="XMLID_1669_"><path id="XMLID_1708_" d="m476 263h31v10h-31z" fill="#ebeadf"/></g><circle id="XMLID_1871_" cx="93.1" cy="295.3" fill="#323d2c" r="48.7"/><path id="XMLID_1868_" d="m95.3 246.6c-4-.2-8 .1-11.8.9-4.3.8-3.5 7.1.8 7.1h.7c26.7 0 48.7 22 48.7 48.7v.7c-.1 4.3 6.2 5.1 7.1.8.7-3.8 1.1-7.7.9-11.8-1.1-25-21.4-45.3-46.4-46.4z" fill="#485143"/><path id="XMLID_1867_" d="m114.9 318.9c-24.3-1.5-43.9-21.2-45.5-45.5 0-.2 0-.4 0-.6-.5-8.9-11.9-12-16.9-4.6-5.6 8.3-8.6 18.5-8.1 29.3 1.2 24.9 21.4 45.2 46.4 46.4 10.9.5 21-2.6 29.3-8.1 7.4-5 4.3-16.4-4.6-16.9-.2 0-.4 0-.6 0z" fill="#1c2617"/><circle id="XMLID_1866_" cx="93.1" cy="295.3" fill="#747e6c" r="23.9"/><path id="XMLID_1864_" d="m95 271.4c-1.3-.1-2.6-.1-3.9 0-2.5.2-2.4 3.8.1 4h.3c11.2 1.1 20.3 10.2 21.4 21.4v.3c.2 2.5 3.8 2.5 4 .1.1-1.3.1-2.6 0-3.9-.9-11.6-10.3-21-21.9-21.9z" fill="#c4c1ab"/><path id="XMLID_1863_" d="m101.3 308c-11-1.2-19.8-10-21-21 0-.1 0-.2 0-.3-.5-4.7-6.8-5.9-8.9-1.7-1.7 3.6-2.5 7.7-2.2 12 .8 11.7 10.4 21.3 22.1 22.1 4.3.3 8.4-.5 11.9-2.2 4.3-2 3-8.4-1.7-8.9 0 0-.1 0-.2 0z" fill="#485143"/><path id="XMLID_1697_" d="m22 219h7.7v43h-7.7z" fill="#e67368"/><circle id="XMLID_1933_" cx="417.3" cy="295.3" fill="#323d2c" r="48.7"/><path id="XMLID_1932_" d="m439.1 318.9c-24.3-1.5-43.9-21.2-45.5-45.5 0-.2 0-.4 0-.6-.5-8.9-11.9-12-16.9-4.6-5.6 8.3-8.6 18.5-8.1 29.3 1.2 24.9 21.4 45.2 46.4 46.4 10.9.5 21-2.6 29.3-8.1 7.4-5 4.3-16.4-4.6-16.9-.2 0-.4 0-.6 0z" fill="#1c2617"/><circle id="XMLID_1931_" cx="417.1" cy="295.3" fill="#747e6c" r="23.9"/><path id="XMLID_1929_" d="m419.3 246.6c-4-.2-8 .1-11.8.9-4.3.8-3.5 7.1.8 7.1h.7c26.7 0 48.7 22 48.7 48.7v.7c-.1 4.3 6.2 5.1 7.1.8.7-3.8 1.1-7.7.9-11.8-1.1-25-21.4-45.3-46.4-46.4z" fill="#485143"/><path id="XMLID_1928_" d="m419 271.4c-1.3-.1-2.6-.1-3.9 0-2.5.2-2.4 3.8.1 4h.3c11.2 1.1 20.3 10.2 21.4 21.4v.3c.2 2.5 3.8 2.5 4 .1.1-1.3.1-2.6 0-3.9-.9-11.6-10.3-21-21.9-21.9z" fill="#c4c1ab"/><path id="XMLID_1927_" d="m425.3 308c-11-1.2-19.8-10-21-21 0-.1 0-.2 0-.3-.5-4.7-6.8-5.9-8.9-1.7-1.7 3.6-2.5 7.7-2.2 12 .8 11.7 10.4 21.3 22.1 22.1 4.3.3 8.4-.5 11.9-2.2 4.3-2 3-8.4-1.7-8.9 0 0-.1 0-.2 0z" fill="#485143"/><path id="XMLID_1938_" d="m256 230h75l31 2h87.5c-14.4-5-29.8-8-45.3-8h-.2-42l-31-2h-75l-167.6-25.8-83.4 9.3v8.6l83.5-6.8z" fill="#e67368"/><g id="XMLID_2364_" fill="#747e6c"><path id="XMLID_2349_" clip-path="url(#XMLID_3_)" d="m208.6 231.3h-17.9l-58-57.6h17.9z"/><path id="XMLID_1987_" clip-path="url(#XMLID_3_)" d="m262.7 231.3h-37.4l-58-57.6h37.3z"/></g><path id="XMLID_1671_" d="m195.2 212.7-20.4-3.2v-27.5h20.4z" fill="#323d2c"/><path id="XMLID_1000_" d="m5 205.5h20.8" fill="#485143"/></g></g></svg>