<svg id="Capa_1" enable-background="new 0 0 495.448 495.448" height="512" viewBox="0 0 495.448 495.448" width="512" xmlns="http://www.w3.org/2000/svg"><g><path d="m121.469 79.011c-1.407 1.407-2.197 3.314-2.197 5.303v33.935l43.649 35.201 47.951-31.911-10-118.825c-1.919 0-3.839.732-5.303 2.197z" fill="#f3f1f4"/><path d="m206.175 4.911c-1.464-1.464-3.384-2.197-5.303-2.197v128.826l52.342 29.95 49.77-59.77z" fill="#ecc3df"/><path d="m302.984 101.72-49.77 49.77 60.27 34.486v-73.756z" fill="#da8bc1"/><path d="m162.922 143.451-43.65-25.201v232.536l43.65 25.201h30z" fill="#ddc9f1"/><path d="m162.922 143.451v107.574l103.709 81.535-14.06-180.428.643-.642-52.342-29.95z" fill="#bd96e4"/><path d="m252.571 152.132v138.364l-62.086-62.086c-1.367-1.367-3.583-1.367-4.95 0l-22.614 22.614v124.962l73.649 42.521 76.913-44.406v-188.125l-60.27-34.486z" fill="#9d66d6"/><path d="m400.03 210.226-23.444-101.108-24.697-24.697c-2.929-2.929-7.678-2.929-10.607 0l-74.711 74.711v30l54.295 41.068z" fill="#f3f1f4"/><path d="m415.03 210.226-15-77.664-23.445-23.444v101.108z" fill="#ecc3df"/><path d="m415.03 210.226v-59.558c0-1.989-.79-3.897-2.197-5.303l-12.803-12.803v77.664z" fill="#da8bc1"/><path d="m320.866 220.2-54.295-31.068v195.056l31.123 25.661 30.499 9.917z" fill="#ddc9f1"/><path d="m320.866 431.375 7.327-11.609-61.623-35.578v17l50.545 29.182c1.161.67 2.456 1.005 3.751 1.005z" fill="#bd96e4"/><path d="m320.866 220.2v195.336l56.164-26.385v-60.584l30-59.588-7-67.413-23.445-13.536z" fill="#d5d9f2"/><path d="m221.571 360.296 15-64.799-73.649-73.649-71.453 71.452c-1.407 1.407-2.197 3.314-2.197 5.303v23.996l19.109 37.697z" fill="#f3f1f4"/><path d="m139.45 351.569-50.178-28.97v97.167l50.178 45.97 13.964-61.347z" fill="#ddc9f1"/><path d="m89.272 419.766v12.67c0 2.679 1.429 5.155 3.75 6.495l46.428 26.805 3.42-15.025z" fill="#bd96e4"/><path d="m139.45 448.736 53.472 39.232 39.421-22.232-10.772-161.579-82.121 47.412z" fill="#d5d9f2"/><path d="m221.571 304.157v156.89c0 1.25-.667 2.406-1.75 3.031l-25.149 14.52c-1.083.625-2.417.625-3.5 0l-51.722-29.862v17l49.722 28.707c2.32 1.34 5.179 1.34 7.5 0l36.149-20.871c2.32-1.34 3.75-3.816 3.75-6.495v-171.58z" fill="#a4ace3"/><path d="m415.029 0c-4.856 0-8.243 36.825-11.948 40.53s-29.546 7.172-29.546 12.029 25.84 8.323 29.546 12.029c3.705 3.705 7.092 40.53 11.948 40.53s8.243-36.825 11.948-40.53 29.546-7.172 29.546-12.029-25.84-8.323-29.546-12.029c-3.704-3.705-7.091-40.53-11.948-40.53z" fill="#ecc3df"/><circle cx="366.589" cy="465.736" fill="#d5d9f2" r="8"/><circle cx="76.276" cy="265.042" fill="#ddc9f1" r="8"/><path d="m58.513 245.497c-4.143 0-7.5-3.358-7.5-7.5v-15h-10.264c-4.143 0-7.5-3.358-7.5-7.5s3.357-7.5 7.5-7.5h10.264v-15c0-4.142 3.357-7.5 7.5-7.5s7.5 3.358 7.5 7.5v15h10.263c4.143 0 7.5 3.358 7.5 7.5s-3.357 7.5-7.5 7.5h-10.263v15c0 4.142-3.357 7.5-7.5 7.5z" fill="#ddc9f1"/><circle cx="454.199" cy="118.25" fill="#ecc3df" r="8"/><circle cx="74.272" cy="138.061" fill="#ddc9f1" r="15"/><circle cx="400.029" cy="438.491" fill="#d5d9f2" r="15"/><path d="m400.03 201.566v64.582c0 .547-.128 1.086-.374 1.574l-29.252 58.103c-.246.488-.374 1.027-.374 1.574v57.732c0 1.25-.667 2.406-1.75 3.031l-47.414 27.374v15.84c1.295 0 2.59-.335 3.75-1.005l56.664-32.715c2.321-1.34 3.75-3.816 3.75-6.495v-61.593l29.199-57.997c.527-1.046.801-2.201.801-3.373v-57.972z" fill="#a4ace3"/></g></svg>