<svg id="Capa_1" enable-background="new 0 0 512 512" height="512" viewBox="0 0 512 512" width="512" xmlns="http://www.w3.org/2000/svg"><g><path d="m256 0c-5.479 0-10.918.172-16.312.511l-213.135 141.826c-16.997 34.246-26.553 72.839-26.553 113.663 0 74.876 32.145 142.244 83.389 189.056 0 0 83.43 57.386 172.611 57.386 119.325 0 243.452-105.057 243.452-246.442 0-167.639-159.5-241.917-159.5-241.917-26.299-9.125-54.547-14.083-83.952-14.083z" fill="#008cdf"/><path d="m509.492 220.038-62.062-7.084c0 141.385-114.615 256-256 256-38.613 0-75.211-8.589-108.042-23.898 19.876 18.158 42.626 33.223 67.488 44.434l15.074-.84 19.115 13.392c22.525 6.482 46.324 9.958 70.935 9.958 141.385 0 256-114.615 256-256 0-12.207-.855-24.213-2.508-35.962z" fill="#0069d0"/><path d="m364.312 23.969c-7.907-3.696-16.036-7-24.36-9.886l-22.641 19.912c-6.201 5.302-7.684 14.448-3.123 21.532 4.385 6.81 13.25 9.186 20.711 6.035l4.582-1.936c5.627-2.376 12.219-1.516 16.781 2.547 8.062 7.182 6.657 19.875-2.389 25.228l-53.169 31.461c-10.385 6.145-16.981 17.316-16.765 29.381.224 12.532 7.246 22.739 21.358 24.039 29.202 2.69 24.998-28.25 42.15-28.25h58.826c8.954 0 16.719 6.695 17.495 15.616.884 10.164-7.105 18.687-17.085 18.687h-70.54c-27.437 0-51.363 21.143-52.187 48.568-.851 28.378 21.899 51.65 50.086 51.65h7.174c13.682 0 24.774 11.092 24.774 24.774v88.039c0 2.613.459 5.19 1.322 7.595l20.718-.446 64.507-104.905 8.291-60.122 21.03-30.449c.001.001-40.652-143.127-117.546-179.07z" fill="#98db7c"/><path d="m509.492 220.038c-12.223-87.035-68.398-160.093-145.18-196.068 51.026 46.798 83.118 114.29 83.118 188.984 0 73.308-30.735 139.338-80.117 186.007 3.027 8.649 11.611 14.654 21.587 13.229 6.363-.909 11.765-5.189 14.935-10.78l61.099-107.736c5.409-9.537 6.802-20.834 3.873-31.4l-4.737-17.087c-1.557-5.615 3.035-11.033 8.829-10.418l3.37.357c9.069.962 18.129-1.901 24.999-7.899z" fill="#77cc7d"/><path d="m253.61 22.633-13.922-22.122c-93.636 5.874-173.552 62.027-213.135 141.826l16.132 111.444c1.81 12.509 9.25 23.5 20.191 29.829 6.294 3.64 9.048 11.287 6.521 18.104l-5.508 14.859c-4.956 13.37-.773 28.41 10.373 37.302l14.709 11.735c5.031 4.014 9.055 9.149 11.749 14.995l38.221 82.94 22.34 15.765 15.775-10.756-5.721-23.908c-3.227-13.487-1.498-27.684 4.871-40.002l24.808-47.977c6.833-13.215.561-29.429-13.387-34.605l-20.381-7.564c-6.474-2.402-10.769-8.579-10.769-15.483v-1.591c0-9.122-7.395-16.516-16.516-16.516h-35.431c-8.683 0-17.212-2.281-24.736-6.616l-8.643-4.979c-6.565-3.783-11.031-10.369-12.115-17.868l-.552-3.82c-1.39-9.61 2.964-19.146 11.135-24.393l5.079-3.261c6.153-3.95 14.171-3.385 19.709 1.389l4.527 3.903c5.512 4.752 14.101 1.936 15.729-5.158l4.828-21.037c2.573-11.208 10.789-20.272 21.693-23.929l35.632-11.95c10.176-3.413 14.445-15.472 8.683-24.526l-16.198-25.453c-4.451-6.994-13.397-9.605-20.912-6.103l-13.377 6.235c-6.919 3.226-15.54 1.843-20.21-4.196-6.025-7.79-3.604-18.982 4.896-23.648l33.619-18.458c11.152-6.123 25.129-2.804 32.337 7.679l3.124 4.543c4.619 6.723 12.254 10.738 20.411 10.738h15.128c10.029 0 19.068-6.046 22.897-15.314l9.003-21.791c4.095-9.913 3.123-21.196-2.607-30.262z" fill="#98db7c"/><path d="m150.876 489.49c11.008 4.967 22.417 9.163 34.188 12.552l-8.01-33.488c-13.012-.724-25.695-2.408-38.114-5.009z" fill="#77cc7d"/></g></svg>