<svg id="Layer_1" enable-background="new 0 0 53 53" height="512" viewBox="0 0 53 53" width="512" xmlns="http://www.w3.org/2000/svg"><g id="_x31_91"><g><g><g><path d="m39.0940437 16.7133999c-.2112923 0-.4170876-.1097107-.5303841-.3060646-.1689873-.2926788-.0685997-.6668634.2239609-.8358507l2.1879845-1.263217c.0530624-.0305948.0881996-.0587988.1097107-.0798321-.0207977-.0203171-.0542603-.0469675-.104454-.076128l-4.1871376-2.433217c-.0850945-.0494766-.1207085-.0524645-.1211853-.0524645-.0473251.0059757-.1991043.1066027-.3097687.1799812-.1077957.0715866-.2251549.1490288-.3585281.2259932l-2.1879845 1.263217c-.2918434.1688671-.6668625.0689573-.8358498-.2239609-.1689873-.2926798-.0685997-.6668644.2239609-.8358507l2.1879845-1.263217c.1094704-.063221.205555-.1272783.2939911-.185957.3958168-.2624435.937912-.6216898 1.722374-.16576l4.1871414 2.4332161c.4682388.2721243.7361794.6859856.7354622 1.1354618-.0007172.4510298-.2717628.8659668-.7438278 1.1384487l-2.1879845 1.2630978c-.096325.0556926-.2014924.0821037-.3054658.0821037z" fill="#9ea9c9"/></g></g></g><g><g><g><g><path d="m39.5379448 16.346571-.0931664 26.0737247c-.0067406 2.0643616-1.3636322 4.1260185-4.0747108 5.7016144-5.4558811 3.1701126-14.3316593 3.171463-19.8240128 0-2.7637196-1.5958366-4.143569-3.6898956-4.1381636-5.78125l.0931673-26.0615959c0 2.0873032 1.3798332 4.1759567 4.1381645 5.7691212 5.4936867 3.1714306 14.3681145 3.1714306 19.8240108 0 2.7110635-1.5756302 4.0693056-3.6372872 4.074711-5.7016144z" fill="#dedffb"/></g></g></g><g><g><g><path d="m35.3998489 10.5651159c5.4927597 3.1712456 5.5208321 8.3118773.0637856 11.4831667-5.456213 3.1708031-14.3310165 3.1713295-19.8237743.0000839-5.4927464-3.1712379-5.5208416-8.3118563-.0646305-11.4826593 5.4570465-3.1712894 14.3318748-3.1718297 19.8246192-.0005913z" fill="#e9e7fc"/></g></g></g><g><g><g><path d="m24.1768723 28.5857258v17.531599c0 .4625473-.3914547.8728027-.8835907.8728027-.4849072 0-.8728046-.3878975-.8728046-.8728027v-17.531599c0-.3555412.2047348-.6572838.5064106-.797369.1077938-.0538635.237093-.0861549.366394-.0861549.4849052-.0000001.8835907.3986835.8835907.8835239z" fill="#e9e7fc"/></g><g><path d="m15.4380379 25.7087135v17.5315971c0 .4653702-.3860846.8835907-.8835907.8835907-.4849062 0-.8728046-.3986855-.8728046-.8835907v-17.5315971c0-.3448219.2047348-.6572838.5064116-.797369.1185141-.0430794.237093-.0754375.3663931-.0754375.4849061 0 .8835906.3878994.8835906.8728065z" fill="#e9e7fc"/></g><g><path d="m19.8020611 27.5621166v17.5315304c0 .4947815-.3919945.8728065-.8728046.8728065-.4849052 0-.8835907-.3879013-.8835907-.8728065v-17.5315304c0-.355608.2155209-.6573505.5171986-.7974358.1077938-.0538635.237093-.0753708.3663921-.0753708.4849071.0000001.8728046.3878995.8728046.8728066z" fill="#e9e7fc"/></g><g><path d="m32.9049187 27.6806297v17.5315971c0 .5117264-.4195633.8728027-.8728027.8728027-.4849072 0-.8728065-.3879623-.8728065-.8728027v-17.5315971c0-.3556061.2047348-.6572838.5064793-.797369.1077271-.0538635.2370262-.0862217.3663273-.0862217.4849051 0 .8728026.3986836.8728026.8835907z" fill="#e9e7fc"/></g><g><path d="m28.5408955 28.5857258v17.531599c0 .4618263-.3746967.8835907-.8728046.8835907-.4849072 0-.8835907-.3986855-.8835907-.8835907v-17.531599c0-.3447552.2155209-.6572838.5064774-.7865829.1185131-.0538635.2370281-.0862217.3771133-.0862217.4849052-.0000001.8728046.3879642.8728046.8728046z" fill="#e9e7fc"/></g><g><path d="m37.2797279 25.4824715v17.5207443c0 .4630623-.3741112.8835907-.8835907.8835907-.4848404 0-.8728027-.3986816-.8728027-.8835907v-17.5207443c0-.3556061.2047348-.6573486.5064774-.7974358.118515-.0538635.2370262-.0861549.3663254-.0861549.484909 0 .8835906.3986835.8835906.8835907z" fill="#e9e7fc"/></g></g></g><g enable-background="new"><g><g><g><g><path d="m40.2771683 14.6301088-.0071754 1.3716002c-.0061798 2.1797504-1.4384232 4.3562126-4.3001289 6.0192547-5.76194 3.3484745-15.1342545 3.3475323-20.9321556.0001106-2.9179049-1.6846542-4.3752708-3.8959351-4.3690109-6.1039228l.0071754-1.3715973c-.006259 2.2079878 1.6788025 3.9457006 4.5967083 5.6303549 5.7979021 3.3474197 14.9838591 3.4409866 20.7458.092514 2.8617038-1.6630421 4.2526073-3.4585629 4.2587871-5.6383143z" fill="#e9e7fc"/></g></g></g></g><g><g><g><g><path d="m35.9776268 20.6489964c-5.7623634 3.3483391-15.1349812 3.3483391-20.9324665 0-5.7988348-3.3469868-5.8298855-8.7758713-.0675058-12.124177 5.7610273-3.3469877 15.1309443-3.3469877 20.9297638 0 5.7988348 3.3483057 5.8312368 8.7771902.0702085 12.124177z" fill="#e9e7fc"/></g></g><g><g><g><path d="m35.0222092 19.1082554c.1506004.0869484.2968788.1755733.4390945.2657013 2.1667061-1.3641796 3.3539124-3.0870819 3.3514977-4.8861217-.0025444-1.9166279-1.3487434-3.7486782-3.7905922-5.1586456-2.554348-1.4743114-5.9588737-2.2862754-9.5862064-2.2862754-3.6267529 0-7.0211048.8116174-9.5576458 2.2852349-2.4064665 1.3983479-3.7303524 3.2154818-3.7275772 5.116559.0026016 1.7981148 1.1883612 3.5213623 3.3519897 4.8912086.1225891-.077177.2467537-.1538353.3755875-.2287025 5.2499561-3.0499897 13.8582343-3.0496979 19.1438522.0010414z" fill="#b0b8cf"/></g></g><g><g><path d="m25.5272293 21.8880692c3.627449 0 7.0224915-.811964 9.559845-2.2862759.1283684-.0745773.2520599-.1509476.3742294-.2278366-.1422157-.0901279-.2884941-.1787529-.4390945-.2657013-5.2809734-3.0480576-13.8894806-3.0535965-19.1438522-.0010414-.1288338.0748672-.2529984.1515255-.3755875.2287025.1418839.0898399.2877855.1782341.4380236.2649517 2.553771 1.4748898 5.9582967 2.287201 9.5864362 2.287201z" fill="#e9e7fc"/></g></g></g></g></g></g></g><g><g enable-background="new"><g><g><path d="m21.5559196 27.0824623c0 .247263-.0883255.4209499-.2296181.5033646l-.470295.2746315c.1412926-.0794678-.2914791-.2900925-.2914791-.5403004 0-.497488-.133667-.4449692-.5663853-.6922493-.2178307-.1265774-.113575-.7632771-.2578125-.6808624l.4703121-.2775612c.1442394-.0824318.344408-.0706635.5622406.0559311.4327356.2502079.7830373.8566112.7830373 1.3570461z" fill="#9ea9c9"/></g></g><g><g><path d="m20.3024559 26.0020523c-.4341507-.250658-.7886372-.0508099-.7900505.4480629-.0014153.4988708.3507824 1.1067371.7849331 1.3573933.4322777.2495766.7867641.049715.7881775-.4491577.0014152-.4988728-.3507824-1.1067238-.7830601-1.3562985z" fill="#c9cee2"/></g></g></g></g><g><g enable-background="new"><g><g><path d="m15.9205799 23.8513012c0 .247263-.0883265.420948-.2296181.5033627l-.470295.2746334c.1412926-.0794678-.8326273-.0288372-.8326273-.279047 0-.4974861.4327173-.7561951 0-1.0034733-.2178316-.1265774-.1388121-.7133064-.2830505-.6308918l.4703121-.2775612c.1442394-.0824318.344409-.0706635.5622416.0559311.4327345.2502079.7830372.8566112.7830372 1.3570461z" fill="#9ea9c9"/></g></g><g><g><path d="m14.6671162 22.7708912c-.4341507-.250658-.7886372-.0508099-.7900515.448061-.0014143.4988728.3507824 1.106739.7849331 1.3573952.4322777.2495766.7867641.049715.7881784-.4491577s-.3507824-1.1067238-.78306-1.3562985z" fill="#c9cee2"/></g></g></g></g><g><g><g><path d="m20.6251354 27.2645874c0 .1498566-.0599556.2498226-.1499195.289772l-2.0385284 1.1791553c-.3897381.2198753-.8693771.3397846-1.3590813.3397846-.4796391 0-.9692822-.1199093-1.3490171-.3397846l-3.4975147-2.0884819c-.4696369-.2598248-.7294617-.6795101-.7294617-1.1292019 0-.4496937.2697668-.869379.7394648-1.1392059l2.0385294-1.1691532.0499525-.0300064c.0799599-.0299473.1799259-.0199451.27983.0400105.2398205.1398544.4396906.4796391.4396906.7494678 0 .1398525-.0499525.2298164-.1199102.2697659-.0100031.0100021-.0200052.0200062-.0300083.0200062l-2.0485315 1.1791534c-.0499525.0300083-.0799608.0599556-.1099081.0799618.0200062.0199432.0599556.0499516.1099081.0799599l3.4975147 2.0784779c.379734.2298794 1.0892525.2298794 1.4789295 0l2.0385914-1.1691513.0499516-.0300083c.0699577-.0299473.1698627-.0199432.2798309.0500145.2398184.1299113.4296873.4696368.4296873.7394637z" fill="#9ea9c9"/></g></g></g><g><g><g><g><path d="m35.5431099 19.3984871c-.1425743-.090271-.2875252-.1806011-.4396133-.2661152-6.3223782-3.6459446-16.379034-2.436285-19.5332146.1948738-.0166359.0094566-.0308933.0189705-.0475292.0308628 0 .0023785-.0023785.0023785-.0071211.0023785-.011878-.0071354-.0261354-.0166492-.0380287-.0237846-1.7671642-1.1329327-3.3196115-2.7960548-3.3268242-4.8856363-.0064726-5.2240448 8.532855-7.5654006 13.8633585-7.4211903h.0712872c.2209949.0047569.441988.0142136.6629829.0261068 9.8844661.5387835 16.5853672 7.4685058 8.7947025 12.3425045z" fill="#dedffb"/></g></g><g><g><path d="m35.5431099 19.3984871c-.1211967.0760593-.2447548.1544952-.3754463.228117-.7865562.4586678-1.6586685.8531132-2.592556 1.1786938-.337429.1188164-.6819973.228117-1.0336857.3255234-1.0123081.2875252-2.086401.4990482-3.2008877.6296978-.3825817.0451946-.7675419.0808163-1.157259.1069813-.313673.021349-.6297112.0379982-.948143.0451355-.2067375.0071354-.4158535.0095139-.6249695.0095139h-.035635c-.0855579 0-.1711006 0-.2542667-.0023785-.3279305-.0023785-.6534824-.0118923-.9766712-.0285435-1.3853741-.0713005-2.7279911-.2613583-3.9874287-.5631542-.1069374-.026165-.209116-.0546494-.3136749-.0831928 0 0-.0023785 0-.0094986 0-.2376308-.0594082-.4728966-.1235733-.7057705-.1924953l-.007122-.0023212c-.3493233-.1046009-.6915112-.2186584-1.0241852-.3422318-.0095139-.0023785-.0213928-.0071354-.0308933-.0094547-.2495232-.0927086-.494276-.1877384-.731905-.2899609-.5560627-.2352524-1.0835934-.4966106-1.5778694-.7818127-.0023785 0-.0023785-.0023212-.0047426-.0023212-.1497087-.0879517-.2946739-.1734657-.4348679-.2637959.0047426 0 .0071211 0 .0071211-.0023785.0071363-.0023785.0118933-.0047569.0166359-.0071354.0095148-.0095139.0190153-.0166492.0308933-.0237274.0142574-.0118942.0308933-.0214081.0475292-.0309219.0903006-.0570297.1806011-.111681.2732811-.1663303 2.2047901-1.2835045 4.9164143-1.9696884 7.4568253-2.1957016h.0023785c.0526505-.0087852.1299286-.0131626.4420052-.0380001.028513-.0024376.0570278-.0047569.0855427-.0047569h.0023785c.0213795-.0024376.0451508-.0047569.0665283-.0047569.283329-.0218163.9056072-.0498943 1.5374756-.0498943.2114811 0 .4205971.0023212.6297131.0094566.028513 0 .0570278 0 .0855427.0023785.1021938.0023785.2019939.0047569.301796.0095158h.0023785c.2400093.0095139.4776382.0237846.7128906.0403786h.0023785c1.8463783.1354637 3.60009.4823952 5.1827164 1.021822.1306953.0451927.2613869.0903282.3920822.1378441.2614021.0974064.5180473.1996288.7675552.306551.1758461.0736217.349308.1520576.5204124.2328739h.0023766c.0023651.0023785.0023651.0023785.0047455.0023785.3516998.1663303.6891327.344553 1.0146828.5322895.1520878.0855137.2970387.1758438.439613.2661148z" fill="#e9e7fc"/></g></g></g><g><g><g><g><g><g><g><g><g><path d="m38.6323013 15.9909058c-1.5831299 4.2214432-8.4369736 5.9312439-13.0221386 5.9312439h-.035635c-4.6321774 0-10.9301167-1.5863609-12.9104595-5.4512253.8815985-1.7062283 1.889164-3.3506117 3.2840528-4.5102196.4443674-.3683386.9220057-.6867838 1.3259668-1.1121511.4705181-.503747.8174477-1.1382589 1.2333012-1.7037916.4087315-.5584545.8887501-1.0432291 1.4186611-1.4424319.7556629-.5774255 1.6135044-.9790068 2.5093765-1.1643653.3707027-.0760584.7746773-.1330872 1.0455647-.4348822.4491234-.506125.2685223-1.3663745.4039745-2.0721297.1473293-.7770557.7485409-1.4091315 1.4352951-1.5137329.6938763-.1045434 1.366375.2852027 1.9794502.674891 1.6206417 1.0337152 3.1961308 2.157702 4.7217121 3.3719606.598835.4752603 1.2047882.9814434 1.6016426 1.6848202.0760269.1354647.1425705.2732515.2019806.4158525.3469429.8150558.4800186 1.7513638.8412056 2.5687981.8174477 1.8534698 2.6424484 2.8182631 3.7640686 4.4484329.0689088.0997858.1354524.2043876.2019807.3089304z" fill="#4c5c75"/></g></g><g><g><path d="m37.396637 17.9037838c-.2233734.2376308-.47052.4681835-.7414207.6939201-.1259346-.1259518-.2637672-.2400093-.3778229-.3564453-.1473312-.1473598-.2946587-.2946606-.4515038-.4253674-.0712852-.0617867-.1449509-.1188164-.2209969-.1758442-.0807838-.0617867-.1639633-.1211948-.2471275-.1806011-.1996155-.1426029-.3968391-.2851448-.5940781-.4301262-.2091141-.1496792-.4158516-.3017941-.6202087-.4538517-.192482-.1402245-.3849754-.2827663-.5750771-.4253674-.1734657-.1307087-.3707047-.3184462-.3326759-.5536985.007122-.047514.0261383-.0974073.0617867-.1235723.03088-.0237284.0689087-.0284853.1045456-.0308638.2495232-.0166502.4918938.073679.7247849.1734657.2518845.1069221.5037727.2257366.7128906.4158525.0570259.0522728.1092987.1069221.1615868.1639519.0665283.0713005.1330719.142601.2019806.2067661.1568413.1425438.337429.2471447.5132866.3540668.0926666.0546494.1853447.1116791.2756462.1687069.482395.2994177.9528998.6225626 1.4044036.9790079z" fill="#1d2943"/></g></g><g><g><path d="m23.753912 8.5578108c-.1050186.0658493-.2170181.1845198-.1830273.3159971.028019.1083813.1384735.152894.234293.1799955.457407.1293745.9228745.2213593 1.3916893.2750235.1484623.0169945.2974815.0301847.4444447.0596905.1948738.0391245.3844242.1065836.5733452.1738644.4502068.1603346.9004135.3206682 1.3506184.4810028.1856403.0661125.3727531.1329355.5429497.2405367.176609.1116543.3314934.2650862.5108356.3708658.3867474.2281094.8439579.2132444 1.2786217.1930056.288187-.0134172.5763741-.0268354.8645611-.0402536.1060181-.0049362.2271976-.0187254.2892952-.1172571.053875-.0854874.0397892-.2098942-.0135727-.2958021s-.1380806-.1392698-.2241497-.1766739c-.2098541-.0912008-.4386024-.1030502-.6586304-.153862-.5313053-.1226931-.9987831-.4680386-1.4820518-.7490616-.6522846-.3793068-1.3530617-.6490211-2.0729809-.7978458-.522583-.1080313-1.0529976-.1522331-1.5825062-.1873541-.4220525-.0279943-.8840123-.009967-1.2637349.2281283z" fill="#1d2943"/></g></g><g><g><path d="m19.058094 11.6320372c-.5280571.4308691-1.123661.7379065-1.6926537 1.0939198-.0738564.0462112-.155407.1060581-.1678314.2013855-.0091476.0701714.0229416.1378155.0539131.1992617.0520725.1033134.1079769.2111578.197773.2716103.1396675.0940275.3228531.0446491.4584713-.0568562.1356182-.1015043.240406-.2478256.3642845-.367403.2197819-.2121515.4935608-.3348856.735878-.5119457.4498806-.328723.7938175-.8460407 1.2871456-1.0790825.2096767-.0990477.4368629-.1413946.6480026-.2362766.1597157-.0717735.3080292-.1725922.4555321-.272954.3172016-.2158241.6344032-.4316473.9516144-.6474781.1834278-.1248045.614912-.4308901.4829597-.7516575-.1118488-.2718925-.5882778.0076675-.7660923.0724525-1.761465.6417731-2.1483211 1.3827504-3.0089969 2.0850238z" fill="#1d2943"/></g></g><g><g><path d="m18.8281994 17.6946964c-.068922.0713005-.1402092.1449223-.2114944.2138443-.6238422.6167507-.9019165.6437244-1.4210243.8958721-.4443684.2115231-.8507214.5038033-1.2451811.81987-.1497087-.0879517-.2946739-.1734657-.4348679-.2637959-.011878-.0071354-.0261354-.0166492-.0380287-.0237846-.0926647-.0594082-.1805868-.1188164-.2685232-.1782227.0285292-.0284863.0546646-.0594082.0784216-.0926514.0023785 0 .0023785-.0023785.0023785-.0047569.4586248-.5726681.80795-1.2998314 1.3948889-1.6657906l.0023785-.0023785c.0023785-.0023785.0047569-.0047588.007122-.0023785l.0023785-.0023804c.0285149-.021349.0594082-.0379982.0903015-.0546494.1234131-.0655327.2552338-.1130848.3849583-.142601h.0023804c.2067356-.0522728.4229889-.0688648.6344681-.0736217.313673-.0071354.7128906-.0713005 1.021822.0071354.403959.1045439.2186162.3421747-.0023787.5702898z" fill="#1d2943"/></g></g><g><g><path d="m21.0104828 19.0792809c.2470188.0583935.5020638.0445461.754137.0344963.5240898-.0208969 1.0517101-.0239944 1.5693893.0719051.4418201.0818462.8708763.2347698 1.2981873.3872147.1108227.0395355.2472324.124876.2239895.2551174-.0242214.1357307-.1881256.1460171-.3080959.1282654-.5068359-.0749989-1.0232773-.0643101-1.5274181.0316124-.1415958.0269432-.2821598.0605469-.4234238.0896893-.4287758.0884552-.8691082.1355858-1.300024.0620365-.4940205-.0843201-.9787464-.3408279-1.2948475-.7837219-.1666698-.2335243-.2786846-.5202503-.3179531-.8185978-.0246429-.1872234-.0772209-.6428261.1943073-.4930725.168911.0931587.2868443.4702778.4359779.6246052.1956921.2025069.4368954.3492545.6957741.4104499z" fill="#1d2943"/></g></g><g><g><path d="m24.2085991 12.9680815c.0337124.2870321.2263527.524744.4523563.6546917.2260017.1299486.4828987.1684446.7349415.1920948.2918224.0273838.5861416.0373917.8769245-.0019093.4022312-.0543642.7944603-.2025404 1.1993694-.2135143.3822327-.0103607.9824562.1125565 1.5620308.4240837.1392765.0748615.274868.1588011.4163685.2279806.4290829.2097807.8990822.2779903 1.3620453.3440819.0622292.0088835.1525478-.0116577.1448288-.0829287-.0020027-.0184832-.0113773-.0346746-.0204926-.0500984-.1858692-.3145409-.3910542-.647069-.7014008-.7809458-.1620369-.0698986-.3465271-.081954-.4870358-.197834-.1722927-.1420946-.2328625-.4007998-.3618183-.5939674-.2524948-.3782225-.7230263-.4512491-1.1380749-.424201-.205389.0133848-.409935.0436974-.611536.0906267-.2277985.0530281-.4529171.1274233-.6846752.1480913-.5682602.0506792-1.1064129-.2146492-1.6570148-.3249502-.4150142-.0831385-1.1749686-.1618672-1.0868167.5886984z" fill="#1d2943"/></g></g><g><g><path d="m28.0014687 15.1969814c.2892876-.0161667.5798283-.1629658.8598671-.0783024.237793.0718908.4176121.2979708.6471062.3992386.1343861.0592995.2809353.0735607.4172344.126833.1362972.0532732.2709179.1619825.301548.323143-.4473534.0381699-.8967228.0453644-1.3448334.0215321-.2293682-.0121984-.4756393-.0278921-.6707306.1107845-.1835938.1305027-.2850189.3737965-.459486.5197983-.1500835.125597-.3401012.168005-.5070515.2616043-.2608109.1462173-.4549541.4110107-.6218796.6831303-.1669273.2721195-.3169498.5619621-.5251427.7937946-.2081909.2318325-.490799.4032021-.7795601.3680878-.0224857-.1941719.0801487-.3775005.1926956-.5249882.3375931-.4423962.8201694-.7744389.9887924-1.3293266.0754986-.2484455.1144142-.5707874.3321476-.6545868.0732517-.0281925.155817-.0212498.2247295-.0613098.3956394-.2300053-.174736-.7197552-.0424232-.9745703.1436578-.2766676.773306.0270795.9869863.0151376z" fill="#1d2943"/></g></g><g><g><path d="m22.6401367 15.9814682c-.398634-.2361813-.7840137-.5008678-1.1544495-.7902269-.1896381-.1488075-.3920059-.3102598-.6214523-.3096409-.2161751.0006485-.4141159.1468897-.6297398.165904-.1852245.016448-.3660221-.0614338-.5512333-.0823336-.2891617-.0322781-.5755711.0759954-.8426228.207056-.2664852.1310911-.5274487.2874727-.8105373.3596659-.2836266.0721931-.6026478.0481081-.8326473-.1557636.070219-.1785498.2416077-.2729111.4047089-.3305416.4904232-.1734791 1.0532646-.1658735 1.4513454-.5362988.17803-.166523.3593807-.4172974.5827522-.3577499.0751858.0202513.1426506.0759649.2194977.0835714.4423141.0418005.1813507-.7180338.4107952-.8548145.2493687-.1494255.6457901.4881916.8332157.6066065.2532291.1601849.5678215.2102098.7674217.4501934.1691895.2045212.2183914.5052891.3676701.7294426.0868073.1310596.2051201.2311096.2969093.3590164.0912229.1272889.1559068.300768.1083661.4559136z" fill="#1d2943"/></g></g><g><g><path d="m34.098423 13.7300797c-.1077385.1994095-.0976563.4567423-.0367737.6806316.0326881.120224.0813217.2395124.1649094.3213158.1128235.1104126.2709274.1356916.4193306.1355381s.2989769-.0208035.4438171.0162125c.1637268.0418434.3059692.1536064.4572792.2365589.3341179.1831741.7256546.2249861 1.0835838.1157131.0991821-.0302792.1990967-.074111.2713699-.1575851.0722771-.0834732.1103096-.2147865.0689888-.3223934-.2339211-.1346979-.4998894-.1954784-.7610359-.1739159-.0966339.0079794-.1929626.0269823-.2897644.0223608-.2040825-.0097427-.3921051-.1226206-.5722313-.2329273-.2666893-.1633158-.5333786-.3266315-.8000679-.4899473-.0939102-.0575113-.1898003-.1158266-.2946358-.1372881-.1048317-.0214624-.2220192-.0003424-.2988052.0841694z" fill="#1d2943"/></g></g><g><g><path d="m29.8566513 8.3752422c.1977558.0292368.4068794-.0737028.5935936.0064383.0941639.0404158.1690426.12257.2459831.1967201.5303211.5110893 1.2477913.6972494 1.9405861.7212048.1088867.0037651.2210121.0033121.3223114-.0425844.1012955-.0458956.1904526-.1473989.2000389-.2716732.017231-.2233019-.2057266-.3630123-.3962402-.4144917-.1375771-.0371761-.2779694-.06071-.4190788-.0702505-.3348045-.0226355-.6726189.0333023-1.0052032-.0162287-.2703972-.0402699-.5326176-.1509523-.761158-.3212814-.2292385-.1708488-.8684807-1.0022941-1.1765079-.7903032-.3819181.2628455.1940326.9637679.455675 1.0024499z" fill="#1d2943"/></g></g><g><g><path d="m27.534977 20.8599491c-.0831776.1045437-.2114944.1449223-.3303089.1806011-.080801.021349-.1639652.0451355-.2447662.068922-.0403919.0118351-.0807858.0237293-.1211929.0356216-.0570297.0166512-.1188164.0356216-.1663303.0760574-.0998154.0878944-.1164513.2518444-.1758595.3825531-.0403919.0855713-.1021786.1592522-.1687069.2234173-.0308933.0308628-.0617867.0594063-.09268.0855141-.2067375.0071354-.4158535.0095139-.6249695.0095139h-.035635c-.0855579 0-.1711006 0-.2542667-.0023785-.3279305-.0023785-.6534824-.0118923-.9766712-.0285435-.2304935-.2400093-.4633675-.487154-.5132751-.8293285-.0095005-.0712414-.0023785-.159193.0522709-.1900578.0261517-.0142708.057045-.0118923.0855579-.0095139.1164379.0118351.2376308.021349.3421898.0783787.1449509.0760574.2471294.2257366.3707027.3374748.332674.3041153.658226.206707 1.0384426.1758442.4277325-.0380592.2590084-.4586105.5441685-.6653767.1259518-.090271.2875385-.026165.4348679.0023785.0712852.0142708.1449509.0189705.2162361.0118923.2257519-.0166492.4443684-.1283283.6035919-.3136883.1069201.0713026.0998.2661173.0166339.3707182z" fill="#1d2943"/></g></g></g><g><g><path d="m24.5256023 10.9309254c-.0304222.0322351-.0904942.0722952-.14678.0727205-.0224285.042676-.0494347.0853519-.0878315.1284742-.0471592.0526915-.122448.1106129-.2216873.1384687-.0589409.0165634-.1175003.0204763-.1764412.0352755-.0076046.0017443-.0159683.0043592-.0205364.0082722-.0049381.003933-.0037956.0078459-.002655.0113335.0095062.0230703.0136852.0479059.0129242.0735922-.0003719.0047846-.001133.0104618-.0083561.0156717-.0076122.0052309-.0186405.0078459-.0289078.0104618-.1555176.0365734-.3114223.0561781-.4521141.0579214-.0034256.0317888-.0068417.064003-.0102673.0957928-.000761.0056772-.0019035.0122051-.0091248.0182867-.0125523.0108862-.0368843.0165634-.0574188.0196047-.1140747.0165424-.2041893-.0017433-.2726364-.0278769-.0486717-.018712-.1319447-.043973-.1289101-.0853519.0026646-.041357.0912666-.1062536.126627-.1510983.0965843-.1236897.2072334-.246912.3346214-.36973.0296593-.0303259.0501289-.0377512.0958233-.0500755.2855682-.0796957.5711365-.1589451.8574562-.2347279.0631275-.0169687.1342392-.0339584.1802464-.0243893.0193844.0039339.0319366.0122051.0422039.021348.0665436.0574751.0566559.1471863-.0262356.2360259z" fill="#1d2943"/></g></g></g><g><g><path d="m25.6030426 21.9150143c.0023632.0023785.0047417.0047569.0071201.0071354h-.035635c-.0855579 0-.1711006 0-.2542667-.0023785.0784073-.0760574.2043591-.0784359.2827816-.0047569z" fill="#ffd06c"/></g></g><g><g><path d="m25.6030426 21.9150143c.0023632.0023785.0047417.0047569.0071201.0071354h-.035635c-.0855579 0-.1711006 0-.2542667-.0023785.0784073-.0760574.2043591-.0784359.2827816-.0047569z" fill="#9ea9c9"/></g></g></g></g></g></g></g></g></g></svg>