<svg version="1.1" id="Capa_1" xmlns="http://www.w3.org/2000/svg"
	xmlns:xlink="http://www.w3.org/1999/xlink" x="0px" y="0px"
	viewBox="0 0 372.5 542.8" style="enable-background:new 0 0 372.5 542.8;" xml:space="preserve">
    <g id="Bubbles">
        <path d="M198.3,462.1c0,56.3-72,80-105.6,34.9c-19.2-26-13.7-62.7,12.3-81.9s62.7-13.7,81.9,12.3
            C194.3,437.4,198.3,449.6,198.3,462.1z" fill="#B2E5FB"/>
        <path d="M186.1,449.9c0,32.3-26.2,58.6-58.5,58.6c-12.6,0-24.8-4-35-11.5c-19.4-25.9-14.2-62.6,11.7-82
            c20.8-15.6,49.4-15.6,70.3,0C182.1,425.1,186.1,437.3,186.1,449.9z" fill="#9FDBF3"/>
        <path d="M139.8,506c-2.7,0-4.9-2.2-4.9-4.9c0-2.7,2.2-4.9,4.9-4.9c17.3,0.1,32-12.7,34.2-29.9c0.3-2.7,2.8-4.6,5.5-4.3
            c2.7,0.3,4.6,2.8,4.3,5.5C180.9,489.6,162,506.2,139.8,506" fill="#EDEBF2"/>
        <path d="M305.7,413.3c0.1,21.6-17.4,39.1-38.9,39.1c-21.6,0.1-39.1-17.4-39.1-38.9c0-8,2.4-15.9,7-22.4
            c12.3-17.7,36.7-22,54.4-9.7C299.4,388.6,305.6,400.6,305.7,413.3" fill="#B2E5FB"/>
        <path d="M295.9,423c0,8-2.4,15.7-7,22.3c-6.5,4.6-14.3,7-22.3,7c-21.6,0-39-17.5-39-39.1c0-7.9,2.4-15.7,7-22.2
            c17.7-12.3,42-7.9,54.3,9.8C293.5,407.4,295.9,415.1,295.9,423" fill="#9FDBF3"/>
        <path d="M291,418.2c-2.7,0-4.9-2.2-4.9-4.9c0-10.8-8.7-19.5-19.5-19.5c-2.7,0-4.9-2.2-4.9-4.9c0-2.7,2.2-4.9,4.9-4.9
            C293.6,384,302.8,418.2,291,418.2" fill="#EDEBF2"/>
        <path d="M222.7,325.4c0,16.2-13.1,29.3-29.3,29.3s-29.3-13.1-29.3-29.3c0-16.2,13.1-29.3,29.3-29.3
            S222.7,309.3,222.7,325.4" fill="#B2E5FB"/>
        <path d="M178.2,350.4c-16-26,14.3-56.2,40.2-40.2C234.3,336.1,204.3,366.5,178.2,350.4" fill="#9FDBF3"/>
        <path d="M178.8,330.3c-10.2,0-4-24.4,14.6-24.4c2.7,0,4.9,2.2,4.9,4.9c0,2.7-2.2,4.9-4.9,4.9c-5.4,0-9.8,4.4-9.8,9.8
            C183.7,328.1,181.5,330.3,178.8,330.3" fill="#EDEBF2"/>
        <path d="M134.9,354.7c0,10.8-8.7,19.5-19.5,19.6c-10.8,0-19.5-8.7-19.6-19.5c0-4,1.2-7.9,3.5-11.2
            c6.2-8.8,18.3-11,27.2-4.8C131.8,342.4,134.9,348.4,134.9,354.7" fill="#B2E5FB"/>
        <path d="M126.5,370.7c-8.9,6.1-21,3.8-27.1-5.1c-4.5-6.6-4.5-15.4,0-22c8.9-6.1,21-3.8,27.1,5.1
            C131,355.3,131,364.1,126.5,370.7" fill="#9FDBF3"/>
    </g>
    <g id="Bubbles_00000104691715564169052380000016472652671404312488_">
        <path d="M201.1,109c27.7-59.8,115.8-49.6,129.4,14.9c7.6,37.1-16.2,73.3-53.3,81c-37.1,7.6-73.3-16.2-81-53.3
            C193.2,137.2,194.9,122.3,201.1,109z" fill="#B2E5FB"/>
        <path d="M208,128c15.9-34.4,56.6-49.4,91-33.5c13.4,6.2,24.4,16.5,31.5,29.4c7.9,37-15.7,73.4-52.7,81.3
            c-29.8,6.4-60.2-7.7-74.6-34.5C200.1,156.3,201.8,141.3,208,128" fill="#9FDBF3"/>
        <path d="M284.9,91.1c2.9,1.3,4.1,4.7,2.8,7.6c-1.3,2.9-4.7,4.1-7.6,2.8c-18.3-8.7-40.2-2.2-51,14.9
            c-1.7,2.7-5.2,3.5-7.9,1.9c-2.7-1.7-3.5-5.2-1.9-7.9C233.1,88.3,261.3,80,284.9,91.1" fill="#B2E5FB"/>
        <path d="M63,108.1c10.5-22.9,37.7-33,60.6-22.4s33,37.7,22.4,60.6c-3.9,8.5-10.4,15.6-18.5,20.4
            c-21.8,12.7-49.8,5.4-62.5-16.4C57.6,137.3,56.8,121.6,63,108.1" fill="#B2E5FB"/>
        <path d="M78.2,102.5C82.1,94,88.5,87,96.6,82.3c9.2-1.7,18.6-0.5,27.1,3.5c22.9,10.6,32.8,37.8,22.2,60.7
            c-3.9,8.4-10.3,15.4-18.3,20.1c-24.9,4.3-48.5-12.3-52.9-37.1C73.1,120.3,74.3,110.9,78.2,102.5" fill="#9FDBF3"/>
        <path d="M81,110.1c2.9,1.3,4.1,4.7,2.8,7.6c-5.3,11.5-0.3,25,11.1,30.3c2.9,1.3,4.1,4.7,2.8,7.6s-4.7,4.1-7.6,2.8
            C61.5,145.1,68.5,104.3,81,110.1" fill="#EDEBF2"/>
        <path d="M108,242.2c7.9-17.2,28.3-24.7,45.5-16.7s24.7,28.3,16.7,45.5c-7.9,17.2-28.3,24.7-45.5,16.7
            C107.5,279.7,100,259.3,108,242.2" fill="#B2E5FB"/>
        <path d="M167.6,237.5c4.2,35.4-42.8,52.6-62.5,23C100.9,225.1,147.8,207.6,167.6,237.5" fill="#9FDBF3"/>
        <path d="M157,258.6c10.9,5-7.8,27.9-27.5,18.7c-2.9-1.3-4.1-4.7-2.8-7.6c1.3-2.9,4.7-4.1,7.6-2.8
            c5.7,2.6,12.5,0.2,15.2-5.6C150.8,258.5,154.2,257.2,157,258.6" fill="#EDEBF2"/>
        <path d="M215.7,254.2c5.3-11.5,18.8-16.5,30.3-11.2c11.5,5.3,16.5,18.8,11.2,30.3c-2,4.3-5.2,7.8-9.2,10.2
            c-10.9,6.4-24.9,2.7-31.2-8.2C213,268.8,212.6,261,215.7,254.2" fill="#B2E5FB"/>
        <path d="M232.5,241.3c12.4-2.1,24.2,6.3,26.3,18.7c1.6,9.3-2.7,18.6-10.8,23.4c-12.4,2.1-24.2-6.3-26.3-18.7
            C220.1,255.5,224.4,246.2,232.5,241.3" fill="#9FDBF3"/>
    </g>
</svg>