<svg id="Capa_1" enable-background="new 0 0 512 512" height="512" viewBox="0 0 512 512" width="512" xmlns="http://www.w3.org/2000/svg"><g><path d="m439.896 152.319c-4.229-2.254-6.214-7.219-4.438-11.67 5.026-12.603 4.832-27.217-1.769-40.28-8.663-17.143-26.018-26.992-44.001-26.917-4.105.017-7.69-2.63-8.949-6.537-1.266-3.929-2.852-7.81-4.772-11.611-17.684-34.993-57.544-51.394-93.867-40.774-3.319.97-6.872-.039-9.272-2.528-7.137-7.398-17.146-12.002-28.237-12.002-21.677 0-39.251 17.573-39.251 39.251 0 .163.01.323.012.485-25.925 3.497-45.815 26.018-45.123 53.059.698 27.265 22.803 49.689 50.055 50.765 10.266.405 19.894-2.173 28.118-6.914 20.591 30.169 59.317 42.618 93.689 29.947v37.986h94.139c15.03 0 27.808-11.689 28.361-26.709.408-11.053-5.652-20.73-14.695-25.551z" fill="#efedef"/><path d="m439.896 152.319c-4.229-2.255-6.214-7.219-4.438-11.67 5.026-12.603 4.832-27.217-1.769-40.28-8.663-17.143-26.018-26.992-44.001-26.917-4.105.017-7.69-2.63-8.949-6.537-1.266-3.929-2.852-7.81-4.772-11.611-15.793-31.254-49.276-47.658-82.129-43.246 95.972 42.299 136.29 142.288 102.279 192.52h30.116c15.03 0 27.808-11.689 28.361-26.709.405-11.052-5.655-20.729-14.698-25.55z" fill="#efedef"/><path d="m217.21 202.09 13.947 179.201h39.348l13.946-179.201z" fill="#e5e1e5"/><path d="m289.261 369.554h-76.861c-6.391 0-12.501 2.625-16.9 7.26l-53.019 55.865c-2.923 3.079-6.634 5.298-10.729 6.415l-89.282 24.35c-9.456 2.579-16.655 10.263-18.611 19.868l-3.206 15.74c-1.363 6.689 3.749 12.948 10.576 12.948h348.037v-58.156l-73.105-77.03c-4.399-4.635-10.509-7.26-16.9-7.26z" fill="#e8ad8c"/><path d="m306.161 376.814c-4.399-4.635-10.509-7.26-16.9-7.26h-34.648c6.391 0 12.501 2.625 16.9 7.26l73.105 77.03v58.156h34.648v-58.156z" fill="#e19974"/><path d="m198.669 450.277c-1.982 0-3.965-.758-5.474-2.274-3.011-3.023-3.002-7.915.022-10.927l10.557-10.515c7.2-7.172 16.763-11.121 26.925-11.121h57.39c4.267 0 7.726 3.459 7.726 7.726s-3.459 7.726-7.726 7.726h-57.39c-6.046 0-11.736 2.35-16.02 6.617l-10.557 10.515c-1.508 1.503-3.481 2.253-5.453 2.253z" fill="#e19974"/><path d="m483.517 476.526-55.486-32.824c-3.237-1.915-6.93-2.926-10.692-2.926h-79.981c-4.006 0-7.891 1.368-11.014 3.878l-35.002 28.132c-4.422 3.554-6.994 8.922-6.994 14.595v24.619h200.106c4.258 0 7.562-3.716 7.064-7.944l-2.188-18.595c-.438-3.723-2.588-7.027-5.813-8.935z" fill="#e8ad8c"/><path d="m354.155 427.385h-16.797c-7.057 0-13.903 2.41-19.404 6.831l-29.782 23.937c-2.882 2.317-3.341 6.532-1.024 9.414 2.317 2.883 6.532 3.341 9.414 1.024l29.782-23.937c3.122-2.51 7.008-3.878 11.014-3.878h29.506z" fill="#e19974"/><path d="m337.358 427.385c-5.065 0-10.011 1.26-14.439 3.596l9.875 10.405c1.479-.398 3.012-.609 4.564-.609h29.506l-3.434-3.619-9.275-9.773z" fill="#dc8758"/><path d="m484.454 512c4.258 0 7.562-3.716 7.064-7.944l-2.188-18.595c-.438-3.722-2.588-7.026-5.814-8.934l-55.486-32.824c-3.237-1.915-6.93-2.926-10.692-2.926h-16.644c46.286 29.215 66.029 47.692 48.123 71.223z" fill="#e19974"/><path d="m346.366 112.113c-2.807-.51-5.114-2.488-6.069-5.175-6.993-19.678-25.774-33.769-47.85-33.769-21.2 0-39.353 12.997-46.953 31.455-1.413 3.432-5.673 4.651-8.698 2.499-7.953-5.658-17.626-8.904-27.869-8.904-26.564 0-48.099 21.535-48.099 48.099v19.274c0 2.615-1.904 4.806-4.479 5.257-15.565 2.728-27.396 16.306-27.396 32.653 0 18.314 14.847 33.161 33.161 33.161h78.844s22.043-2.203 39.669-4.242c7.06 7.79 17.259 12.683 28.6 12.683 17.928 0 32.992-12.229 37.324-28.799.702-2.686 2.717-4.836 5.375-5.639 20.873-6.303 36.074-25.683 36.074-48.613 0-24.92-17.956-45.635-41.634-49.94z" fill="#e5e1e5"/><g fill="#d7d0d6"><path d="m388 162.053c0-24.92-17.956-45.635-41.634-49.94-2.807-.51-5.114-2.488-6.069-5.175-6.993-19.678-25.774-33.769-47.85-33.769-13.542 0-25.835 5.309-34.934 13.951 105.052 21.528 76.271 121.541 42.076 156.759 3.082.793 6.309 1.225 9.638 1.225 17.928 0 32.992-12.229 37.324-28.799.702-2.686 2.717-4.836 5.375-5.639 20.873-6.303 36.074-25.683 36.074-48.613z"/><path d="m206.629 193.929c-3.448 0-6.591-2.325-7.481-5.82-4.746-18.623 6.544-37.635 25.166-42.381 11.139-2.841 22.959-.004 31.612 7.588 3.208 2.814 3.527 7.696.713 10.903-2.815 3.209-7.697 3.527-10.904.713-4.821-4.23-11.403-5.809-17.605-4.23-10.366 2.642-16.651 13.225-14.009 23.592 1.054 4.135-1.444 8.341-5.579 9.395-.64.162-1.282.24-1.913.24z"/></g></g></svg>