<?xml version="1.0" encoding="utf-8"?>
<!-- Generator: Adobe Illustrator 27.8.1, SVG Export Plug-In . SVG Version: 6.00 Build 0)  -->
<svg version="1.1" id="Capa_1" xmlns="http://www.w3.org/2000/svg" xmlns:xlink="http://www.w3.org/1999/xlink" x="0px" y="0px"
	 viewBox="0 0 512 512" style="enable-background:new 0 0 512 512;" xml:space="preserve">
<style type="text/css">
	.st0{fill:#EFEDEF;}
	.st1{fill:#E5E1E5;}
	.st2{fill:#E8AD8C;}
	.st3{fill:#E19974;}
	.st4{fill:#DC8758;}
	.st5{fill:#D7D0D6;}
</style>
<g>
	<path class="st0" d="M439.9,152.3c-4.2-2.3-6.2-7.2-4.4-11.7c5-12.6,4.8-27.2-1.8-40.3c-8.7-17.1-26-27-44-26.9
		c-4.1,0-7.7-2.6-8.9-6.5c-1.3-3.9-2.9-7.8-4.8-11.6c-17.7-35-57.5-51.4-93.9-40.8c-3.3,1-6.9,0-9.3-2.5c-7.1-7.4-17.1-12-28.2-12
		c-21.7,0-39.3,17.6-39.3,39.3c0,0.2,0,0.3,0,0.5c-25.9,3.5-45.8,26-45.1,53.1c0.7,27.3,22.8,49.7,50.1,50.8
		c10.3,0.4,19.9-2.2,28.1-6.9c20.6,30.2,59.3,42.6,93.7,29.9v38h94.1c15,0,27.8-11.7,28.4-26.7C455,166.8,448.9,157.1,439.9,152.3
		L439.9,152.3z"/>
	<path class="st0" d="M439.9,152.3c-4.2-2.3-6.2-7.2-4.4-11.7c5-12.6,4.8-27.2-1.8-40.3c-8.7-17.1-26-27-44-26.9
		c-4.1,0-7.7-2.6-8.9-6.5c-1.3-3.9-2.9-7.8-4.8-11.6c-15.8-31.3-49.3-47.7-82.1-43.2c96,42.3,136.3,142.3,102.3,192.5h30.1
		c15,0,27.8-11.7,28.4-26.7C455,166.8,448.9,157.1,439.9,152.3L439.9,152.3z"/>
	<path class="st1" d="M217.2,202.1l13.9,179.2h39.3l13.9-179.2L217.2,202.1z"/>
	<path class="st2" d="M289.3,369.6h-76.9c-6.4,0-12.5,2.6-16.9,7.3l-53,55.9c-2.9,3.1-6.6,5.3-10.7,6.4l-89.3,24.4
		c-9.5,2.6-16.7,10.3-18.6,19.9l-3.2,15.7c-1.4,6.7,3.7,12.9,10.6,12.9h348v-58.2l-73.1-77C301.8,372.2,295.7,369.6,289.3,369.6z"/>
	<path class="st3" d="M306.2,376.8c-4.4-4.6-10.5-7.3-16.9-7.3h-34.6c6.4,0,12.5,2.6,16.9,7.3l73.1,77V512h34.6v-58.2L306.2,376.8z"
		/>
	<path class="st3" d="M198.7,450.3c-2,0-4-0.8-5.5-2.3c-3-3-3-7.9,0-10.9l10.6-10.5c7.2-7.2,16.8-11.1,26.9-11.1h57.4
		c4.3,0,7.7,3.5,7.7,7.7s-3.5,7.7-7.7,7.7h-57.4c-6,0-11.7,2.4-16,6.6L204.1,448C202.6,449.5,200.6,450.3,198.7,450.3L198.7,450.3z"
		/>
	<path class="st2" d="M483.5,476.5L428,443.7c-3.2-1.9-6.9-2.9-10.7-2.9h-80c-4,0-7.9,1.4-11,3.9l-35,28.1c-4.4,3.6-7,8.9-7,14.6
		V512h200.1c4.3,0,7.6-3.7,7.1-7.9l-2.2-18.6C488.9,481.7,486.7,478.4,483.5,476.5L483.5,476.5z"/>
	<path class="st3" d="M354.2,427.4h-16.8c-7.1,0-13.9,2.4-19.4,6.8l-29.8,23.9c-2.9,2.3-3.3,6.5-1,9.4c2.3,2.9,6.5,3.3,9.4,1
		l29.8-23.9c3.1-2.5,7-3.9,11-3.9h29.5L354.2,427.4z"/>
	<path class="st4" d="M337.4,427.4c-5.1,0-10,1.3-14.4,3.6l9.9,10.4c1.5-0.4,3-0.6,4.6-0.6h29.5l-3.4-3.6l-9.3-9.8H337.4z"/>
	<path class="st3" d="M484.5,512c4.3,0,7.6-3.7,7.1-7.9l-2.2-18.6c-0.4-3.7-2.6-7-5.8-8.9L428,443.7c-3.2-1.9-6.9-2.9-10.7-2.9
		h-16.6c46.3,29.2,66,47.7,48.1,71.2H484.5z"/>
	<path class="st1" d="M346.4,112.1c-2.8-0.5-5.1-2.5-6.1-5.2c-7-19.7-25.8-33.8-47.9-33.8c-21.2,0-39.4,13-47,31.5
		c-1.4,3.4-5.7,4.7-8.7,2.5c-8-5.7-17.6-8.9-27.9-8.9c-26.6,0-48.1,21.5-48.1,48.1v19.3c0,2.6-1.9,4.8-4.5,5.3
		c-15.6,2.7-27.4,16.3-27.4,32.7c0,18.3,14.8,33.2,33.2,33.2H241c0,0,22-2.2,39.7-4.2c7.1,7.8,17.3,12.7,28.6,12.7
		c17.9,0,33-12.2,37.3-28.8c0.7-2.7,2.7-4.8,5.4-5.6c20.9-6.3,36.1-25.7,36.1-48.6C388,137.1,370,116.4,346.4,112.1L346.4,112.1z"/>
	<g>
		<path class="st5" d="M388,162.1c0-24.9-18-45.6-41.6-49.9c-2.8-0.5-5.1-2.5-6.1-5.2c-7-19.7-25.8-33.8-47.9-33.8
			c-13.5,0-25.8,5.3-34.9,14c105.1,21.5,76.3,121.5,42.1,156.8c3.1,0.8,6.3,1.2,9.6,1.2c17.9,0,33-12.2,37.3-28.8
			c0.7-2.7,2.7-4.8,5.4-5.6C372.8,204.4,388,185,388,162.1L388,162.1z"/>
		<path class="st5" d="M206.6,193.9c-3.4,0-6.6-2.3-7.5-5.8c-4.7-18.6,6.5-37.6,25.2-42.4c11.1-2.8,23,0,31.6,7.6
			c3.2,2.8,3.5,7.7,0.7,10.9c-2.8,3.2-7.7,3.5-10.9,0.7c-4.8-4.2-11.4-5.8-17.6-4.2c-10.4,2.6-16.7,13.2-14,23.6
			c1.1,4.1-1.4,8.3-5.6,9.4C207.9,193.9,207.3,193.9,206.6,193.9L206.6,193.9z"/>
	</g>
</g>
</svg>
