<svg version="1.1" id="Layer_1" xmlns="http://www.w3.org/2000/svg"
    xmlns:xlink="http://www.w3.org/1999/xlink" x="0px" y="0px"
    viewBox="0 0 512 307" style="enable-background:new 0 0 512 307;" xml:space="preserve">
    <g>
        <path style="fill:#E8AD8C;" d="M292.1,0.2h-83.6c-7,0-13.6,5.6-18.4,15.7l-57.6,120.4c-3.2,6.7-7.2,11.4-11.6,13.8l-97,52.5
            c-10.3,5.6-18.1,22.2-20.2,42.9l-3.5,33.8c-1.5,14.4,4,27.8,11.5,27.8h378.1V181.8L310.5,15.9C305.7,5.8,299.1,0.2,292.1,0.2z"/>
        <path style="fill:#E19974;" d="M310.5,15.7C305.7,5.8,299.1,0,292.1,0h-37.6c7,0,13.6,5.6,18.4,15.7l79.4,165.8v125.3h37.6V181.5
            L310.5,15.7z"/>
        <path style="fill:#E19974;" d="M193.7,174c-2.2,0-4.3-1.7-6-5c-3.3-6.5-3.3-17,0-23.5l11.5-22.6c7.8-15.5,18.3-23.9,29.2-23.9h62.4
            c4.7,0,8.4,7.5,8.4,16.6s-3.8,16.6-8.4,16.6h-62.4c-6.5,0-12.7,5.2-17.4,14.2l-11.5,22.6C197.9,172.3,195.7,174,193.7,174L193.7,174z"/>
        <path style="fill:#E8AD8C;" d="M503.1,230.4l-60.3-70.6c-3.5-4.1-7.5-6.2-11.6-6.2h-86.9c-4.3,0-8.6,3-12,8.4l-38,60.5
            c-4.8,7.8-7.6,19.2-7.6,31.4v53h217.4c4.7,0,8.3-8,7.7-17l-2.4-40.1C509,241.6,506.6,234.5,503.1,230.4L503.1,230.4z"/>
        <path style="fill:#E19974;" d="M362.6,124.7h-18.3c-7.7,0-15.1,5.2-21.1,14.6l-32.4,51.5c-3.2,5-3.6,14-1.1,20.2s7.1,7.1,10.2,2.2
            l32.4-51.5c3.4-5.4,7.6-8.4,12-8.4h32.1L362.6,124.7z"/>
        <path style="fill:#DC8758;" d="M344.4,124.7c-5.5,0-10.9,2.8-15.6,7.8l10.8,22.4c1.6-0.9,3.3-1.3,5-1.3h32.1l-3.7-7.8l-10.1-21.1H344.4z"/>
        <path style="fill:#E19974;" d="M504.2,306.9c4.7,0,8.3-8,7.7-17l-2.4-40.1c-0.4-8-2.8-15.1-6.3-19.2l-60.4-70.9c-3.5-4.1-7.5-6.2-11.6-6.2
            h-18c50.3,62.9,71.7,102.7,52.3,153.3H504.2z"/>
    </g>
</svg>