<svg xmlns="http://www.w3.org/2000/svg" xml:space="preserve" id="Capa_1" x="0" y="0" style="enable-background:new 0 0 512 512" version="1.1" viewBox="0 0 512 512"><style>.st0{fill:#e8ad8c}.st1{fill:#e19974}</style><path d="M289.3 369.6h-76.9c-6.4 0-12.5 2.6-16.9 7.3l-53 55.9c-2.9 3.1-6.6 5.3-10.7 6.4l-89.3 24.4c-9.5 2.6-16.7 10.3-18.6 19.9l-3.2 15.7c-1.4 6.7 3.7 12.9 10.6 12.9h348v-58.2l-73.1-77c-4.4-4.7-10.5-7.3-16.9-7.3z" class="st0"/><path d="M306.2 376.8c-4.4-4.6-10.5-7.3-16.9-7.3h-34.6c6.4 0 12.5 2.6 16.9 7.3l73.1 77V512h34.6v-58.2l-73.1-77z" class="st1"/><path d="M198.7 450.3c-2 0-4-.8-5.5-2.3-3-3-3-7.9 0-10.9l10.6-10.5c7.2-7.2 16.8-11.1 26.9-11.1h57.4c4.3 0 7.7 3.5 7.7 7.7s-3.5 7.7-7.7 7.7h-57.4c-6 0-11.7 2.4-16 6.6L204.1 448c-1.5 1.5-3.5 2.3-5.4 2.3z" class="st1"/><path d="M483.5 476.5 428 443.7c-3.2-1.9-6.9-2.9-10.7-2.9h-80c-4 0-7.9 1.4-11 3.9l-35 28.1c-4.4 3.6-7 8.9-7 14.6V512h200.1c4.3 0 7.6-3.7 7.1-7.9l-2.2-18.6c-.4-3.8-2.6-7.1-5.8-9z" class="st0"/><path d="M354.2 427.4h-16.8c-7.1 0-13.9 2.4-19.4 6.8l-29.8 23.9c-2.9 2.3-3.3 6.5-1 9.4 2.3 2.9 6.5 3.3 9.4 1l29.8-23.9c3.1-2.5 7-3.9 11-3.9h29.5l-12.7-13.3z" class="st1"/><path d="M337.4 427.4c-5.1 0-10 1.3-14.4 3.6l9.9 10.4c1.5-.4 3-.6 4.6-.6H367l-3.4-3.6-9.3-9.8h-16.9z" style="fill:#dc8758"/><path d="M484.5 512c4.3 0 7.6-3.7 7.1-7.9l-2.2-18.6c-.4-3.7-2.6-7-5.8-8.9L428 443.7c-3.2-1.9-6.9-2.9-10.7-2.9h-16.6c46.3 29.2 66 47.7 48.1 71.2h35.7z" class="st1"/></svg>