<svg height="512" viewBox="0 0 32 32" width="512" xmlns="http://www.w3.org/2000/svg"><g id="life"><g><path d="m30 8v10l-13 12h-2l-13-12v-10l5-6h6l3 3 3-3h6z" fill="#e57373"/><path d="m30 8v10l-13 12h-2l-4.42-4.08c8.71-3.55 15.24-11.38 16.96-20.87z" fill="#f44336"/></g><g><path d="m25.469 1h-6.883l-2.586 2.586-2.586-2.586h-6.883l-5.531 6.638v10.8l13.609 12.562h2.781l13.61-12.562v-10.8zm3.531 16.563-12.391 11.437h-1.219l-12.39-11.437v-9.2l4.469-5.363h5.117l3.414 3.414 3.414-3.414h5.117l4.469 5.362z"/><path d="m22.826 5.641 3.174 3.807v4.552h2v-5.276l-3.637-4.365z"/></g></g></svg>