<svg height="512" viewBox="0 0 59 56" width="512" xmlns="http://www.w3.org/2000/svg"><g id="Page-1" fill="none" fill-rule="evenodd"><g id="009---Rover" fill-rule="nonzero"><path id="Shape" d="m43 5c-.5522847 0-1-.44771525-1-1v-3c0-.55228475.4477153-1 1-1s1 .44771525 1 1v3c0 .55228475-.4477153 1-1 1z" fill="#7f8c8d"/><path id="Shape" d="m56 5c-.5522847 0-1-.44771525-1-1v-3c0-.55228475.4477153-1 1-1s1 .44771525 1 1v3c0 .55228475-.4477153 1-1 1z" fill="#7f8c8d"/><path id="Shape" d="m55 27v8c-.0032948 1.1032019-.8967981 1.9967052-2 2h-42c-2.209139 0-4-1.790861-4-4v-8h46c1.1032019.0032948 1.9967052.8967981 2 2z" fill="#f29c1f"/><g fill="#95a5a5"><path id="Shape" d="m29 41.29v-6.29c.0032948-1.1032019.8967981-1.9967052 2-2 1.1011688.0081672 1.9918328.8988312 2 2v6.29z"/><path id="Shape" d="m11 41.29v-6.29c.0032948-1.1032019.8967981-1.9967052 2-2 1.1011688.0081672 1.9918328.8988312 2 2v6.29z"/><path id="Shape" d="m47 41.29v-6.29c.0032948-1.1032019.8967981-1.9967052 2-2 1.1011688.0081672 1.9918328.8988312 2 2v6.29z"/><path id="Shape" d="m29 25h-22v-7c.0032948-1.1032019.89679813-1.9967052 2-2h4.45c.3632579.0016235.7192574.1018564 1.03.29z"/></g><path id="Rectangle-path" d="m47 13h4v12h-4z" fill="#7f8c8d"/><rect id="Rectangle-path" fill="#f29c1f" height="10" rx="2" width="18" x="40" y="3"/><circle id="Oval" cx="52" cy="8" fill="#35495e" r="2"/><path id="Shape" d="m7 30.58-6.43-4.02c-.28009751-.1767544-.4765299-.4595538-.5443816-.7837341-.06785169-.3241803-.00132021-.6620186.1843816-.9362659l3.53-5.3c.36616424-.5485576 1.10353185-.7040267 1.66-.35l1.6 1z" fill="#7f8c8d"/><path id="Shape" d="m11 20c0 .5522847-.4477153 1-1 1h-3v-2h3c.5522847 0 1 .4477153 1 1z" fill="#7f8c8d"/><path id="Shape" d="m45 25v5c0 .5522847-.4477153 1-1 1s-1-.4477153-1-1v-5z" fill="#e57e25"/><path id="Shape" d="m41 25v5c0 .5522847-.4477153 1-1 1s-1-.4477153-1-1v-5z" fill="#e57e25"/><path id="Shape" d="m37 25v5c0 .5522847-.4477153 1-1 1s-1-.4477153-1-1v-5z" fill="#e57e25"/><circle id="Oval" cx="13" cy="48" fill="#2c3e50" r="7"/><circle id="Oval" cx="31" cy="48" fill="#2c3e50" r="7"/><circle id="Oval" cx="49" cy="48" fill="#2c3e50" r="7"/><path id="Shape" d="m13 40c-4.418278 0-8 3.581722-8 8s3.581722 8 8 8 8-3.581722 8-8c-.0049599-4.4162219-3.5837781-7.9950401-8-8zm6 8c-.0012821.7132586-.1306698 1.4204878-.382 2.088l-3.618-2.088 3.618-2.088c.2513302.6675122.3807179 1.3747414.382 2.088zm-12 0c.00128211-.7132586.13066982-1.4204878.382-2.088l3.618 2.088-3.618 2.088c-.25133018-.6675122-.38071789-1.3747414-.382-2.088zm10.621-3.823-3.621 2.091v-4.178c1.4179281.2397343 2.7027745.9802685 3.621 2.087zm-5.621-2.087v4.178l-3.621-2.091c.91822552-1.1067315 2.2030719-1.8472657 3.621-2.087zm-3.621 9.733 3.621-2.091v4.178c-1.4179281-.2397343-2.70277448-.9802685-3.621-2.087zm5.621 2.087v-4.178l3.621 2.091c-.9182255 1.1067315-2.2030719 1.8472657-3.621 2.087z" fill="#547580"/><path id="Shape" d="m37.38 43.193-.014-.023c-1.5055466-1.9974705-3.8616886-3.1720376-6.363-3.1720376s-4.8574534 1.1745671-6.363 3.1720376l-.014.023c-2.1599546 2.8407128-2.1599546 6.7732872 0 9.614l.014.023c1.5055466 1.9974705 3.8616886 3.1720376 6.363 3.1720376s4.8574534-1.1745671 6.363-3.1720376l.014-.023c2.1599546-2.8407128 2.1599546-6.7732872 0-9.614zm-.38 4.807c-.0012821.7132586-.1306698 1.4204878-.382 2.088l-3.618-2.088 3.618-2.088c.2513302.6675122.3807179 1.3747414.382 2.088zm-12 0c.0012821-.7132586.1306698-1.4204878.382-2.088l3.618 2.088-3.618 2.088c-.2513302-.6675122-.3807179-1.3747414-.382-2.088zm10.621-3.823-3.621 2.091v-4.178c1.4179281.2397343 2.7027745.9802685 3.621 2.087zm-5.621-2.087v4.178l-3.621-2.091c.9182255-1.1067315 2.2030719-1.8472657 3.621-2.087zm-3.621 9.733 3.621-2.091v4.178c-1.4179281-.2397343-2.7027745-.9802685-3.621-2.087zm5.621 2.087v-4.178l3.621 2.091c-.9182255 1.1067315-2.2030719 1.8472657-3.621 2.087z" fill="#547580"/><path id="Shape" d="m49 40c-4.418278 0-8 3.581722-8 8s3.581722 8 8 8 8-3.581722 8-8c-.0049599-4.4162219-3.5837781-7.9950401-8-8zm6 8c-.0012821.7132586-.1306698 1.4204878-.382 2.088l-3.618-2.088 3.618-2.088c.2513302.6675122.3807179 1.3747414.382 2.088zm-12 0c.0012821-.7132586.1306698-1.4204878.382-2.088l3.618 2.088-3.618 2.088c-.2513302-.6675122-.3807179-1.3747414-.382-2.088zm10.621-3.823-3.621 2.091v-4.178c1.4179281.2397343 2.7027745.9802685 3.621 2.087zm-5.621-2.087v4.178l-3.621-2.091c.9182255-1.1067315 2.2030719-1.8472657 3.621-2.087zm-3.621 9.733 3.621-2.091v4.178c-1.4179281-.2397343-2.7027745-.9802685-3.621-2.087zm5.621 2.087v-4.178l3.621 2.091c-.9182255 1.1067315-2.2030719 1.8472657-3.621 2.087z" fill="#547580"/><path id="Shape" d="m58 56h-54c-.55228475 0-1-.4477153-1-1s.44771525-1 1-1h54c.5522847 0 1 .4477153 1 1s-.4477153 1-1 1z" fill="#e64c3c"/></g></g></svg>