<svg id="Layer_1" enable-background="new 0 0 464 464" height="512" viewBox="0 0 464 464" width="512" xmlns="http://www.w3.org/2000/svg"><path d="m464 162.179v132.77c0 8.15-3.09 15.99-8.65 21.95l-29.26 31.36c-7.44 7.97-10.33 19.17-7.69 29.75l1.77 7.079c2.54 10.171-.02 20.931-6.87 28.851l-18.03 20.85c-10.81 12.511-29.34 14.78-42.86 5.271-10.232-7.204-16.761-13.251-29.39-12.94l-88.14 2.2c-14.76.37-27.87-9.34-31.82-23.57-4.236-15.499-18.188-24.757-32.84-23.979l-78.69 4.189c-15.4.82-29.22-9.409-32.94-24.38l-20.72-83.399c-2.42-9.74-9.24-17.79-18.46-21.78-11.768-5.078-19.41-16.704-19.41-29.533v-73.25c0-11.53 6.16-22.18 16.16-27.91l23.28-13.359c8.34-4.79 14.1-13.05 15.71-22.53l7.63-44.95c2.62-15.47 16.03-26.79 31.72-26.79h60.01c8.15 0 16 3.09 21.96 8.65l62.37 58.22c6.18 5.77 14.38 8.87 22.82 8.64l119.16-3.2c7.54-.2 14.9 2.25 20.82 6.92l50.13 39.62c7.73 6.099 12.23 15.409 12.23 25.25z" fill="#585966"/><path d="m230.644 77.543c6.116 5.585 2.168 15.765-6.114 15.765-15.69 0-29.1 11.319-31.72 26.79l-7.63 44.95c-1.61 9.479-7.37 17.739-15.71 22.529l-23.28 13.36c-10 5.729-16.16 16.38-16.16 27.91v73.25c0 12.817 7.63 24.449 19.41 29.529 9.22 3.99 16.04 12.04 18.46 21.78 3.62 14.57-6.912 28.835-21.903 29.656-11.847.648-29.093 1.562-54.467 2.894-15.401.809-29.22-9.409-32.94-24.38l-20.72-83.399c-2.42-9.74-9.24-17.79-18.46-21.78-11.768-5.074-19.41-16.7-19.41-29.529v-73.25c0-11.53 6.16-22.18 16.16-27.91 14.327-10.122 35.247-13.85 38.99-35.89l7.63-44.95c2.62-15.47 16.03-26.79 31.72-26.79h60.01c8.15 0 16.001 3.089 21.96 8.65 27.657 25.809 43.806 41.347 54.174 50.815z" fill="#6e6f80"/><path d="m104.48 146.588c-14.11 0-25.54 11.44-25.54 25.551 0 14.109 11.43 25.55 25.54 25.55s25.55-11.44 25.55-25.55c0-14.111-11.44-25.551-25.55-25.551zm79.16 99.18c-21.38 0-38.71 17.33-38.71 38.71s17.33 38.71 38.71 38.71 38.71-17.33 38.71-38.71-17.33-38.71-38.71-38.71zm152.66-79.02c-31.42 0-56.9 25.471-56.9 56.9s25.48 56.9 56.9 56.9c31.43 0 56.91-25.471 56.91-56.9s-25.48-56.9-56.91-56.9zm0 0c-31.42 0-56.9 25.471-56.9 56.9s25.48 56.9 56.9 56.9c31.43 0 56.91-25.471 56.91-56.9s-25.48-56.9-56.91-56.9zm-152.66 79.02c-21.38 0-38.71 17.33-38.71 38.71s17.33 38.71 38.71 38.71 38.71-17.33 38.71-38.71-17.33-38.71-38.71-38.71zm-79.16-99.18c-14.11 0-25.54 11.44-25.54 25.551 0 14.109 11.43 25.55 25.54 25.55s25.55-11.44 25.55-25.55c0-14.111-11.44-25.551-25.55-25.551z" fill="#585966"/><path d="m176.47 26.728 37.28 34.8c-7.78 15.68-23.96 26.46-42.65 26.46-36.093 0-58.718-38.561-42.03-69.91h25.44c8.15 0 16 3.09 21.96 8.65z" fill="#585966"/><path d="m336.3 166.748c31.43 0 56.91 25.47 56.91 56.9s-25.48 56.9-56.91 56.9c-31.42 0-56.9-25.47-56.9-56.9s25.48-56.9 56.9-56.9z" fill="#42434d"/><ellipse cx="183.64" cy="284.478" fill="#42434d" rx="38.71" ry="38.71" transform="matrix(.924 -.383 .383 .924 -94.886 91.931)"/><path d="m104.48 146.588c14.11 0 25.55 11.441 25.55 25.551s-11.44 25.55-25.55 25.55-25.54-11.44-25.54-25.55 11.43-25.551 25.54-25.551z" fill="#585966"/></svg>