<svg height="512" viewBox="0 0 128 128" width="512" xmlns="http://www.w3.org/2000/svg"><g><path d="m12.517 99.556 13.651-33.806 9.389-3.949 17.625-33.357 3.888 27.987 7.713 9.927 2.204 33.198z" fill="#f4a86c"/><path d="m86.42 80.977-7.589-9.154-13.566-34.615-12.083-8.764 3.888 27.987 7.713 9.927 2.204 33.198h24.094z" fill="#d38854"/><path d="m98.32 75.217-8.137-8.723-6.551-27.844-5.414 13.181-5.073 5.485 5.686 14.507 7.589 9.154 4.661 18.579h15.773z" fill="#f4a86c"/><g fill="#d38854"><path d="m106.854 70.971-23.222-32.321 6.551 27.844 8.137 8.723 8.534 24.339h8.629z"/><path d="m45.751 62.181a1.753 1.753 0 0 1 -1.639-2.364l1.246-3.333a1.75 1.75 0 0 1 3.279 1.225l-1.247 3.334a1.75 1.75 0 0 1 -1.639 1.138z"/><path d="m31.832 86.82a1.751 1.751 0 0 1 -1.656-2.32l3.575-10.47a1.748 1.748 0 0 1 .913-1.019l5.473-2.57 1.063-2.841a1.75 1.75 0 1 1 3.278 1.225l-1.312 3.51a1.75 1.75 0 0 1 -.9.971l-5.447 2.558-3.335 9.767a1.749 1.749 0 0 1 -1.652 1.189z"/><path d="m55.258 91.932a1.749 1.749 0 0 1 -1.747-1.684l-.4-10.7-2.8-3.77a1.75 1.75 0 0 1 2.809-2.088l3.127 4.205a1.748 1.748 0 0 1 .344.979l.423 11.243a1.75 1.75 0 0 1 -1.683 1.815z"/></g><path d="m81.95 99.56h-3.56l-2.3-11.73a1.747 1.747 0 1 1 3.43-.67z" fill="#f4a86c"/><path d="m121.693 101.306h-115.386a1.75 1.75 0 0 1 0-3.5h115.386a1.75 1.75 0 0 1 0 3.5z" fill="#d38854"/></g></svg>