<?xml version="1.0" encoding="UTF-8"?>
<svg xmlns="http://www.w3.org/2000/svg" xmlns:xlink="http://www.w3.org/1999/xlink" version="1.1" width="512" height="512" x="0" y="0" viewBox="0 0 512 512" style="enable-background:new 0 0 512 512" xml:space="preserve" class="">
  <g>
    <path fill="#b7e6e9" d="M439.896 152.319c-4.229-2.254-6.214-7.219-4.438-11.67 5.026-12.603 4.832-27.217-1.769-40.28-8.663-17.143-26.018-26.992-44.001-26.917-4.105.017-7.69-2.63-8.949-6.537a80.491 80.491 0 0 0-4.772-11.611C358.283 20.311 318.423 3.91 282.1 14.53c-3.319.97-6.872-.039-9.272-2.528C265.691 4.604 255.682 0 244.591 0c-21.677 0-39.251 17.573-39.251 39.251 0 .163.01.323.012.485-25.925 3.497-45.815 26.018-45.123 53.059.698 27.265 22.803 49.689 50.055 50.765 10.266.405 19.894-2.173 28.118-6.914 20.591 30.169 59.317 42.618 93.689 29.947v37.986h94.139c15.03 0 27.808-11.689 28.361-26.709.408-11.053-5.652-20.73-14.695-25.551z" opacity="1" data-original="#efedef" class=""/>
    <path fill="#b7e6e9" d="M439.896 152.319c-4.229-2.255-6.214-7.219-4.438-11.67 5.026-12.603 4.832-27.217-1.769-40.28-8.663-17.143-26.018-26.992-44.001-26.917-4.105.017-7.69-2.63-8.949-6.537a80.491 80.491 0 0 0-4.772-11.611c-15.793-31.254-49.276-47.658-82.129-43.246 95.972 42.299 136.29 142.288 102.279 192.52h30.116c15.03 0 27.808-11.689 28.361-26.709.405-11.052-5.655-20.729-14.698-25.55z" opacity="1" data-original="#efedef" class=""/>
    <path fill="#ceedef" d="m217.21 202.09 13.947 179.201h39.348l13.946-179.201z" opacity="1" data-original="#e5e1e5" class=""/>
    <path fill="#82beeb" d="M289.261 369.554H212.4a23.3 23.3 0 0 0-16.9 7.26l-53.019 55.865a23.22 23.22 0 0 1-10.729 6.415l-89.282 24.35a25.965 25.965 0 0 0-18.611 19.868l-3.206 15.74C19.29 505.741 24.402 512 31.229 512h348.037v-58.156l-73.105-77.03a23.3 23.3 0 0 0-16.9-7.26z" opacity="1" data-original="#e8ad8c" class=""/>
    <path fill="#678ca7" d="M306.161 376.814a23.3 23.3 0 0 0-16.9-7.26h-34.648a23.3 23.3 0 0 1 16.9 7.26l73.105 77.03V512h34.648v-58.156z" opacity="1" data-original="#e19974" class=""/>
    <path fill="#678ca7" d="M198.669 450.277a7.726 7.726 0 0 1-5.452-13.201l10.557-10.515c7.2-7.172 16.763-11.121 26.925-11.121h57.39a7.726 7.726 0 1 1 0 15.452h-57.39a22.558 22.558 0 0 0-16.02 6.617l-10.557 10.515a7.7 7.7 0 0 1-5.453 2.253z" opacity="1" data-original="#e19974" class=""/>
    <path fill="#82beeb" d="m483.517 476.526-55.486-32.824a21 21 0 0 0-10.692-2.926h-79.981a17.58 17.58 0 0 0-11.014 3.878l-35.002 28.132a18.725 18.725 0 0 0-6.994 14.595V512h200.106c4.258 0 7.562-3.716 7.064-7.944l-2.188-18.595a12.012 12.012 0 0 0-5.813-8.935z" opacity="1" data-original="#e8ad8c" class=""/>
    <path fill="#678ca7" d="M354.155 427.385h-16.797a30.976 30.976 0 0 0-19.404 6.831l-29.782 23.937a6.696 6.696 0 0 0 8.39 10.438l29.782-23.937a17.578 17.578 0 0 1 11.014-3.878h29.506z" opacity="1" data-original="#e19974" class=""/>
    <path fill="#295371" d="M337.358 427.385a30.943 30.943 0 0 0-14.439 3.596l9.875 10.405a17.561 17.561 0 0 1 4.564-.609h29.506l-3.434-3.619-9.275-9.773z" opacity="1" data-original="#dc8758" class=""/>
    <path fill="#678ca7" d="M484.454 512c4.258 0 7.562-3.716 7.064-7.944l-2.188-18.595a12.01 12.01 0 0 0-5.814-8.934l-55.486-32.824a21 21 0 0 0-10.692-2.926h-16.644c46.286 29.215 66.029 47.692 48.123 71.223z" opacity="1" data-original="#e19974" class=""/>
    <path fill="#ceedef" d="M346.366 112.113a7.955 7.955 0 0 1-6.069-5.175c-6.993-19.678-25.774-33.769-47.85-33.769-21.2 0-39.353 12.997-46.953 31.455-1.413 3.432-5.673 4.651-8.698 2.499a48.012 48.012 0 0 0-27.869-8.904c-26.564 0-48.099 21.535-48.099 48.099v19.274c0 2.615-1.904 4.806-4.479 5.257-15.565 2.728-27.396 16.306-27.396 32.653 0 18.314 14.847 33.161 33.161 33.161h78.844s22.043-2.203 39.669-4.242c7.06 7.79 17.259 12.683 28.6 12.683 17.928 0 32.992-12.229 37.324-28.799.702-2.686 2.717-4.836 5.375-5.639C372.799 204.363 388 184.983 388 162.053c0-24.92-17.956-45.635-41.634-49.94z" opacity="1" data-original="#e5e1e5" class=""/>
    <g fill="#d7d0d6">
      <path d="M388 162.053c0-24.92-17.956-45.635-41.634-49.94a7.955 7.955 0 0 1-6.069-5.175c-6.993-19.678-25.774-33.769-47.85-33.769-13.542 0-25.835 5.309-34.934 13.951 105.052 21.528 76.271 121.541 42.076 156.759a38.622 38.622 0 0 0 9.638 1.225c17.928 0 32.992-12.229 37.324-28.799.702-2.686 2.717-4.836 5.375-5.639C372.799 204.363 388 184.983 388 162.053zM206.629 193.929a7.728 7.728 0 0 1-7.481-5.82c-4.746-18.623 6.544-37.635 25.166-42.381a34.86 34.86 0 0 1 31.612 7.588 7.726 7.726 0 0 1 .713 10.903 7.726 7.726 0 0 1-10.904.713 19.421 19.421 0 0 0-17.605-4.23c-10.366 2.642-16.651 13.225-14.009 23.592a7.726 7.726 0 0 1-7.492 9.635z" fill="#c2dcdd" opacity="1" data-original="#d7d0d6" class=""/>
    </g>
  </g>
</svg>
