<svg version="1.1" id="Layer_1" xmlns="http://www.w3.org/2000/svg"
  xmlns:xlink="http://www.w3.org/1999/xlink" x="0px" y="0px"
  viewBox="0 0 512 307.4" style="enable-background:new 0 0 512 307.4;" xml:space="preserve">
<g>
	<path fill="#2E597A" d="M292.1,0h-83.5c-6.9,0-13.6,5.7-18.4,15.7l-57.6,120.6c-3.2,6.6-7.2,11.4-11.7,13.8l-97,52.6
		c-10.3,5.6-18.1,22.1-20.2,42.9l-3.5,34c-1.5,14.4,4.1,27.9,11.5,27.9h378.2V181.9L310.5,15.7C305.7,5.7,299,0,292.1,0z"/>
	<path fill="#263846" d="M310.5,15.7C305.7,5.7,299,0,292.1,0h-37.6c6.9,0,13.6,5.7,18.4,15.7l79.4,166.2v125.5h37.6V181.9L310.5,15.7z
		"/>
	<path fill="#263846" d="M193.7,174.2c-4.6,0-8.4-7.5-8.4-16.7c0-4.4,0.9-8.7,2.5-11.8l11.5-22.7c7.8-15.5,18.2-24,29.3-24h62.4
		c4.6,0,8.4,7.5,8.4,16.7c0,9.2-3.8,16.7-8.4,16.7c0,0,0,0,0,0h-62.4c-6.5,0-12.8,5.1-17.4,14.3l-11.5,22.7
		C198,172.5,195.9,174.2,193.7,174.2z"/>
	<path fill="#2E597A" d="M503.2,230.9L442.9,160c-3.5-4.1-7.5-6.3-11.6-6.3h-86.9c-4.4,0-8.6,3-12,8.4l-38,60.7
		c-4.8,7.7-7.6,19.3-7.6,31.5v53.1h217.4c4.6,0,8.2-8,7.7-17.1l-2.4-40.1C509,242.1,506.7,235,503.2,230.9L503.2,230.9z"/>
	<path fill="#263846" d="M362.6,124.8h-18.3c-7.7,0-15.1,5.2-21.1,14.7l-32.4,51.7c-3.1,5-3.6,14.1-1.1,20.3c2.5,6.2,7.1,7.2,10.2,2.2
		l32.4-51.7c3.4-5.4,7.6-8.4,12-8.4h32.1L362.6,124.8z"/>
	<path fill="#0E1F2B" d="M344.3,124.8c-5.5,0-10.9,2.7-15.7,7.8l10.7,22.5c1.6-0.9,3.3-1.3,5-1.3h32.1l-3.7-7.8l-10.1-21.1H344.3z"/>
	<path fill="#263846" d="M504.2,307.4c4.6,0,8.2-8,7.7-17.1l-2.4-40.1c-0.5-8-2.8-15.2-6.3-19.3L442.9,160c-3.5-4.1-7.5-6.3-11.6-6.3
		h-18.1c50.3,63.1,71.7,102.9,52.3,153.7H504.2z"/>
</g>
</svg>