<svg id="圖層_1" height="512" viewBox="0 0 500 500" width="512" xmlns="http://www.w3.org/2000/svg" data-name="圖層 1"><path d="m101.4 386.24s-119.46-76.86-88.9-175.94c0 0 4.63-13.89 23.15-12 0 0 24.08 0 17.6-25.93 0 0-7-20.07-.46-35.36 3.76-8.77 12.79-13.91 22.32-14.42 8.46-.44 23-4.2 26.29-24.3 0 0 1.88-24.49 28.4-34.68 10-3.86 21.21-2.84 31.08 1.42 11.54 5 30 9.05 41.45-8.41 0 0 8.33-23.15 51.86-20.37 0 0 29.63 1.85 35.18 25 0 0 8.34 22.23 33.34 8.34 0 0 41.67-23.15 56.48 13 0 0-.92 30.56 36.12 34.26 0 0 24.81 4.26 31 25.79a28.64 28.64 0 0 1 -.41 15.6c-2.79 10-5.71 31.48 16.62 42 0 0 43.52 21.3 15.74 75.93 0 0-26.85 75.93-73.15 106.49.01-.13-203.71 49.88-303.71 3.58z" fill="#f09b99"/><path d="m117 392.15s-106.7-68.65-79.41-157.15c0 0 4.14-12.41 20.68-10.75 0 0 21.51 0 15.72-23.16 0 0-6.26-17.93-.41-31.59 3.36-7.84 11.42-12.42 19.94-12.87 7.56-.4 20.58-3.76 23.48-21.71 0 0 1.68-21.88 25.37-31 9-3.45 18.94-2.54 27.76 1.27 10.3 4.45 26.81 8.08 37-7.51 0 0 7.45-20.68 46.32-18.2 0 0 26.47 1.66 31.43 22.33 0 0 7.45 19.85 29.78 7.45 0 0 37.22-20.68 50.46 11.58 0 0-.83 27.29 32.25 30.6 0 0 22.17 3.8 27.71 23a25.58 25.58 0 0 1 -.37 13.93c-2.5 8.9-5.1 28.12 14.85 37.47 0 0 38.87 19 14.06 67.83 0 0-24 67.82-65.35 95.12.02.06-181.94 44.72-271.27 3.36z" fill="#f4af9f"/><circle cx="245.02" cy="350.16" fill="#f7f8f8" r="65.94"/><circle cx="233.24" cy="324.45" fill="#fff" r="24.55"/><path d="m22.91 377.57a37.28 37.28 0 0 1 13.09-3.94 35.23 35.23 0 0 1 26.06 8c6.27 5.15 18.65 11.07 39.3 4.58 0 0 25-19.45 54.63 0 0 0 23.15 9.26 44.45-.93 0 0 25.93-14.82 56.48.93 0 0 12 12 31.49-.93 0 0 25-13 48.15-1.85 0 0 12 13 36.11 1.85 0 0 30.56-15.74 63-3.7 0 0 8.33 6.48 22.22 1.85 0 0 16.46-10 28.77-5.16 5.67 2.23 7.54 9.39 4.11 14.41-13.42 19.63-65.41 71.32-240.29 71.32 0 0-183.1-4.09-232.12-63.72a14.91 14.91 0 0 1 4.55-22.71z" fill="#f09b99"/><g fill="#f8c6b5"><path d="m238.2 230.39s-19.9-117.16 1.8-129.83c0 0 33.48-18.55 6.79 130.74.01 0-4.06 6.78-8.59-.91z"/><path d="m284.53 240.32s31-114.74 56-117.15c0 0 38.17-2.82-48.59 121.57.06 0-6.52 4.46-7.41-4.42z"/><path d="m319.26 266.15s60.1-102.53 84.88-98.27c0 0 37.56 7.33-78.88 104.49 0 0-7.48 2.63-6-6.22z"/><path d="m336 315.17s90-77.72 112-65.71c0 0 33.21 19-108.31 73.53.03.01-7.88.01-3.69-7.82z"/><path d="m209.92 240.32s-31-114.74-56-117.15c0 0-38.16-2.82 48.59 121.57-.02 0 6.49 4.46 7.41-4.42z"/><path d="m175.2 266.15s-60.11-102.53-84.88-98.27c0 0-37.57 7.33 78.87 104.49 0 0 7.49 2.63 6.01-6.22z"/><path d="m158.41 315.17s-89.91-77.72-112-65.71c0 0-33.21 19 108.31 73.53.01.01 7.93.01 3.69-7.82z"/></g></svg>