<?xml version="1.0" encoding="utf-8"?>
<svg viewBox="690.0057 -56.937 512.0013 512.018" xmlns="http://www.w3.org/2000/svg">
  <path style="fill:#CFD8DC;" d="M 868.226 319.53 L 825.559 276.863 C 823.377 274.627 820.309 273.485 817.196 273.748 C 814.104 273.971 811.261 275.528 809.409 278.015 L 692.14 438.015 C 688.605 442.728 689.56 449.414 694.273 452.948 C 698.066 455.792 703.28 455.792 707.073 452.948 L 867.073 335.615 C 871.825 332.134 872.856 325.459 869.375 320.707 C 869.052 320.267 868.697 319.852 868.311 319.466 L 868.226 319.53 Z" transform="matrix(0.9999999999999999, 0, 0, 0.9999999999999999, 0, 5.684341886080802e-14)"/>
  <path style="fill: rgb(49, 191, 106);" d="M 1006.892 244.863 L 900.226 138.197 C 882.281 124.226 859.923 117.149 837.207 118.25 C 807.471 117.21 778.581 128.253 757.122 148.863 C 739.799 166.186 741.591 192.959 762.455 228.458 C 782.159 259.354 805.43 287.823 831.788 313.279 C 874.22 355.69 927.788 399.764 966.828 399.764 C 977.831 400.043 988.46 395.766 996.204 387.945 C 1040.62 343.551 1029.548 267.541 1006.892 244.863 Z" transform="matrix(0.9999999999999999, 0, 0, 0.9999999999999999, 0, 5.684341886080802e-14)"/>
  <path style="fill: rgb(52, 236, 138);" d="M 1092.226 159.53 L 985.559 52.863 C 981.394 48.699 974.642 48.699 970.476 52.863 L 885.143 138.196 C 871.191 152.148 872.343 182.996 917.143 227.945 C 946.391 257.193 969.708 267.838 986.263 267.838 C 993.925 268.109 1001.368 265.261 1006.892 259.945 L 1092.225 174.612 C 1096.39 170.447 1096.39 163.695 1092.226 159.53 Z" transform="matrix(0.9999999999999999, 0, 0, 0.9999999999999999, 0, 5.684341886080802e-14)"/>
  <path style="fill: rgb(49, 191, 106);" d="M 1201.196 131.007 C 1199.547 127.018 1195.656 124.416 1191.34 124.415 C 1168.215 124.415 1117.441 99.412 1081.559 63.53 C 1045.677 27.648 1020.674 -23.105 1020.674 -46.251 C 1020.684 -52.142 1015.917 -56.926 1010.026 -56.937 C 1007.186 -56.942 1004.461 -55.814 1002.455 -53.803 C 958.892 -10.219 945.282 64.106 1013.122 131.946 C 1038.931 160.627 1075.259 177.629 1113.815 179.071 C 1145.885 178.703 1176.49 165.585 1198.871 142.612 C 1201.918 139.569 1202.835 134.991 1201.196 131.007 Z" transform="matrix(0.9999999999999999, 0, 0, 0.9999999999999999, 0, 5.684341886080802e-14)"/>
  <path style="fill: rgb(52, 236, 138);" d="M 1134.892 10.197 C 1089.708 -34.966 1048.855 -56.918 1010.007 -56.918 C 1004.116 -56.918 999.34 -52.142 999.34 -46.251 C 999.34 -14.4 1029.463 41.621 1066.455 78.634 C 1103.447 115.647 1159.511 145.749 1191.34 145.749 C 1197.231 145.749 1202.007 140.973 1202.007 135.082 C 1202.007 96.213 1180.055 55.359 1134.892 10.197 Z" transform="matrix(0.9999999999999999, 0, 0, 0.9999999999999999, 0, 5.684341886080802e-14)"/>
</svg>