<svg width="360" height="620" viewBox="0 0 360 620" fill="none" xmlns="http://www.w3.org/2000/svg">
<g clip-path="url(#clip0_37_1280)">
<path d="M172 620C343.208 620 482 481.208 482 310C482 138.792 343.208 0 172 0C0.791718 0 -138 138.792 -138 310C-138 481.208 0.791718 620 172 620Z" fill="#6487FF"/>
<path d="M452.127 442.857H189.716C179.076 429.959 150.385 420.714 116.643 420.714C73.8414 420.714 39.1432 435.584 39.1432 453.928C39.1432 472.273 73.8414 487.143 116.643 487.143C150.385 487.143 179.076 477.899 189.716 465H440.425C444.598 457.786 448.532 450.422 452.127 442.857Z" fill="#4B6EDC"/>
<path d="M293.785 531.428C140.921 531.428 17 407.507 17 254.643C17 140.604 85.9835 42.7061 184.484 0.316055C180.337 0.151367 176.186 0 172 0C0.791608 0 -138 138.792 -138 310C-138 481.207 0.791608 620 172 620C269.644 620 356.693 574.811 413.517 504.256C377.282 521.668 336.674 531.428 293.785 531.428Z" fill="#4B6EDC"/>
<path d="M194.143 310H149.858C143.738 310 138.786 305.043 138.786 298.929C138.786 292.815 143.738 287.857 149.858 287.857H194.143C200.263 287.857 205.215 292.815 205.215 298.929C205.215 305.043 200.262 310 194.143 310Z" fill="#4B6EDC"/>
<path d="M-5.14323 465H-27.2852C-33.4053 465 -38.3568 460.042 -38.3568 453.928C-38.3568 447.814 -33.4053 442.857 -27.2852 442.857H-5.14202C0.978063 442.857 5.92959 447.814 5.92959 453.928C5.92838 460.042 0.976853 465 -5.14323 465Z" fill="#6487FF"/>
<path d="M76.2172 425.63C54.0074 431.47 39.1432 441.943 39.1432 453.928C39.1432 472.273 73.8414 487.143 116.643 487.143C125.172 487.143 133.355 486.53 141.03 485.439C116.353 469.072 94.4842 448.842 76.2172 425.63Z" fill="#4155D2"/>
<path d="M-128.233 232.5H472.234C456.544 171.539 422.727 117.893 376.938 77.5H-32.9366C-78.7246 117.893 -112.542 171.539 -128.233 232.5Z" fill="#4B6EDC"/>
<path d="M17.9082 232.5C22.5655 173.709 45.6956 120.202 81.3589 77.5H-32.9366C-78.7246 117.893 -112.542 171.539 -128.233 232.5H17.9082Z" fill="#3C55C3"/>
<path d="M72.3568 310H-71.5716C-77.6917 310 -82.6432 305.043 -82.6432 298.929C-82.6432 292.815 -77.6917 287.857 -71.5716 287.857H72.3568C78.4769 287.857 83.4284 292.815 83.4284 298.929C83.4284 305.043 78.4769 310 72.3568 310Z" fill="#4B6EDC"/>
<path d="M19.0538 287.857H-71.5716C-77.6917 287.857 -82.6432 292.814 -82.6432 298.928C-82.6432 305.042 -77.6917 310 -71.5716 310H22.5485C21.07 302.726 19.9474 295.326 19.0538 287.857Z" fill="#6487FF"/>
<path d="M338.072 155H271.643C265.523 155 260.572 150.042 260.572 143.928C260.572 137.814 265.523 132.857 271.643 132.857H338.072C344.192 132.857 349.143 137.814 349.143 143.928C349.143 150.042 344.192 155 338.072 155Z" fill="#6487FF"/>
<path d="M227.357 155H194.142C188.022 155 183.07 150.042 183.07 143.928C183.07 137.814 188.022 132.857 194.142 132.857H227.357C233.477 132.857 238.428 137.814 238.428 143.928C238.428 150.042 233.477 155 227.357 155Z" fill="#6487FF"/>
</g>
<defs>
<clipPath id="clip0_37_1280">
<rect width="620" height="620" fill="white" transform="translate(-138)"/>
</clipPath>
</defs>
</svg>
