<svg width="360" height="620" viewBox="0 0 360 620" fill="none" xmlns="http://www.w3.org/2000/svg">
<g clip-path="url(#clip0_37_1231)">
<path d="M172 620C343.208 620 482 481.208 482 310C482 138.792 343.208 0 172 0C0.791718 0 -138 138.792 -138 310C-138 481.208 0.791718 620 172 620Z" fill="#FF965F"/>
<path d="M293.785 531.428C140.921 531.428 17 407.507 17 254.643C17 140.604 85.9835 42.7061 184.484 0.316055C180.337 0.151367 176.186 0 172 0C0.791608 0 -138 138.792 -138 310C-138 481.207 0.791608 620 172 620C269.644 620 356.693 574.811 413.517 504.256C377.282 521.668 336.674 531.428 293.785 531.428Z" fill="#FF7846"/>
<path d="M229.259 5.36566C210.692 1.89754 191.572 0 172 0C57.1426 0 -43.0504 62.5134 -96.6113 155.326C-26.3648 158.548 23.0378 202.686 49.2667 257.094C51.2344 261.176 54.9205 264.143 59.3719 264.993L86.4364 270.167C92.7999 271.384 98.8267 266.618 98.9236 260.138C99.3414 232.145 108.425 166.59 183.992 163.303C211.603 162.103 233.833 156.216 250.156 149.935C255.409 147.912 253.902 140.285 248.271 140.287C175.859 140.32 143.332 35.805 229.259 5.36566Z" fill="#FF7846"/>
<path d="M-96.6113 155.326C-46.992 157.601 -7.82903 180.339 20.1703 212.643C34.7403 116.958 98.3169 37.3974 184.484 0.316055C180.337 0.151367 176.186 0 172 0C57.1426 0 -43.0504 62.5134 -96.6113 155.326Z" fill="#DC5F3C"/>
<path d="M464.389 206.958C430.76 183.772 388.197 176.694 401.732 222.812C431.091 322.852 401.499 391.278 387.469 416.01C384.124 421.91 376.748 424.12 370.652 421.143C335.765 404.107 223.254 351.09 202.447 365.357C159.033 395.126 146.191 421.283 145.241 441.086C144.808 450.082 132.11 451.818 129.366 443.241C118.129 408.111 130.623 361.429 138.646 337.701C140.958 330.866 135.157 324.06 128.05 325.303L92.4971 331.524C90.2205 331.923 88.1958 333.206 86.7742 335.029C29.1009 408.909 -83.4993 391.029 -135.897 345.655C-117.697 504.47 20.4391 626.826 185.708 619.703C339.464 613.078 467.004 491.539 480.732 338.254C484.883 291.916 478.687 247.527 464.389 206.958Z" fill="#FF7846"/>
<path d="M293.785 531.428C182.354 531.428 86.3674 465.546 42.4842 370.639C-17.083 399.623 -94.887 381.168 -135.898 345.655C-118.202 500.059 12.8574 620 172 620C267.628 620 353.114 576.675 409.977 508.612C411.14 507.176 412.364 505.684 413.503 504.271C413.506 504.267 413.511 504.261 413.511 504.261C377.281 521.668 336.674 531.428 293.785 531.428Z" fill="#DC5F3C"/>
<path d="M166.465 243.572C175.637 243.572 183.072 236.136 183.072 226.965C183.072 217.793 175.637 210.358 166.465 210.358C157.293 210.358 149.858 217.793 149.858 226.965C149.858 236.136 157.293 243.572 166.465 243.572Z" fill="#FF7846"/>
<path d="M349.143 166.072C361.373 166.072 371.286 156.158 371.286 143.928C371.286 131.699 361.373 121.785 349.143 121.785C336.914 121.785 327 131.699 327 143.928C327 156.158 336.914 166.072 349.143 166.072Z" fill="#FF7846"/>
<path d="M270.057 15.9238C243.994 28.4619 225.744 59.187 250.291 77.9844C271.59 94.2957 333.382 74.2511 381.915 81.9381C350.068 52.6128 312.058 29.9235 270.057 15.9238Z" fill="#FF7846"/>
</g>
<defs>
<clipPath id="clip0_37_1231">
<rect width="620" height="620" fill="white" transform="translate(-138)"/>
</clipPath>
</defs>
</svg>
