<svg width="360" height="620" viewBox="0 0 360 620" fill="none" xmlns="http://www.w3.org/2000/svg">
<g clip-path="url(#clip0_37_1223)">
<path d="M172 0C165.365 0 158.779 0.208281 152.247 0.618789L-105.846 172.361C-126.428 213.831 -138 260.565 -138 310C-138 400.67 -99.0744 482.249 -37.0211 538.935C-37.0211 538.935 64.0074 608.426 172 608.426C316.495 608.426 466.805 481.208 466.805 310C466.805 107 273.661 17.0536 273.661 17.0536C241.814 6.00383 207.608 0 172 0Z" fill="#008CDF"/>
<path d="M478.963 266.452L403.81 257.874C403.81 429.082 265.018 567.874 93.8098 567.874C47.0518 567.874 2.73395 557.473 -37.0223 538.935C-12.9537 560.923 14.5951 579.166 44.7014 592.742L62.9551 591.725L86.1022 607.942C113.379 615.791 142.198 620 172 620C343.208 620 482 481.208 482 310C482 295.218 480.965 280.68 478.963 266.452Z" fill="#0069D0"/>
<path d="M303.159 29.025C293.584 24.5494 283.74 20.5485 273.661 17.0537L246.244 41.1659C238.735 47.5863 236.939 58.6615 242.462 67.2398C247.772 75.4863 258.507 78.3635 267.542 74.5478L273.09 72.2034C279.904 69.3262 287.887 70.3677 293.411 75.2877C303.174 83.9846 301.472 99.3551 290.518 105.837L226.134 143.935C213.558 151.376 205.571 164.903 205.832 179.513C206.104 194.689 214.607 207.049 231.696 208.623C267.057 211.88 261.967 174.414 282.737 174.414H353.971C364.814 174.414 374.217 182.521 375.157 193.324C376.227 205.632 366.553 215.953 354.468 215.953H269.048C235.824 215.953 206.851 241.555 205.853 274.765C204.822 309.129 232.371 337.31 266.504 337.31H275.191C291.759 337.31 305.191 350.742 305.191 367.31V473.92C305.191 477.084 305.747 480.205 306.792 483.117L331.88 482.577L409.994 355.543L420.034 282.739L445.5 245.868C445.501 245.869 396.273 72.5498 303.159 29.025Z" fill="#98DB7C"/>
<path d="M478.963 266.452C464.162 161.058 396.137 72.5896 303.159 29.0261C364.948 85.6956 403.81 167.424 403.81 257.874C403.81 346.645 366.592 426.604 306.793 483.117C310.459 493.59 320.853 500.862 332.934 499.136C340.639 498.036 347.18 492.853 351.019 486.082L425.006 355.621C431.556 344.072 433.243 330.392 429.696 317.597L423.96 296.906C422.074 290.107 427.635 283.546 434.651 284.291L438.732 284.723C449.714 285.888 460.685 282.421 469.004 275.158L478.963 266.452Z" fill="#77CC7D"/>
<path d="M169.106 27.4073L152.247 0.618896C38.8599 7.73194 -57.9134 75.7297 -105.846 172.361L-86.3111 307.313C-84.1193 322.461 -75.1099 335.77 -61.8611 343.434C-54.2394 347.842 -50.9045 357.102 -53.9645 365.357L-60.6344 383.35C-66.6358 399.54 -61.5704 417.753 -48.0733 428.521L-30.2617 442.731C-24.1694 447.592 -19.2966 453.81 -16.0343 460.889L30.2489 561.324L57.3013 580.415L76.4038 567.39L69.476 538.439C65.5683 522.107 67.662 504.915 75.3745 489.999L105.415 431.902C113.69 415.899 106.095 396.265 89.2046 389.997L64.5245 380.838C56.6849 377.929 51.4839 370.449 51.4839 362.089V360.162C51.4839 349.116 42.529 340.162 31.484 340.162H-11.4207C-21.9352 340.162 -32.2633 337.4 -41.3744 332.151L-51.8406 326.121C-59.7904 321.54 -65.1984 313.565 -66.5111 304.484L-67.1795 299.859C-68.8627 288.221 -63.5903 276.674 -53.6957 270.32L-47.5454 266.371C-40.0945 261.588 -30.3852 262.272 -23.679 268.053L-18.1971 272.78C-11.5224 278.534 -1.12165 275.124 0.849757 266.533L6.69616 241.059C9.8119 227.487 19.761 216.511 32.965 212.082L76.1132 197.612C88.4357 193.479 93.6051 178.876 86.6277 167.912L67.013 137.09C61.6231 128.621 50.79 125.459 41.6898 129.7L25.4911 137.25C17.1126 141.157 6.67316 139.482 1.01808 132.169C-6.27782 122.736 -3.34615 109.183 6.94682 103.533L47.6573 81.1814C61.1617 73.7668 78.087 77.7859 86.8154 90.4801L90.5984 95.9814C96.1917 104.123 105.437 108.984 115.315 108.984H133.634C145.778 108.984 156.724 101.663 161.361 90.4402L172.263 64.0526C177.222 52.0486 176.045 38.3856 169.106 27.4073Z" fill="#98DB7C"/>
<path d="M44.7014 592.742C58.0314 598.756 71.847 603.838 86.101 607.941L76.4014 567.39C60.6446 566.513 45.2863 564.474 30.2477 561.324L44.7014 592.742Z" fill="#77CC7D"/>
</g>
<defs>
<clipPath id="clip0_37_1223">
<rect width="620" height="620" fill="white" transform="translate(-138)"/>
</clipPath>
</defs>
</svg>
