<?xml version="1.0" encoding="utf-8"?>
<svg viewBox="602.1407 13.306 512.0013 512.018" xmlns="http://www.w3.org/2000/svg">
  <path style="fill:#CFD8DC;" d="M 780.361 389.773 L 737.694 347.106 C 735.512 344.87 732.444 343.728 729.331 343.991 C 726.239 344.214 723.396 345.771 721.544 348.258 L 604.275 508.258 C 600.74 512.971 601.695 519.657 606.408 523.191 C 610.201 526.035 615.415 526.035 619.208 523.191 L 779.208 405.858 C 783.96 402.377 784.991 395.702 781.51 390.95 C 781.187 390.51 780.832 390.095 780.446 389.709 L 780.361 389.773 Z"/>
  <path style="fill: rgb(211, 180, 47);" d="M 919.027 315.106 L 812.361 208.44 C 794.416 194.469 772.058 187.392 749.342 188.493 C 719.606 187.453 690.716 198.496 669.257 219.106 C 651.934 236.429 653.726 263.202 674.59 298.701 C 694.294 329.597 717.565 358.066 743.923 383.522 C 786.355 425.933 839.923 470.007 878.963 470.007 C 889.966 470.286 900.595 466.009 908.339 458.188 C 952.755 413.794 941.683 337.784 919.027 315.106 Z"/>
  <path style="fill: rgb(244, 222, 54);" d="M 1004.361 229.773 L 897.694 123.106 C 893.529 118.942 886.777 118.942 882.611 123.106 L 797.278 208.439 C 783.326 222.391 784.478 253.239 829.278 298.188 C 858.526 327.436 881.843 338.081 898.398 338.081 C 906.06 338.352 913.503 335.504 919.027 330.188 L 1004.36 244.855 C 1008.525 240.69 1008.525 233.938 1004.361 229.773 Z"/>
  <path style="fill: rgb(211, 180, 47);" d="M 1113.331 201.25 C 1111.682 197.261 1107.791 194.659 1103.475 194.658 C 1080.35 194.658 1029.576 169.655 993.694 133.773 C 957.812 97.891 932.809 47.138 932.809 23.992 C 932.819 18.101 928.052 13.317 922.161 13.306 C 919.321 13.301 916.596 14.429 914.59 16.44 C 871.027 60.024 857.417 134.349 925.257 202.189 C 951.066 230.87 987.394 247.872 1025.95 249.314 C 1058.02 248.946 1088.625 235.828 1111.006 212.855 C 1114.053 209.812 1114.97 205.234 1113.331 201.25 Z"/>
  <path style="fill: rgb(244, 222, 54);" d="M 1047.027 80.44 C 1001.843 35.277 960.99 13.325 922.142 13.325 C 916.251 13.325 911.475 18.101 911.475 23.992 C 911.475 55.843 941.598 111.864 978.59 148.877 C 1015.582 185.89 1071.646 215.992 1103.475 215.992 C 1109.366 215.992 1114.142 211.216 1114.142 205.325 C 1114.142 166.456 1092.19 125.602 1047.027 80.44 Z"/>
</svg>