<svg width="360" height="633" viewBox="0 0 360 633" fill="none" xmlns="http://www.w3.org/2000/svg">
<g clip-path="url(#clip0_37_1260)">
<path d="M174.898 50.562V56.5496L211.648 72.2583L218.973 69.1688C260.2 48.5468 294.111 40.3462 315.217 47.5874L358.598 4.76966C316.408 -9.30594 249.985 8.30432 174.898 50.562Z" fill="#FFE02F"/>
<path d="M218.972 69.1689C260.199 48.5469 294.11 40.3464 315.215 47.5875L339.644 23.4767C316.363 6.82704 279.298 7.07678 234.426 21.501C215.449 29.2392 195.502 38.9666 174.897 50.5621V56.5497L211.647 72.2585L218.972 69.1689Z" fill="#FBC700"/>
<path d="M323.159 170.924L192.542 76.0799L187.312 54.9226C183.202 53.3723 179.064 51.9122 174.898 50.5621C174.908 50.5559 174.918 50.551 174.928 50.5448C162.128 46.3969 149.369 43.2183 136.704 40.9348V40.9558L89.1739 54.9226L-168.484 242.292L-190.726 295.15L-190.743 295.16C-192.462 318.186 -191.266 341.916 -186.819 365.975L-186.801 365.968L-172.996 370.718L-78.7455 515.489L-83.0677 537.264C-79.2252 540.257 -75.3258 543.16 -71.351 545.935L-32.8938 548.001L54.7149 484.549L189.842 363.422L325.427 177.125L323.159 170.924Z" fill="#FF9838"/>
<path d="M-186.801 365.968L-172.996 370.718L-78.7455 515.489L-83.0677 537.264C-79.2252 540.257 -75.3258 543.16 -71.351 545.935L-32.8938 548.001L28.7978 503.32C-50.4002 448.385 -102.275 356.83 -102.275 253.146C-102.275 231.223 -99.9362 209.851 -95.5311 189.242L-168.484 242.294L-190.726 295.152L-190.743 295.162C-192.462 318.189 -191.266 341.919 -186.819 365.978L-186.801 365.968Z" fill="#FF8706"/>
<path d="M264.06 477.498L353.446 380.27L365.398 358.489L365.399 358.491C371.623 317.616 368.706 274.072 354.443 230.062L339.965 232.207L216.739 392.257L99.8297 494.937L264.06 477.498Z" fill="#FF9838"/>
<path d="M101.19 100.583C117.898 83.875 130.079 63.3297 136.703 40.9559C-29.202 11.0355 -178.864 136.381 -190.726 295.15L-149.937 254.361C-125.867 230.291 -93.9757 215.727 -60.3476 213.447C-26.7195 211.166 5.1716 196.602 29.2417 172.532L101.19 100.583Z" fill="#FFAA5B"/>
<path d="M317.934 156.648C312.342 148.64 306.278 140.906 299.816 133.457L288.702 130.634L243.063 88.3912L240.928 82.06C233.856 77.451 226.541 73.1411 218.997 69.1565C218.988 69.1602 218.98 69.1639 218.972 69.1688C208.666 63.7265 198.088 58.9864 187.312 54.9226L186.069 62.3838C180.853 93.6778 165.989 122.558 143.556 144.992L64.5153 224.034C38.0727 250.476 2.82127 266.261 -34.5158 268.373C-71.8517 270.488 -107.103 286.271 -133.547 312.713L-186.801 365.967C-184.534 378.219 -181.465 390.552 -177.454 402.927C-177.449 402.916 -177.443 402.907 -177.438 402.896C-174.83 410.941 -171.838 418.886 -168.486 426.714H-162.648L-123.96 485.981L-123.802 498.392C-111.446 512.786 -97.7676 525.812 -83.0689 537.26L15.0065 439.185C29.0636 425.127 39.1644 407.61 44.2865 388.401L52.2892 358.392C57.4126 339.183 67.5109 321.665 81.568 307.608L139.035 250.141C152.785 236.391 169.852 226.422 188.583 221.199L300.297 190.047L310.672 186.99L321.293 165.829L317.934 156.648Z" fill="#FFAA5B"/>
<path d="M240.928 82.0601L229.439 116.639C224.065 132.813 238.622 148.565 255.169 144.48L299.816 133.457C282.906 113.965 263.134 96.5325 240.928 82.0601Z" fill="#FFBA7E"/>
<path d="M278.796 445.093C258.97 464.919 232.374 476.502 204.355 477.516L145.05 479.659L122.278 483.649L2.06213 572.804V582.445C175.198 638.559 340.932 519.172 365.398 358.491L278.796 445.093Z" fill="#FFAA5B"/>
<path d="M202.001 557.418C153.115 557.418 106.932 545.871 66.0025 525.384L2.06458 572.803V582.444C85.8332 609.594 167.869 595.657 233.009 555.84C222.811 556.873 212.47 557.418 202.001 557.418Z" fill="#FF9838"/>
<path d="M350.651 2.55664L307.001 45.6377C315.632 46.9074 322.717 50.0947 327.987 55.3639C368.059 95.4358 288.475 239.989 150.231 378.232C11.9886 516.475 -132.565 596.058 -172.637 555.987C-179.046 549.577 -182.381 540.486 -182.917 529.183L-226.655 572.353C-224.088 588.668 -217.822 602.282 -207.557 612.547C-145.873 674.231 36.6781 591.688 200.183 428.184C363.687 264.679 446.232 82.1255 384.547 20.4414C375.634 11.5287 364.19 5.63633 350.651 2.55664Z" fill="#FFE02F"/>
<path d="M346.622 29.3467C342.736 25.4597 338.301 22.228 333.397 19.5859L307.002 45.6378C315.633 46.9076 322.719 50.0948 327.988 55.364C368.06 95.4359 288.476 239.989 150.232 378.232C11.9887 516.475 -132.565 596.059 -172.637 555.987C-179.046 549.578 -182.381 540.486 -182.917 529.183L-210.793 556.696C-207.823 563.539 -203.821 569.574 -198.714 574.681C-142.366 631.029 25.3892 554.63 175.98 404.039C326.571 253.451 402.97 85.6949 346.622 29.3467Z" fill="#FBC700"/>
</g>
<defs>
<clipPath id="clip0_37_1260">
<rect width="633" height="633" fill="white" transform="translate(-228)"/>
</clipPath>
</defs>
</svg>
