<?xml version="1.0" encoding="UTF-8"?>
<svg xmlns="http://www.w3.org/2000/svg" xmlns:xlink="http://www.w3.org/1999/xlink" width="512" height="512" viewBox="0 0 56 41" version="1.1"><!-- Generator: Sketch 51.3 (57544) - http://www.bohemiancoding.com/sketch --><title>022 - Racing Flags</title><desc>Created with Sketch.</desc><defs/><g id="Page-1" stroke="none" stroke-width="1" fill="none" fill-rule="evenodd"><g id="022---Racing-Flags" fill-rule="nonzero"><path d="M55.92,14.09 L54.24,18.14 C53.48,19.98 52.71,21.83 51.95,23.68 L49.88,28.68 C49.7436267,29.0191891 49.4330314,29.2569287 49.07,29.3 C47.1768592,29.4609752 45.2824631,29.0049169 43.67,28 C41.910151,26.8507513 40.286426,25.505475 38.83,23.99 C37.3792176,22.4724119 35.7585484,21.1268874 34,19.98 C32.8715556,19.2877159 31.6052551,18.8508251 30.29,18.7 L29.16,15.97 L30.31,13.21 C31.07,11.36 31.84,9.51 32.6,7.67 C33.36,5.83 34.14,3.97 34.9,2.12 C36.9797226,1.79167534 39.1079486,2.22869003 40.89,3.35 C42.6466546,4.49945351 44.2670436,5.84474542 45.72,7.36 C47.176426,8.87547497 48.800151,10.2207513 50.56,11.37 C51.9124818,12.2031203 53.4619635,12.6620982 55.05,12.7 C55.3763178,12.7164274 55.6740312,12.8912329 55.8473774,13.1681883 C56.0207235,13.4451436 56.0478383,13.7893166 55.92,14.09 Z" id="Shape" fill="#BDC3C7"/><path d="M38.59,8.89 C37.83,10.74 37.0633333,12.59 36.29,14.44 C34.5116577,13.3186932 32.3865292,12.8815849 30.31,13.21 C31.07,11.36 31.84,9.51 32.6,7.67 C34.6785069,7.33871487 36.8066408,7.77215783 38.59,8.89 Z" id="Shape" fill="#2C2F38"/><path d="M45.72,7.36 C44.96,9.21 44.19,11.05 43.42,12.9 C41.9692176,11.3824119 40.3485484,10.0368874 38.59,8.89 C39.36,7.05 40.12,5.2 40.89,3.35 C42.6466546,4.49945351 44.2670436,5.84474542 45.72,7.36 Z" id="Shape" fill="#2C2F38"/><path d="M41.13,18.44 C40.36,20.29 39.6,22.14 38.83,23.99 C37.3792176,22.4724119 35.7585484,21.1268874 34,19.98 C34.76,18.13 35.53,16.28 36.29,14.44 C38.0519548,15.5825438 39.6760496,16.9247709 41.13,18.44 Z" id="Shape" fill="#2C2F38"/><path d="M48.26,16.91 C47.49,18.76 46.73,20.6 45.96,22.45 C44.2010552,21.3036502 42.5803269,19.9580766 41.13,18.44 C41.89,16.6 42.66,14.75 43.42,12.9 C44.876426,14.415475 46.500151,15.7607513 48.26,16.91 Z" id="Shape" fill="#2C2F38"/><path d="M55.92,14.09 L54.24,18.14 C52.1634943,18.4673975 50.0387223,18.0303625 48.26,16.91 L50.56,11.37 C51.9124818,12.2031203 53.4619635,12.6620982 55.05,12.7 C55.3763178,12.7164274 55.6740312,12.8912329 55.8473774,13.1681883 C56.0207235,13.4451436 56.0478383,13.7893166 55.92,14.09 Z" id="Shape" fill="#2C2F38"/><path d="M51.95,23.68 L49.88,28.68 C49.7436267,29.0191891 49.4330314,29.2569287 49.07,29.3 C47.1768592,29.4609752 45.2824631,29.0049169 43.67,28 L45.96,22.45 C47.7420514,23.57131 49.8702774,24.0083247 51.95,23.68 Z" id="Shape" fill="#2C2F38"/><path d="M35.79,2 C35.7909514,2.26501643 35.7364507,2.52730089 35.63,2.77 C34.96,4.4 34.28,6.04 33.6,7.67 C32.84,9.51 32.07,11.36 31.31,13.21 L30.16,15.97 L28,21.2 L20.33,39.72 C19.9075022,40.7417268 18.7367268,41.2274978 17.715,40.805 C16.6932732,40.3825022 16.2075022,39.2117268 16.63,38.19 L24.71,18.7 L24.71,18.69 L25.84,15.98 L25.84,15.97 L28,10.75 L31.94,1.24 C32.3029696,0.356378993 33.2401501,-0.147202983 34.1773306,0.0377988886 C35.1145111,0.22280076 35.7900314,1.04473405 35.79,2 Z" id="Shape" fill="#2C3E50"/><path d="M27.99,18.75 C25.9102774,18.4216753 23.7820514,18.85869 22,19.98 C20.2414516,21.1268874 18.6207824,22.4724119 17.17,23.99 C15.713574,25.505475 14.089849,26.8507513 12.33,28 C10.7175369,29.0049169 8.8231408,29.4609752 6.93,29.3 C6.56696859,29.2569287 6.25637333,29.0191891 6.12,28.68 L4.05,23.68 C3.29,21.83 2.52,19.98 1.76,18.14 L0.08,14.09 C-0.0478383314,13.7893166 -0.0207235256,13.4451436 0.152622634,13.1681883 C0.325968794,12.8912329 0.623682208,12.7164274 0.95,12.7 C2.53803648,12.6620982 4.08751821,12.2031203 5.44,11.37 C7.19984899,10.2207513 8.82357398,8.87547497 10.28,7.36 C11.7329564,5.84474542 13.3533454,4.49945351 15.11,3.35 C16.8920514,2.22869003 19.0202774,1.79167534 21.1,2.12 C21.86,3.97 22.6266667,5.82 23.4,7.67 C24.16,9.51 24.93,11.36 25.69,13.21 C26.45,15.06 27.22,16.9 27.99,18.75 Z" id="Shape" fill="#E6E7E8"/><path d="M25.69,13.21 C23.6134708,12.8815849 21.4883423,13.3186932 19.71,14.44 C18.94,12.59 18.1733333,10.74 17.41,8.89 C19.1933592,7.77215783 21.3214931,7.33871487 23.4,7.67 C24.16,9.51 24.93,11.36 25.69,13.21 Z" id="Shape" fill="#2C2F38"/><path d="M17.41,8.89 C15.6514516,10.0368874 14.0307824,11.3824119 12.58,12.9 C11.81,11.05 11.04,9.21 10.28,7.36 C11.7329564,5.84474542 13.3533454,4.49945351 15.11,3.35 C15.88,5.2 16.64,7.05 17.41,8.89 Z" id="Shape" fill="#2C2F38"/><path d="M22,19.98 C20.2414516,21.1268874 18.6207824,22.4724119 17.17,23.99 C16.4,22.14 15.64,20.29 14.87,18.44 C16.3239504,16.9247709 17.9480452,15.5825438 19.71,14.44 C20.47,16.28 21.24,18.13 22,19.98 Z" id="Shape" fill="#2C2F38"/><path d="M14.87,18.44 C13.4196731,19.9580766 11.7989448,21.3036502 10.04,22.45 C9.27,20.6 8.51,18.76 7.74,16.91 C9.49984899,15.7607513 11.123574,14.415475 12.58,12.9 C13.34,14.75 14.11,16.6 14.87,18.44 Z" id="Shape" fill="#2C2F38"/><path d="M7.74,16.91 C5.96127772,18.0303625 3.83650569,18.4673975 1.76,18.14 L0.08,14.09 C-0.0478383314,13.7893166 -0.0207235256,13.4451436 0.152622634,13.1681883 C0.325968794,12.8912329 0.623682208,12.7164274 0.95,12.7 C2.53803648,12.6620982 4.08751821,12.2031203 5.44,11.37 L7.74,16.91 Z" id="Shape" fill="#2C2F38"/><path d="M12.33,28 C10.7175369,29.0049169 8.8231408,29.4609752 6.93,29.3 C6.56696859,29.2569287 6.25637333,29.0191891 6.12,28.68 L4.05,23.68 C6.12972263,24.0083247 8.25794859,23.57131 10.04,22.45 L12.33,28 Z" id="Shape" fill="#2C2F38"/><path d="M38.29,40.8 C37.7994537,41.0052821 37.2473512,41.0067566 36.7557155,40.8040976 C36.2640798,40.6014386 35.873392,40.211333 35.67,39.72 L28,21.2 L26.99,18.75 L25.84,15.98 L25.84,15.97 L24.69,13.21 L22.4,7.67 L20.37,2.77 C20.2635493,2.52730089 20.2090486,2.26501643 20.21,2 C20.2099686,1.04473405 20.8854889,0.22280076 21.8226694,0.0377988886 C22.7598499,-0.147202983 23.6970304,0.356378993 24.06,1.24 L28,10.75 L30.16,15.97 L31.29,18.7 L39.37,38.19 C39.7908941,39.2089654 39.3078306,40.3763689 38.29,40.8 Z" id="Shape" fill="#35495E"/></g></g></svg>
