<?xml version="1.0" encoding="UTF-8"?><svg id="Layer_1" xmlns="http://www.w3.org/2000/svg" viewBox="0 0 604.29 331.92"><path d="M604.29,166.13c-25.93-33.6-58.65-62.53-96.57-81.69-13.3,23.86-21.08,50.87-22.19,78.19.16,1.27.06,2.6.46,3.83,39.42,0,78.83-.02,118.25,0l.05-.34h0ZM245.1,165.93c0-.18-.21-.33-.39-.47-38.98-12.44-80.18-15.99-120.87-17.38-28.38-.22-56.98-.25-85.04,4.57-13.14,2.57-27.36,4.78-38.22,13.15,1,.65,2.33.3,3.42.43,80.32-.05,160.64.02,240.96-.03.1-.1.15-.19.14-.27h0ZM228.2,53.1c-18.15-17.52-39.24-32.26-62.51-42.15C148.34,3.88,129.61-1.5,110.72.38c-24.6,1.37-49.2,3.3-73.6,6.83-9.55,1.56-19.21,3.04-28.31,6.42-3,1.25-6.68,2.63-7.51,6.15-1.86,5.66-1.81,13.7,4.16,16.82,8.19.86,16.18,3.01,23.99,5.57,28.47,9.98,54.7,25.45,79.5,42.45,1.54.68-.71.81-1.13,1.41,38.37-10.22,76.63-20.85,115.02-31.02,1.38-1.34,4.16-1,5.39-1.9h0ZM194.98,41.75c.04.96-.66,1.88-1.72,1.89-5.09.82-10.12-.62-15.05-1.71-9.81-2.56-19.43-5.95-28.51-10.48-8.14-3.87-16.72-6.76-24.74-10.88-1.2-.7-3.85-2.24-2.38-3.82,7.5-3.79,16.37-2.79,24.28-.83,13.39,3.44,26.08,9.21,38.19,15.82,3.61,2.64,7.65,5.31,9.79,9.36.09.21.14.43.15.66h0Z" style="fill:#3f82c4; stroke-width:0px;"/><path d="M604.24,166.25c-39.42-.03-78.83-.02-118.25,0-.4-1.23-.31-2.57-.46-3.83-.01.28-.03.56-.04.84-1.17,29.67,6.66,59.58,22,85,37.96-19.45,71.04-48.15,96.76-82h0ZM246.6,166.23c-.06-.11-.17-.34-.23-.46-.53-.23-1.1-.35-1.66-.52.27.2.58.42.25.74-80.32.05-160.64-.02-240.96.03-1.09-.13-2.42.22-3.42-.43-.14.03-.41.08-.55.11-.16.51.25.79.63,1.03,11.08,7.84,24.83,10.36,37.9,12.85,28.77,4.6,58.02,5.13,87.08,4.55,40.76-1.37,81.98-5.23,120.95-17.91h0ZM228.53,278.46c-40.45-7.58-80.13-18.8-119.35-31.17-16.08,11.09-32.81,21.29-50.3,30.03-16.97,8.35-34.76,15.82-53.66,18.24-3.45,1.55-4.81,5.87-4.99,9.39.41,4.01.41,9.38,4.66,11.43,5.4,2.94,11.48,4.29,17.44,5.63,31.43,6.17,63.49,8.01,95.39,9.91,7.79.01,15.53-1.21,23.13-2.88,33.33-7.86,63.38-26.87,87.68-50.58h0Z" style="fill:#377ab5; stroke-width:0px;"/><path d="M507.72,84.38c-38.08-19.8-80.45-30.04-122.93-34.65-21.71-2.44-159.93,5.53-161.98,5.23-38.39,10.16-76.65,20.78-115.02,31-5.4,1.53-10.8,3.13-16.06,5.11-12.95,4.95-26.28,9.07-39.19,14.22-3.8,7.13-6.19,14.99-9.25,22.4-1.95,6.25-3.5,12.66-4.35,19.15-.16,1.86-1.16,4.02-.14,5.72,28.06-4.82,56.66-4.79,85.04-4.57,40.69,1.38,81.89,4.93,120.87,17.37.56.17,1.13.29,1.66.52,29.31.56,58.91.07,88.33.24.57-18.02,10.68-34.57,24.57-45.57,20.1-15.86,50.82-15.71,70.66.54,13.66,10.64,22.02,27.71,21.98,45.04,11.11.07,22.22-.17,33.33.13.14-.96.16-1.93.25-2.89.02-.28.03-.56.04-.84,1.11-27.3,8.9-54.29,22.19-78.14h0Z" style="fill:#f9f9fa; stroke-width:0px;"/><path d="M485.48,163.36c-1.17,29.67,6.66,59.58,22,85-17.41,9.14-35.91,16.17-54.79,21.62-43.01,12.28-87.95,15.81-132.47,16.96-30.78,1.47-61.46-3.01-91.7-8.37-40.45-7.58-80.13-18.8-119.35-31.17-6.11-2.01-12.2-4.08-18.33-6.03-12.79-4.89-26.02-8.77-38.6-14.16-3.54-7.13-6.12-14.7-8.98-22.09-1.7-6.16-3.34-12.36-4.27-18.69-.07-2.24-.98-4.54-.44-6.74,28.77,4.6,58.02,5.13,87.08,4.55,40.76-1.37,81.98-5.23,120.95-17.91-.06-.11-.17-.34-.23-.46,29.31.56,58.91.07,88.33.24-1.01,17.83,7.08,35.75,20.85,47.05,16.88,14.34,42.29,17.35,62.06,7.39,20.05-10.13,34.55-31.69,34.3-54.44,11.11.07,22.23-.17,33.33.13.14-.96.16-1.93.25-2.89" style="fill:#e9e8e8; stroke-width:0px;"/><path d="M195.04,41.24c.5,1.16-.27,2.58-1.59,2.58-5.15.83-10.24-.63-15.23-1.73-9.92-2.59-19.66-6.04-28.85-10.63-8.24-3.92-16.92-6.85-25.04-11.04-1.21-.71-3.9-2.27-2.41-3.87,7.59-3.85,16.57-2.83,24.57-.84,13.55,3.49,26.4,9.34,38.65,16.04,3.66,2.68,7.74,5.39,9.91,9.5" style="fill:#61a1d8; stroke-width:0px;"/><path d="M109.46,84.96c0-.12-.15-.25-.53-.42-24.79-16.98-51.03-32.44-79.5-42.42-7.81-2.56-15.8-4.71-23.99-5.57,28.46,18.35,57.82,35.99,86.29,54.5,5.27-1.98,10.66-3.58,16.06-5.11.32-.45,1.66-.63,1.66-.98h0ZM109.18,247.39c-6.11-2.01-12.2-4.08-18.33-6.03-.17.22-.33.46-.54.68-28.25,18-57,35.65-85.1,53.62,18.9-2.41,36.69-9.89,53.66-18.24,17.48-8.74,34.21-18.93,50.3-30.03h0Z" style="fill:#2d6691; stroke-width:0px;"/><circle cx="385.22" cy="167.32" r="66.5" style="fill:#3f82c4; stroke:#444; stroke-width:22px;"/></svg>