<svg id="Layer_1" enable-background="new 0 0 32 32" height="512" viewBox="0 0 32 32" width="512" xmlns="http://www.w3.org/2000/svg"><path d="m26.381 15.1c-.075-.547-.582-.933-1.126-.855-.548.075-.931.579-.856 1.126.362 2.653-.514 5.257-2.404 7.147-3.305 3.305-8.684 3.305-11.988 0-3.306-3.306-3.306-8.684 0-11.989 2.792-2.792 7.123-3.211 10.381-1.249l-1.648.234c-.547.078-.928.584-.85 1.131.071.499.499.859.989.859.047 0 .094-.003.142-.01l3.942-.562c.547-.078.928-.584.85-1.131l-.562-3.942c-.078-.547-.584-.921-1.131-.849-.547.078-.928.584-.85 1.131l.208 1.461c-4.036-2.465-9.422-1.956-12.888 1.511-4.085 4.085-4.085 10.732 0 14.817 2.043 2.043 4.725 3.064 7.408 3.064s5.366-1.021 7.408-3.064c2.338-2.334 3.422-5.553 2.975-8.83z"/></svg>