<svg viewBox="0 0 512 512" xmlns="http://www.w3.org/2000/svg" xmlns:xlink="http://www.w3.org/1999/xlink"><linearGradient id="linear-gradient" gradientUnits="userSpaceOnUse" x1="195.56" x2="454.17" y1="161.25" y2="419.87"><stop offset="0" stop-color="#068c46"/><stop offset="1" stop-color="#068c46" stop-opacity="0"/></linearGradient><g id="Layer_2" data-name="Layer 2"><g id="Layer_1_copy_8" data-name="Layer 1 copy 8"><g id="_1" data-name="1"><circle id="background" cx="256" cy="256" fill="#1dd882" r="256"/><path d="m510.18 286.61c-11.63 97.66-78.24 178.44-168 210.52l-215-215-8.18-24.5 2.34-22.16 13.79-12.26 27.87-3.06 17.82 8.23 41.65 41.62 108.71-108.69 29.45-7.44 24.25 7.44z" fill="url(#linear-gradient)"/><path d="m331.18 161.31-108.71 108.69-41.65-41.65a38 38 0 0 0 -53.7 0 38 38 0 0 0 0 53.7l66.13 66.13c.71.85 1.46 1.68 2.26 2.48a38.23 38.23 0 0 0 53.91 0c.8-.8 1.55-1.63 2.26-2.48l133.2-133.18a38 38 0 0 0 0-53.7 38 38 0 0 0 -53.7.01z" fill="#fff"/></g></g></g></svg>