<?xml version="1.0" encoding="UTF-8"?>
<svg version="1.1" xmlns="http://www.w3.org/2000/svg" width="512" height="512">
<path d="M0,0 L46,0 L74,4 L101,11 L122,19 L147,31 L166,43 L182,55 L196,67 L213,84 L222,95 L236,114 L248,135 L258,156 L265,175 L272,202 L276,230 L276,276 L272,304 L265,331 L257,352 L245,377 L233,396 L221,412 L209,426 L192,443 L181,452 L162,466 L141,478 L120,488 L101,495 L74,502 L46,506 L0,506 L-28,502 L-55,495 L-76,487 L-101,475 L-120,463 L-136,451 L-150,439 L-167,422 L-176,411 L-190,392 L-202,371 L-212,350 L-219,331 L-226,304 L-230,276 L-230,230 L-226,202 L-219,175 L-211,154 L-199,129 L-187,110 L-175,94 L-163,80 L-146,63 L-135,54 L-116,40 L-95,28 L-74,18 L-55,11 L-28,4 Z " fill="#D0A27F" transform="translate(234,4)"/>
<path d="M0,0 L46,0 L74,4 L101,11 L122,19 L147,31 L166,43 L182,55 L196,67 L213,84 L222,95 L236,114 L248,135 L258,156 L265,175 L272,202 L276,230 L276,276 L272,304 L265,331 L257,352 L245,377 L233,396 L221,412 L209,426 L192,443 L181,452 L162,466 L141,478 L120,488 L101,495 L74,502 L46,506 L0,506 L-28,502 L-55,495 L-76,487 L-101,475 L-120,463 L-136,451 L-150,439 L-167,422 L-176,411 L-190,392 L-202,371 L-212,350 L-219,331 L-226,304 L-230,276 L-230,230 L-226,202 L-219,175 L-211,154 L-199,129 L-187,110 L-175,94 L-163,80 L-146,63 L-135,54 L-116,40 L-95,28 L-74,18 L-55,11 L-28,4 Z M8,49 L-16,52 L-39,58 L-60,66 L-83,78 L-99,89 L-110,98 L-122,109 L-129,116 L-138,127 L-150,144 L-159,160 L-167,177 L-173,194 L-178,214 L-181,238 L-181,270 L-177,295 L-173,311 L-166,331 L-155,354 L-146,368 L-137,380 L-125,394 L-114,405 L-103,414 L-86,426 L-70,435 L-53,443 L-36,449 L-16,454 L8,457 L40,457 L65,453 L81,449 L101,442 L124,431 L138,422 L150,413 L164,401 L175,390 L184,379 L196,362 L205,346 L212,331 L222,301 L226,276 L227,270 L227,238 L224,214 L218,191 L210,170 L198,147 L187,131 L178,120 L167,108 L160,101 L149,92 L132,80 L116,71 L101,64 L71,54 L46,50 L40,49 Z " fill="#D26D56" transform="translate(234,4)"/>
<path d="M0,0 L20,0 L37,2 L51,6 L66,12 L79,19 L90,27 L100,36 L105,41 L114,51 L124,67 L132,84 L137,103 L139,117 L139,137 L137,154 L133,168 L127,183 L120,196 L110,210 L103,217 L98,222 L88,231 L72,241 L57,248 L44,252 L30,255 L20,256 L0,256 L-14,254 L-33,249 L-54,239 L-71,227 L-78,220 L-83,215 L-92,205 L-102,189 L-109,174 L-113,161 L-116,147 L-117,137 L-117,117 L-115,103 L-110,84 L-100,63 L-90,49 L-81,39 L-71,29 L-57,19 L-38,9 L-23,4 L-10,1 Z " fill="#D7B747" transform="translate(246,129)"/>
<path d="M0,0 L46,0 L74,4 L101,11 L122,19 L147,31 L166,43 L182,55 L196,67 L213,84 L222,95 L236,114 L248,135 L258,156 L265,175 L272,202 L276,230 L276,276 L272,304 L265,331 L257,352 L245,377 L233,396 L221,412 L209,426 L192,443 L181,452 L162,466 L141,478 L120,488 L101,495 L74,502 L46,506 L0,506 L-28,502 L-55,495 L-76,487 L-101,475 L-120,463 L-136,451 L-150,439 L-167,422 L-176,411 L-190,392 L-202,371 L-212,350 L-219,331 L-226,304 L-230,276 L-230,230 L-226,202 L-219,175 L-211,154 L-199,129 L-187,110 L-175,94 L-163,80 L-146,63 L-135,54 L-116,40 L-95,28 L-74,18 L-55,11 L-28,4 Z M11,20 L-13,22 L-40,28 L-61,35 L-81,44 L-101,55 L-118,67 L-129,76 L-142,88 L-151,97 L-160,108 L-171,123 L-180,138 L-190,157 L-199,180 L-205,203 L-208,217 L-210,241 L-210,265 L-208,289 L-204,307 L-197,331 L-189,351 L-178,372 L-166,390 L-155,404 L-141,419 L-134,426 L-123,435 L-110,445 L-92,456 L-73,466 L-50,475 L-27,481 L-13,484 L11,486 L39,486 L59,484 L77,480 L101,473 L121,465 L142,454 L160,442 L174,431 L189,417 L196,410 L205,399 L215,386 L228,365 L239,342 L248,315 L252,300 L254,289 L256,269 L256,241 L254,217 L248,190 L241,169 L232,149 L221,129 L209,112 L200,101 L188,88 L180,80 L169,71 L156,61 L135,48 L112,37 L85,28 L70,24 L59,22 L39,20 Z " fill="#FE856A" transform="translate(234,4)"/>
<path d="M0,0 L32,0 L57,4 L73,8 L93,15 L116,26 L130,35 L142,44 L156,56 L167,67 L176,78 L188,95 L197,111 L205,128 L211,145 L216,165 L219,189 L219,221 L215,246 L211,262 L204,282 L193,305 L184,319 L175,331 L163,345 L152,356 L141,365 L124,377 L108,386 L93,393 L63,403 L38,407 L32,408 L0,408 L-24,405 L-47,399 L-68,391 L-91,379 L-107,368 L-118,359 L-130,348 L-137,341 L-146,330 L-158,313 L-167,297 L-174,282 L-184,252 L-188,227 L-189,221 L-189,189 L-186,165 L-180,142 L-172,121 L-160,98 L-149,82 L-140,71 L-129,59 L-122,52 L-111,43 L-94,31 L-78,22 L-61,14 L-44,8 L-24,3 Z M-1,20 L-25,24 L-40,28 L-59,35 L-82,47 L-99,59 L-109,68 L-117,75 L-127,86 L-138,101 L-147,116 L-157,137 L-163,155 L-168,180 L-169,188 L-169,221 L-165,245 L-161,259 L-154,278 L-142,301 L-130,318 L-120,329 L-113,337 L-103,346 L-88,357 L-73,366 L-52,376 L-34,382 L-9,387 L-1,388 L32,388 L56,384 L70,380 L89,373 L112,361 L129,349 L140,339 L148,332 L157,322 L168,307 L177,292 L187,271 L192,257 L196,240 L199,221 L199,188 L195,164 L191,149 L184,130 L172,107 L160,90 L151,80 L144,72 L133,62 L118,51 L103,42 L82,32 L63,26 L51,23 L32,20 Z " fill="#F3BC94" transform="translate(242,53)"/>
<path d="M0,0 L20,0 L37,2 L51,6 L66,12 L79,19 L90,27 L100,36 L105,41 L114,51 L124,67 L132,84 L137,103 L139,117 L139,137 L137,154 L133,168 L127,183 L120,196 L110,210 L103,217 L98,222 L88,231 L72,241 L57,248 L44,252 L30,255 L20,256 L0,256 L-14,254 L-33,249 L-54,239 L-71,227 L-78,220 L-83,215 L-92,205 L-102,189 L-109,174 L-113,161 L-116,147 L-117,137 L-117,117 L-115,103 L-110,84 L-100,63 L-90,49 L-81,39 L-71,29 L-57,19 L-38,9 L-23,4 L-10,1 Z M-2,20 L-17,23 L-33,29 L-48,37 L-61,47 L-72,58 L-82,72 L-91,91 L-95,104 L-97,115 L-97,140 L-94,156 L-88,172 L-80,187 L-70,200 L-59,211 L-45,221 L-26,230 L-13,234 L-2,236 L24,236 L39,233 L58,226 L73,217 L84,208 L94,198 L104,184 L112,168 L117,152 L119,141 L119,119 L116,100 L110,84 L102,69 L92,56 L81,45 L67,35 L48,26 L35,22 L24,20 Z " fill="#FED956" transform="translate(246,129)"/>
<path d="M0,0 L19,0 L37,6 L47,13 L54,19 L61,29 L66,39 L69,50 L69,69 L63,87 L56,97 L50,104 L40,111 L32,115 L19,119 L0,119 L-13,115 L-23,110 L-34,101 L-42,90 L-46,82 L-50,69 L-50,50 L-46,37 L-41,27 L-32,16 L-21,8 L-11,3 Z " fill="#FE866A" transform="translate(247,197)"/>
<path d="M0,0 L13,0 L21,2 L31,7 L40,16 L46,28 L47,32 L47,45 L45,53 L40,63 L31,72 L19,78 L13,79 L0,79 L-11,75 L-19,69 L-27,60 L-31,51 L-32,45 L-32,32 L-28,21 L-22,13 L-13,5 L-4,1 Z " fill="#D26D56" transform="translate(249,217)"/>
</svg>
