<?xml version="1.0" encoding="UTF-8" standalone="no" ?>
<!DOCTYPE svg PUBLIC "-//W3C//DTD SVG 1.1//EN" "">
<svg xmlns="http://www.w3.org/2000/svg" xmlns:xlink="http://www.w3.org/1999/xlink" version="1.1" width="512" height="512" viewBox="0 0 512 512" xml:space="preserve">
<desc>Created with Fabric.js 5.2.4</desc>
<defs>
</defs>
<g transform="matrix(1 0 0 1 256 256)" id="edf20cc2-3785-4882-a5e5-bff918218487"  >
<rect style="stroke: none; stroke-width: 1; stroke-dasharray: none; stroke-linecap: butt; stroke-dashoffset: 0; stroke-linejoin: miter; stroke-miterlimit: 4; fill: rgb(255,255,255); fill-rule: nonzero; opacity: 1; visibility: hidden;" vector-effect="non-scaling-stroke"  x="-256" y="-256" rx="0" ry="0" width="512" height="512" />
</g>
<g transform="matrix(Infinity NaN NaN Infinity 0 0)" id="d3704903-e5bb-4cde-bf13-3f63af2db7b5"  >
</g>
<g transform="matrix(1 0 0 1 256 256)"  >
<g style=""    >
		<g transform="matrix(1 0 0 1 0 0)"  >
<rect style="stroke: none; stroke-width: 1; stroke-dasharray: none; stroke-linecap: butt; stroke-dashoffset: 0; stroke-linejoin: miter; stroke-miterlimit: 4; fill: rgb(255,255,255); fill-rule: nonzero; opacity: 1; visibility: hidden;" vector-effect="non-scaling-stroke"  x="-256" y="-256" rx="0" ry="0" width="512" height="512" />
</g>
		<g transform="matrix(1 0 0 1 0 0)"  >
<path style="stroke: none; stroke-width: 1; stroke-dasharray: none; stroke-linecap: butt; stroke-dashoffset: 0; stroke-linejoin: miter; stroke-miterlimit: 4; fill: rgb(208,162,127); fill-rule: nonzero; opacity: 0.56;" vector-effect="non-scaling-stroke"  transform=" translate(-23, -253)" d="M 0 0 L 46 0 L 74 4 L 101 11 L 122 19 L 147 31 L 166 43 L 182 55 L 196 67 L 213 84 L 222 95 L 236 114 L 248 135 L 258 156 L 265 175 L 272 202 L 276 230 L 276 276 L 272 304 L 265 331 L 257 352 L 245 377 L 233 396 L 221 412 L 209 426 L 192 443 L 181 452 L 162 466 L 141 478 L 120 488 L 101 495 L 74 502 L 46 506 L 0 506 L -28 502 L -55 495 L -76 487 L -101 475 L -120 463 L -136 451 L -150 439 L -167 422 L -176 411 L -190 392 L -202 371 L -212 350 L -219 331 L -226 304 L -230 276 L -230 230 L -226 202 L -219 175 L -211 154 L -199 129 L -187 110 L -175 94 L -163 80 L -146 63 L -135 54 L -116 40 L -95 28 L -74 18 L -55 11 L -28 4 Z" stroke-linecap="round" />
</g>
		<g transform="matrix(1 0 0 1 0 0)"  >
<path style="stroke: none; stroke-width: 1; stroke-dasharray: none; stroke-linecap: butt; stroke-dashoffset: 0; stroke-linejoin: miter; stroke-miterlimit: 4; fill: rgb(210,109,86); fill-rule: nonzero; opacity: 0.56;" vector-effect="non-scaling-stroke"  transform=" translate(-23, -253)" d="M 0 0 L 46 0 L 74 4 L 101 11 L 122 19 L 147 31 L 166 43 L 182 55 L 196 67 L 213 84 L 222 95 L 236 114 L 248 135 L 258 156 L 265 175 L 272 202 L 276 230 L 276 276 L 272 304 L 265 331 L 257 352 L 245 377 L 233 396 L 221 412 L 209 426 L 192 443 L 181 452 L 162 466 L 141 478 L 120 488 L 101 495 L 74 502 L 46 506 L 0 506 L -28 502 L -55 495 L -76 487 L -101 475 L -120 463 L -136 451 L -150 439 L -167 422 L -176 411 L -190 392 L -202 371 L -212 350 L -219 331 L -226 304 L -230 276 L -230 230 L -226 202 L -219 175 L -211 154 L -199 129 L -187 110 L -175 94 L -163 80 L -146 63 L -135 54 L -116 40 L -95 28 L -74 18 L -55 11 L -28 4 Z M 8 49 L -16 52 L -39 58 L -60 66 L -83 78 L -99 89 L -110 98 L -122 109 L -129 116 L -138 127 L -150 144 L -159 160 L -167 177 L -173 194 L -178 214 L -181 238 L -181 270 L -177 295 L -173 311 L -166 331 L -155 354 L -146 368 L -137 380 L -125 394 L -114 405 L -103 414 L -86 426 L -70 435 L -53 443 L -36 449 L -16 454 L 8 457 L 40 457 L 65 453 L 81 449 L 101 442 L 124 431 L 138 422 L 150 413 L 164 401 L 175 390 L 184 379 L 196 362 L 205 346 L 212 331 L 222 301 L 226 276 L 227 270 L 227 238 L 224 214 L 218 191 L 210 170 L 198 147 L 187 131 L 178 120 L 167 108 L 160 101 L 149 92 L 132 80 L 116 71 L 101 64 L 71 54 L 46 50 L 40 49 Z" stroke-linecap="round" />
</g>
		<g transform="matrix(1 0 0 1 0 0)"  >
<path style="stroke: none; stroke-width: 1; stroke-dasharray: none; stroke-linecap: butt; stroke-dashoffset: 0; stroke-linejoin: miter; stroke-miterlimit: 4; fill: rgb(215,183,71); fill-rule: nonzero; opacity: 0.56;" vector-effect="non-scaling-stroke"  transform=" translate(-11, -128)" d="M 0 0 L 20 0 L 37 2 L 51 6 L 66 12 L 79 19 L 90 27 L 100 36 L 105 41 L 114 51 L 124 67 L 132 84 L 137 103 L 139 117 L 139 137 L 137 154 L 133 168 L 127 183 L 120 196 L 110 210 L 103 217 L 98 222 L 88 231 L 72 241 L 57 248 L 44 252 L 30 255 L 20 256 L 0 256 L -14 254 L -33 249 L -54 239 L -71 227 L -78 220 L -83 215 L -92 205 L -102 189 L -109 174 L -113 161 L -116 147 L -117 137 L -117 117 L -115 103 L -110 84 L -100 63 L -90 49 L -81 39 L -71 29 L -57 19 L -38 9 L -23 4 L -10 1 Z" stroke-linecap="round" />
</g>
		<g transform="matrix(1 0 0 1 0 0)"  >
<path style="stroke: none; stroke-width: 1; stroke-dasharray: none; stroke-linecap: butt; stroke-dashoffset: 0; stroke-linejoin: miter; stroke-miterlimit: 4; fill: rgb(254,133,106); fill-rule: nonzero; opacity: 0.56;" vector-effect="non-scaling-stroke"  transform=" translate(-23, -253)" d="M 0 0 L 46 0 L 74 4 L 101 11 L 122 19 L 147 31 L 166 43 L 182 55 L 196 67 L 213 84 L 222 95 L 236 114 L 248 135 L 258 156 L 265 175 L 272 202 L 276 230 L 276 276 L 272 304 L 265 331 L 257 352 L 245 377 L 233 396 L 221 412 L 209 426 L 192 443 L 181 452 L 162 466 L 141 478 L 120 488 L 101 495 L 74 502 L 46 506 L 0 506 L -28 502 L -55 495 L -76 487 L -101 475 L -120 463 L -136 451 L -150 439 L -167 422 L -176 411 L -190 392 L -202 371 L -212 350 L -219 331 L -226 304 L -230 276 L -230 230 L -226 202 L -219 175 L -211 154 L -199 129 L -187 110 L -175 94 L -163 80 L -146 63 L -135 54 L -116 40 L -95 28 L -74 18 L -55 11 L -28 4 Z M 11 20 L -13 22 L -40 28 L -61 35 L -81 44 L -101 55 L -118 67 L -129 76 L -142 88 L -151 97 L -160 108 L -171 123 L -180 138 L -190 157 L -199 180 L -205 203 L -208 217 L -210 241 L -210 265 L -208 289 L -204 307 L -197 331 L -189 351 L -178 372 L -166 390 L -155 404 L -141 419 L -134 426 L -123 435 L -110 445 L -92 456 L -73 466 L -50 475 L -27 481 L -13 484 L 11 486 L 39 486 L 59 484 L 77 480 L 101 473 L 121 465 L 142 454 L 160 442 L 174 431 L 189 417 L 196 410 L 205 399 L 215 386 L 228 365 L 239 342 L 248 315 L 252 300 L 254 289 L 256 269 L 256 241 L 254 217 L 248 190 L 241 169 L 232 149 L 221 129 L 209 112 L 200 101 L 188 88 L 180 80 L 169 71 L 156 61 L 135 48 L 112 37 L 85 28 L 70 24 L 59 22 L 39 20 Z" stroke-linecap="round" />
</g>
		<g transform="matrix(1 0 0 1 0 0)"  >
<path style="stroke: none; stroke-width: 1; stroke-dasharray: none; stroke-linecap: butt; stroke-dashoffset: 0; stroke-linejoin: miter; stroke-miterlimit: 4; fill: rgb(243,188,148); fill-rule: nonzero; opacity: 0.56;" vector-effect="non-scaling-stroke"  transform=" translate(-15, -204)" d="M 0 0 L 32 0 L 57 4 L 73 8 L 93 15 L 116 26 L 130 35 L 142 44 L 156 56 L 167 67 L 176 78 L 188 95 L 197 111 L 205 128 L 211 145 L 216 165 L 219 189 L 219 221 L 215 246 L 211 262 L 204 282 L 193 305 L 184 319 L 175 331 L 163 345 L 152 356 L 141 365 L 124 377 L 108 386 L 93 393 L 63 403 L 38 407 L 32 408 L 0 408 L -24 405 L -47 399 L -68 391 L -91 379 L -107 368 L -118 359 L -130 348 L -137 341 L -146 330 L -158 313 L -167 297 L -174 282 L -184 252 L -188 227 L -189 221 L -189 189 L -186 165 L -180 142 L -172 121 L -160 98 L -149 82 L -140 71 L -129 59 L -122 52 L -111 43 L -94 31 L -78 22 L -61 14 L -44 8 L -24 3 Z M -1 20 L -25 24 L -40 28 L -59 35 L -82 47 L -99 59 L -109 68 L -117 75 L -127 86 L -138 101 L -147 116 L -157 137 L -163 155 L -168 180 L -169 188 L -169 221 L -165 245 L -161 259 L -154 278 L -142 301 L -130 318 L -120 329 L -113 337 L -103 346 L -88 357 L -73 366 L -52 376 L -34 382 L -9 387 L -1 388 L 32 388 L 56 384 L 70 380 L 89 373 L 112 361 L 129 349 L 140 339 L 148 332 L 157 322 L 168 307 L 177 292 L 187 271 L 192 257 L 196 240 L 199 221 L 199 188 L 195 164 L 191 149 L 184 130 L 172 107 L 160 90 L 151 80 L 144 72 L 133 62 L 118 51 L 103 42 L 82 32 L 63 26 L 51 23 L 32 20 Z" stroke-linecap="round" />
</g>
		<g transform="matrix(1 0 0 1 0 0)"  >
<path style="stroke: none; stroke-width: 1; stroke-dasharray: none; stroke-linecap: butt; stroke-dashoffset: 0; stroke-linejoin: miter; stroke-miterlimit: 4; fill: rgb(254,217,86); fill-rule: nonzero; opacity: 0.56;" vector-effect="non-scaling-stroke"  transform=" translate(-11, -128)" d="M 0 0 L 20 0 L 37 2 L 51 6 L 66 12 L 79 19 L 90 27 L 100 36 L 105 41 L 114 51 L 124 67 L 132 84 L 137 103 L 139 117 L 139 137 L 137 154 L 133 168 L 127 183 L 120 196 L 110 210 L 103 217 L 98 222 L 88 231 L 72 241 L 57 248 L 44 252 L 30 255 L 20 256 L 0 256 L -14 254 L -33 249 L -54 239 L -71 227 L -78 220 L -83 215 L -92 205 L -102 189 L -109 174 L -113 161 L -116 147 L -117 137 L -117 117 L -115 103 L -110 84 L -100 63 L -90 49 L -81 39 L -71 29 L -57 19 L -38 9 L -23 4 L -10 1 Z M -2 20 L -17 23 L -33 29 L -48 37 L -61 47 L -72 58 L -82 72 L -91 91 L -95 104 L -97 115 L -97 140 L -94 156 L -88 172 L -80 187 L -70 200 L -59 211 L -45 221 L -26 230 L -13 234 L -2 236 L 24 236 L 39 233 L 58 226 L 73 217 L 84 208 L 94 198 L 104 184 L 112 168 L 117 152 L 119 141 L 119 119 L 116 100 L 110 84 L 102 69 L 92 56 L 81 45 L 67 35 L 48 26 L 35 22 L 24 20 Z" stroke-linecap="round" />
</g>
		<g transform="matrix(1 0 0 1 -0.5 -0.5)"  >
<path style="stroke: none; stroke-width: 1; stroke-dasharray: none; stroke-linecap: butt; stroke-dashoffset: 0; stroke-linejoin: miter; stroke-miterlimit: 4; fill: rgb(254,134,106); fill-rule: nonzero; opacity: 0.56;" vector-effect="non-scaling-stroke"  transform=" translate(-9.5, -59.5)" d="M 0 0 L 19 0 L 37 6 L 47 13 L 54 19 L 61 29 L 66 39 L 69 50 L 69 69 L 63 87 L 56 97 L 50 104 L 40 111 L 32 115 L 19 119 L 0 119 L -13 115 L -23 110 L -34 101 L -42 90 L -46 82 L -50 69 L -50 50 L -46 37 L -41 27 L -32 16 L -21 8 L -11 3 Z" stroke-linecap="round" />
</g>
		<g transform="matrix(1 0 0 1 -0.5 -0.5)"  >
<path style="stroke: none; stroke-width: 1; stroke-dasharray: none; stroke-linecap: butt; stroke-dashoffset: 0; stroke-linejoin: miter; stroke-miterlimit: 4; fill: rgb(210,109,86); fill-rule: nonzero; opacity: 0.56;" vector-effect="non-scaling-stroke"  transform=" translate(-7.5, -39.5)" d="M 0 0 L 13 0 L 21 2 L 31 7 L 40 16 L 46 28 L 47 32 L 47 45 L 45 53 L 40 63 L 31 72 L 19 78 L 13 79 L 0 79 L -11 75 L -19 69 L -27 60 L -31 51 L -32 45 L -32 32 L -28 21 L -22 13 L -13 5 L -4 1 Z" stroke-linecap="round" />
</g>
</g>
</g>
</svg>