<svg viewBox="853.109 -1246.178 1481.491 2697.207" xmlns="http://www.w3.org/2000/svg" transform="scale(1 -1)rotate(90)"><path d="M3149.076 17.75c-149.956 115.73-279.089 261.77-364.634 431.04 106.518 59.35 227.056 94.109 348.994 99.059 5.654-.7 11.617-.27 17.111-2.07-.04-175.93-.111-351.86.03-527.79l-1.501-.241zm-.876 1603.2c-.814.015-1.464.943-2.076 1.761-55.546 173.99-71.386 357.87-77.57 539.48-.99 126.67-1.11 254.34 20.413 379.57 11.458 58.66 21.354 122.13 58.708 170.57 2.902-4.46 1.321-10.379 1.901-15.259-.22-358.49.08-716.99-.15-1075.5-.45-.466-.855-.648-1.226-.641zm-503.613 75.441c-78.21 81-143.992 175.13-188.121 279-31.56 77.44-55.575 161.04-47.21 245.39 6.114 109.8 14.709 219.59 30.47 328.51 6.954 42.61 13.548 85.72 28.638 126.38 5.583 13.4 11.717 29.801 27.468 33.541 25.246 8.31 61.149 8.08 75.068-18.55 3.832-36.56 13.418-72.23 24.866-107.07 44.548-127.06 113.603-244.15 189.451-354.82 3.042-6.87 3.612 3.17 6.284 5.05-45.629-171.26-93.08-342.05-138.439-513.38-5.964-6.14-4.453-18.55-8.476-24.05zm-50.677 148.29c4.289-.167 8.412 2.964 8.42 7.684 3.662 22.72-2.782 45.159-7.625 67.169-11.408 43.77-26.576 86.711-46.789 127.23-17.261 36.34-30.161 74.64-48.572 110.43-3.142 5.34-9.996 17.199-17.05 10.639-16.931-33.47-12.439-73.07-3.714-108.35 15.37-59.76 41.097-116.42 70.596-170.44 11.787-16.13 23.706-34.13 41.788-43.7a8.3 8.3 0 0 1 2.947-.664z" style="fill:#3a83cd" transform="translate(-1554.469 -1263.926)"/><path d="M3149.599 17.991c-.14 175.93-.07 351.86-.03 527.79-5.49 1.8-11.45 1.37-17.1 2.07 1.24.05 2.499.12 3.759.2 132.45 5.24 265.93-29.73 379.39-98.2-86.8-169.43-214.9-317.06-366-431.86zm-.091 1596.3c-.51.25-1.529.759-2.039 1.009-1.02 2.38-1.551 4.931-2.321 7.411.89-1.19 1.86-2.61 3.3-1.12.23 358.49-.07 716.99.15 1075.5-.58 4.88 1 10.799-1.9 15.259.12.61.37 1.831.49 2.441 2.29.73 3.51-1.121 4.59-2.791 35-49.45 46.219-110.81 57.359-169.15 20.52-128.4 22.89-258.97 20.3-388.67-6.13-181.92-23.34-365.92-79.93-539.87zm500.95 80.639c-33.82 180.55-83.929 357.64-139.11 532.71 49.51 71.79 95.03 146.46 134.02 224.5 37.25 75.73 70.63 155.15 81.4 239.51 6.91 15.39 26.219 21.47 41.919 22.28 17.92-1.82 41.88-1.839 51.02-20.789 13.13-24.1 19.151-51.261 25.141-77.841 27.54-140.29 35.76-283.39 44.22-425.78.05-34.78-5.411-69.33-12.841-103.22-35.09-148.78-119.94-282.91-225.77-391.37z" style="fill:#3679b4" transform="translate(-1554.469 -1263.926)"/><path d="M1229.731-815.136c-88.39 169.96-134.07 359.1-154.65 548.7-10.88 96.92 24.669 713.83 23.359 722.98 45.33 171.33 92.75 342.12 138.35 513.38 6.83 24.12 13.971 48.191 22.791 71.691 22.08 57.82 40.5 117.32 63.48 174.91 31.84 16.96 66.92 27.641 99.98 41.291 27.9 8.71 56.491 15.609 85.491 19.419 8.32.72 17.93 5.171 25.53.631-21.51-125.23-21.39-252.9-20.4-379.57 6.18-181.61 22.01-365.49 77.52-539.48.77-2.48 1.3-5.031 2.32-7.411 2.52-130.81.31-262.94 1.06-394.25-80.41-2.55-154.31-47.679-203.42-109.66-70.8-89.7-70.1-226.85 2.4-315.4 47.51-60.97 123.67-98.281 201.02-98.091.32-49.58-.761-99.199.579-148.76-4.28-.62-8.63-.73-12.9-1.1-1.26-.08-2.519-.15-3.759-.2-121.86-4.95-242.32-39.709-348.77-99.059z" fill="#f9f9f9"/><path d="M1582.231-715.876c132.45 5.24 265.93-29.73 379.39-98.2 40.79 77.71 72.18 160.27 96.52 244.55 54.79 191.97 70.58 392.57 75.69 591.26 6.58 137.37-13.45 274.34-37.37 409.3-33.82 180.55-83.93 357.64-139.11 532.71-8.97 27.26-18.2 54.45-26.92 81.8-21.81 57.08-39.14 116.12-63.18 172.3-31.83 15.8-65.62 27.32-98.61 40.06-27.5 7.61-55.15 14.93-83.43 19.06-9.99.31-20.26 4.38-30.07 1.97 20.52-128.4 22.89-258.97 20.3-388.67-6.13-181.92-23.34-365.92-79.93-539.87-.51.25-1.53.76-2.04 1.01 2.52-130.81.31-262.94 1.06-394.25 79.6 4.51 159.58-31.59 210.01-93.07 63.99-75.33 77.45-188.74 32.99-276.99-45.23-89.49-141.43-154.21-242.98-153.11.32-49.58-.76-99.2.58-148.76-4.28-.62-8.63-.73-12.9-1.1" fill="#e8e8e8"/><path d="M2591.644 1844.404c5.186-2.217 11.519 1.225 11.53 7.105 3.715 22.994-2.822 45.704-7.734 67.978-11.571 44.297-26.959 87.754-47.463 128.762-17.508 36.777-30.592 75.538-49.268 111.759-3.187 5.404-10.14 17.407-17.295 10.768-17.175-33.873-12.617-73.95-3.766-109.654 15.59-60.48 41.686-117.821 71.609-172.491 11.957-16.325 24.045-34.541 42.387-44.227" style="fill:#5da2e0" transform="translate(-1554.469 -1263.926)"/><path d="M2786.8 2226.4c-.523 0-1.127.656-1.887 2.373-75.8 110.67-144.81 227.76-189.33 354.82-11.44 34.84-21.02 70.51-24.85 107.07 81.89-127.02 160.64-258.07 243.25-385.15-8.82-23.5-15.961-47.57-22.791-71.69-2.003-1.41-2.825-7.41-4.393-7.424zm724.98 1.244c-8.97 27.26-18.2 54.45-26.92 81.8.99.77 2.07 1.479 3.02 2.389 80.32 126.09 159.14 254.4 239.32 379.82-10.77-84.36-44.15-163.78-81.4-239.51-38.99-78.04-84.51-152.71-134.02-224.5z" style="fill:#2b6590" transform="translate(-1554.469 -1263.926)"/><circle style="paint-order:fill;stroke:#434343;stroke-width:46px;fill:#3a83cd" cx="3154.4" cy="995.566" transform="translate(-1554.469 -1263.926)" r="296.826"/></svg>