<?xml version="1.0" encoding="utf-8"?>
<svg viewBox="853.1086 -1246.1777 1481.491 2697.2068" xmlns="http://www.w3.org/2000/svg">
  <g transform="matrix(1, 0, 0, 1, -1554.4687963267784, -1263.925696847607)">
    <path id="path4" d="M 3149.076 17.75 C 2999.12 133.48 2869.987 279.52 2784.442 448.79 C 2890.96 508.14 3011.498 542.899 3133.436 547.849 C 3139.09 547.149 3145.053 547.579 3150.547 545.779 C 3150.507 369.849 3150.436 193.919 3150.577 17.989 C 3150.197 17.929 3149.446 17.808 3149.076 17.748 L 3149.076 17.75 Z M 3148.2 1620.95 C 3147.386 1620.965 3146.736 1621.893 3146.124 1622.711 C 3090.578 1796.701 3074.738 1980.581 3068.554 2162.191 C 3067.564 2288.861 3067.444 2416.531 3088.967 2541.761 C 3100.425 2600.421 3110.321 2663.891 3147.675 2712.331 C 3150.577 2707.871 3148.996 2701.952 3149.576 2697.072 C 3149.356 2338.582 3149.656 1980.082 3149.426 1621.572 C 3148.976 1621.106 3148.571 1620.924 3148.2 1620.931 L 3148.2 1620.95 Z M 2644.587 1696.391 C 2566.377 1777.391 2500.595 1871.521 2456.466 1975.391 C 2424.906 2052.831 2400.891 2136.431 2409.256 2220.781 C 2415.37 2330.581 2423.965 2440.371 2439.726 2549.291 C 2446.68 2591.901 2453.274 2635.011 2468.364 2675.671 C 2473.947 2689.071 2480.081 2705.472 2495.832 2709.212 C 2521.078 2717.522 2556.981 2717.292 2570.9 2690.662 C 2574.732 2654.102 2584.318 2618.432 2595.766 2583.592 C 2640.314 2456.532 2709.369 2339.442 2785.217 2228.772 C 2788.259 2221.902 2788.829 2231.942 2791.501 2233.822 C 2745.872 2062.562 2698.421 1891.772 2653.062 1720.442 C 2647.098 1714.302 2648.609 1701.892 2644.586 1696.392 L 2644.587 1696.391 Z M 2593.91 1844.681 C 2598.199 1844.514 2602.322 1847.645 2602.33 1852.365 C 2605.992 1875.085 2599.548 1897.524 2594.705 1919.534 C 2583.297 1963.304 2568.129 2006.245 2547.916 2046.764 C 2530.655 2083.104 2517.755 2121.404 2499.344 2157.194 C 2496.202 2162.534 2489.348 2174.393 2482.294 2167.833 C 2465.363 2134.363 2469.855 2094.763 2478.58 2059.483 C 2493.95 1999.723 2519.677 1943.063 2549.176 1889.043 C 2560.963 1872.913 2572.882 1854.913 2590.964 1845.343 C 2591.922 1844.933 2592.921 1844.718 2593.911 1844.679 L 2593.91 1844.681 Z" style="fill: rgb(112, 76, 241);"/>
    <path id="path6" d="M 3149.599 17.991 C 3149.459 193.921 3149.529 369.851 3149.569 545.781 C 3144.079 547.581 3138.119 547.151 3132.469 547.851 C 3133.709 547.901 3134.968 547.971 3136.228 548.051 C 3268.678 553.291 3402.158 518.321 3515.618 449.851 C 3428.818 280.421 3300.718 132.791 3149.618 17.991 L 3149.599 17.991 Z M 3149.508 1614.291 C 3148.998 1614.541 3147.979 1615.05 3147.469 1615.3 C 3146.449 1617.68 3145.918 1620.231 3145.148 1622.711 C 3146.038 1621.521 3147.008 1620.101 3148.448 1621.591 C 3148.678 1980.081 3148.378 2338.581 3148.598 2697.091 C 3148.018 2701.971 3149.598 2707.89 3146.698 2712.35 C 3146.818 2712.96 3147.068 2714.181 3147.188 2714.791 C 3149.478 2715.521 3150.698 2713.67 3151.778 2712 C 3186.778 2662.55 3197.997 2601.19 3209.137 2542.85 C 3229.657 2414.45 3232.027 2283.88 3229.437 2154.18 C 3223.307 1972.26 3206.097 1788.26 3149.507 1614.31 L 3149.508 1614.291 Z M 3650.458 1694.93 C 3616.638 1875.48 3566.529 2052.57 3511.348 2227.64 C 3560.858 2299.43 3606.378 2374.1 3645.368 2452.14 C 3682.618 2527.87 3715.998 2607.29 3726.768 2691.65 C 3733.678 2707.04 3752.987 2713.12 3768.687 2713.93 C 3786.607 2712.11 3810.567 2712.091 3819.707 2693.141 C 3832.837 2669.041 3838.858 2641.88 3844.848 2615.3 C 3872.388 2475.01 3880.608 2331.91 3889.068 2189.52 C 3889.118 2154.74 3883.657 2120.19 3876.227 2086.3 C 3841.137 1937.52 3756.287 1803.39 3650.457 1694.93 L 3650.458 1694.93 Z" style="fill: rgb(102, 73, 203);"/>
  </g>
  <path id="path8" d="M 2784.2 448.79 C 2695.81 618.75 2650.13 807.89 2629.55 997.49 C 2618.67 1094.41 2654.219 1711.32 2652.909 1720.47 C 2698.239 1891.8 2745.659 2062.59 2791.259 2233.85 C 2798.089 2257.97 2805.23 2282.041 2814.05 2305.541 C 2836.13 2363.361 2854.55 2422.861 2877.53 2480.451 C 2909.37 2497.411 2944.45 2508.092 2977.51 2521.742 C 3005.41 2530.452 3034.001 2537.351 3063.001 2541.161 C 3071.321 2541.881 3080.931 2546.332 3088.531 2541.792 C 3067.021 2416.562 3067.141 2288.892 3068.131 2162.222 C 3074.311 1980.612 3090.141 1796.732 3145.651 1622.742 C 3146.421 1620.262 3146.951 1617.711 3147.971 1615.331 C 3150.491 1484.521 3148.281 1352.391 3149.031 1221.081 C 3068.621 1218.531 2994.721 1173.402 2945.611 1111.421 C 2874.811 1021.721 2875.511 884.571 2948.011 796.021 C 2995.521 735.051 3071.681 697.74 3149.031 697.93 C 3149.351 648.35 3148.27 598.731 3149.61 549.17 C 3145.33 548.55 3140.98 548.44 3136.71 548.07 C 3135.45 547.99 3134.191 547.92 3132.951 547.87 C 3011.091 542.92 2890.631 508.161 2784.181 448.811 L 2784.2 448.79 Z" fill="#f9f9f9" transform="matrix(1, 0, 0, 1, -1554.4687963267784, -1263.925696847607)"/>
  <path id="path10" d="m3136.7 548.05c132.45 5.24 265.93-29.73 379.39-98.2 40.79 77.71 72.18 160.27 96.52 244.55 54.79 191.97 70.58 392.57 75.69 591.26 6.58 137.37-13.45 274.34-37.37 409.3-33.82 180.55-83.93 357.64-139.11 532.71-8.97 27.26-18.2 54.45-26.92 81.8-21.81 57.08-39.14 116.12-63.18 172.3-31.83 15.8-65.62 27.32-98.61 40.06-27.5 7.61-55.15 14.93-83.43 19.06-9.99 0.31-20.26 4.38-30.07 1.97 20.52-128.4 22.89-258.97 20.3-388.67-6.13-181.92-23.34-365.92-79.93-539.87-0.51 0.25-1.53 0.76-2.04 1.01 2.52-130.81 0.31-262.94 1.06-394.25 79.6 4.51 159.58-31.59 210.01-93.07 63.99-75.33 77.45-188.74 32.99-276.99-45.23-89.49-141.43-154.21-242.98-153.11 0.32-49.58-0.76-99.2 0.58-148.76-4.28-0.62-8.63-0.73-12.9-1.1z" fill="#e8e8e8" transform="matrix(1, 0, 0, 1, -1554.4687963267784, -1263.925696847607)"/>
  <path id="path30" d="M 2591.644 1844.404 C 2596.83 1842.187 2603.163 1845.629 2603.174 1851.509 C 2606.889 1874.503 2600.352 1897.213 2595.44 1919.487 C 2583.869 1963.784 2568.481 2007.241 2547.977 2048.249 C 2530.469 2085.026 2517.385 2123.787 2498.709 2160.008 C 2495.522 2165.412 2488.569 2177.415 2481.414 2170.776 C 2464.239 2136.903 2468.797 2096.826 2477.648 2061.122 C 2493.238 2000.642 2519.334 1943.301 2549.257 1888.631 C 2561.214 1872.306 2573.302 1854.09 2591.644 1844.404 Z" style="fill: rgb(138, 105, 242);" transform="matrix(1, 0, 0, 1, -1554.4687963267784, -1263.925696847607)"/>
  <path id="path32" d="m2786.8 2226.4c-0.5227 0-1.1275 0.6559-1.8875 2.3734-75.8 110.67-144.81 227.76-189.33 354.82-11.44 34.84-21.02 70.51-24.85 107.07 81.89-127.02 160.64-258.07 243.25-385.15-8.82-23.5-15.961-47.571-22.791-71.691-2.0025-1.41-2.8242-7.4098-4.3922-7.4234zm724.98 1.2437c-8.97 27.26-18.2 54.45-26.92 81.8 0.99 0.77 2.0703 1.4791 3.0203 2.3891 80.32 126.09 159.14 254.4 239.32 379.82-10.77-84.36-44.15-163.78-81.4-239.51-38.99-78.04-84.51-152.71-134.02-224.5z" style="fill: rgb(87, 67, 170);" transform="matrix(1, 0, 0, 1, -1554.4687963267784, -1263.925696847607)"/>
  <ellipse style="paint-order: fill; stroke: rgb(67, 67, 67); stroke-width: 46px; fill: rgb(112, 76, 241);" cx="3154.4" cy="995.566" rx="296.826" ry="296.826" transform="matrix(1, 0, 0, 1, -1554.4687963267784, -1263.925696847607)"/>
</svg>