<?xml version="1.0" encoding="utf-8"?>
<svg viewBox="1333.0002 1257.7743 538.1938 999.3208" xmlns="http://www.w3.org/2000/svg">
  <g transform="matrix(1.006445050239563, 0, 0, 1, -1574.3577625262053, -1263.9256968476075)">
    <path id="path36" d="M 2978.494 2521.7 C 3006.394 2530.41 3034.984 2537.31 3063.984 2541.12 C 3029.914 2596 3018.164 2661.84 3019.234 2725.67 C 3023.994 2858.4 3079.314 2983.72 3148.754 3094.83 C 3149.424 3095.94 3150.114 3097.09 3150.794 3098.29 C 3149.084 3239.08 3150.294 3379.99 3150.194 3520.84 C 3073.194 3411.89 3006.874 3293.04 2957.724 3168.24 C 2905.874 3033.68 2876.534 2888.71 2893.614 2745.63 C 2904.964 2666.74 2928.484 2585.34 2978.494 2521.7 L 2978.494 2521.7 Z" fill="#eb9d21"/>
    <path id="path38" d="M 3238.891 2540.9 C 3267.171 2536.77 3294.821 2529.45 3322.321 2521.84 C 3387.471 2607.28 3421.461 2714.86 3423.251 2821.96 C 3427.311 2973.34 3378.611 3120.73 3313.601 3255.38 C 3268.701 3348.31 3214.571 3436.88 3152.681 3519.51 C 3151.911 3521.22 3149.961 3521.13 3148.391 3520.89 C 3148.491 3380.04 3147.281 3239.13 3148.991 3098.34 C 3212.961 3004.08 3263.861 2898.49 3282.581 2785.39 C 3297.331 2702.18 3286.011 2612.37 3238.891 2540.9 Z" fill="#d3891e"/>
    <path id="path40" d="M 3063.717 2541.2 C 3072.037 2541.92 3081.647 2546.37 3089.247 2541.83 C 3100.697 2600.49 3110.587 2663.96 3147.917 2712.4 C 3148.037 2713.01 3148.287 2714.23 3148.407 2714.84 C 3149.027 2841.51 3148.867 2968.22 3148.487 3094.91 C 3079.047 2983.8 3023.727 2858.48 3018.967 2725.75 C 3017.897 2661.92 3029.647 2596.08 3063.717 2541.2 L 3063.717 2541.2 Z" fill="#faee1e"/>
    <path id="path42" d="M 3208.605 2542.9 C 3218.506 2545.31 3228.871 2541.24 3238.953 2540.93 C 3286.51 2612.4 3297.935 2702.21 3283.048 2785.42 C 3264.155 2898.52 3212.783 3004.11 3148.221 3098.37 C 3147.534 3097.17 3146.838 3096.02 3146.162 3094.91 C 3146.545 2968.22 3146.707 2841.51 3146.081 2714.84 C 3148.392 2715.57 3149.623 2713.72 3150.713 2712.05 C 3186.038 2662.6 3197.362 2601.24 3208.605 2542.9 Z" fill="#decf1e"/>
  </g>
</svg>