<svg enable-background="new 0 0 210 210" height="512" viewBox="0 0 210 210" width="512" xmlns="http://www.w3.org/2000/svg"><g id="圖層_1"><path d="m151.7 58.3-46.7-30.3-46.7 30.3-30.3 46.7 30.3 46.7 46.7 30.3 46.7-30.3 30.3-46.7z" fill="#cc2b4e"/><path d="m105 141.3v40.7l15-37.4z" fill="#b2001a"/><path d="m127 127-7 17.6 31.7 7.1-7.1-31.7z" fill="#c01d3b"/><g fill="#d32"><path d="m144.6 120 37.4-15h-40.7z"/><path d="m105 68.7v-40.7l15 37.4z"/><path d="m127 83-7-17.6 31.7-7.1-7.1 31.7z"/><path d="m144.6 90 37.4 15h-40.7z"/></g><path d="m28 105 37.4 15-7.1 31.7z" fill="#840023"/><path d="m105 182-46.7-30.3 31.7-7.1z" fill="#840023"/><path d="m105 182-15-37.4 15-3.3z" fill="#b2001a"/><path d="m83 127 7 17.6-31.7 7.1 7.1-31.7z" fill="#b2001a"/><path d="m28 105h40.7l-3.3 15z" fill="#b2001a"/><path d="m105 28-15 37.4 15 3.3z" fill="#d32"/><path d="m83 83 7-17.6-31.7-7.1 7.1 31.7z" fill="#840023"/><path d="m28 105h40.7l-3.3-15z" fill="#b2001a"/><path d="m127 83-22-14.3 36.3 36.3z" fill="#fefefe"/><path d="m105 68.7-22 14.3-14.3 22 14.3 22 22 14.3 22-14.3 14.3-22z" fill="#d32"/></g></svg>