<?xml version="1.0" encoding="UTF-8" standalone="no" ?>
<svg xmlns="http://www.w3.org/2000/svg" xmlns:xlink="http://www.w3.org/1999/xlink" version="1.1" width="512" height="512" viewBox="0 0 512 512" xml:space="preserve">
<desc>Created with Fabric.js 5.2.4</desc>
<defs>
</defs>
<g transform="matrix(1 0 0 1 256 256)" id="7486c3cb-a0c7-4dbb-a214-c787c256a834"  >
<rect style="stroke: none; stroke-width: 1; stroke-dasharray: none; stroke-linecap: butt; stroke-dashoffset: 0; stroke-linejoin: miter; stroke-miterlimit: 4; fill: rgb(255,255,255); fill-rule: nonzero; opacity: 1; visibility: hidden;" vector-effect="non-scaling-stroke"  x="-256" y="-256" rx="0" ry="0" width="512" height="512" />
</g>
<g transform="matrix(0 0 0 0 0 0)" id="cd6ab028-2af1-4625-a2d9-c3887530b0db"  >
</g>
<g transform="matrix(-0.12 -1.86 1.86 -0.12 23.71 51.9)"  >
<g style="">
		<g transform="matrix(10.67 0 0 10.67 -117.03 117.46)"  >
<path style="stroke: none; stroke-width: 1; stroke-dasharray: none; stroke-linecap: butt; stroke-dashoffset: 0; stroke-linejoin: miter; stroke-miterlimit: 4; fill: rgb(178,229,251); fill-rule: nonzero; opacity: 1;" vector-effect="non-scaling-stroke"  transform=" translate(-13, -35.01)" d="M 25 35 C 25 46.53 10.24 51.4 3.3500000000000014 42.15 C 0.25393505584171283 37.96133084584581 0.2135522488359647 32.25365650224432 3.2500390564672976 28.021598458161094 C 6.28652586409863 23.789540414077873 11.706422709940167 21.999597575843833 16.666095114262205 23.590891723138753 C 21.625767518584247 25.182185870433674 24.992547189835687 29.79130420575079 25 34.99999999999999 z" stroke-linecap="round" />
</g>
		<g transform="matrix(10.67 0 0 10.67 -130.63 103.85)"  >
<path style="stroke: none; stroke-width: 1; stroke-dasharray: none; stroke-linecap: butt; stroke-dashoffset: 0; stroke-linejoin: miter; stroke-miterlimit: 4; fill: rgb(159,219,243); fill-rule: nonzero; opacity: 1;" vector-effect="non-scaling-stroke"  transform=" translate(-11.72, -33.73)" d="M 22.5 32.5 C 22.504803832685234 37.0363183928519 19.95116210542725 41.187606481181675 15.900119446484837 43.228993512972494 C 11.849076787542426 45.27038054476332 6.993154253679881 44.852893768173146 3.3500000000000085 42.150000000000006 C -0.2330827115443297 37.372556384607556 0.24201515428596743 30.687422097236897 4.4647186257614315 26.46471862576143 C 8.687422097236896 22.242015154285966 15.372556384607556 21.766917288455666 20.15 25.349999999999998 C 21.67980577967381 27.41966078341716 22.50367539811796 29.926327920385532 22.500000000000004 32.499999999999986 z" stroke-linecap="round" />
</g>
		<g transform="matrix(10.67 0 0 10.67 -74.34 165.32)"  >
<path style="stroke: none; stroke-width: 1; stroke-dasharray: none; stroke-linecap: butt; stroke-dashoffset: 0; stroke-linejoin: miter; stroke-miterlimit: 4; fill: rgb(237,235,242); fill-rule: nonzero; opacity: 1;" vector-effect="non-scaling-stroke"  transform=" translate(-17, -39.5)" d="M 13 44 C 12.447715250169207 44 12 43.5522847498308 12 43 C 12 42.4477152501692 12.447715250169207 42 13 42 C 16.546880373256716 42.02812597027938 19.554203962968504 39.39886591755993 20 35.88 C 20.066274169979696 35.327715250169206 20.567715250169208 34.93372583002031 21.12 35.00000000000001 C 21.672284749830794 35.0662741699797 22.066274169979696 35.56771525016921 22 36.120000000000005 C 21.432141035843 40.64879681255807 17.564121686984272 44.03546264244771 13 44.00000000000001 z" stroke-linecap="round" />
</g>
		<g transform="matrix(10.67 0 0 10.67 160.29 10.91)"  >
<path style="stroke: none; stroke-width: 1; stroke-dasharray: none; stroke-linecap: butt; stroke-dashoffset: 0; stroke-linejoin: miter; stroke-miterlimit: 4; fill: rgb(178,229,251); fill-rule: nonzero; opacity: 1;" vector-effect="non-scaling-stroke"  transform=" translate(-39, -25.02)" d="M 47 25 C 47.008139267493924 28.449515527839456 44.804264413164105 31.515798361177488 41.532078852056735 32.60759746273476 C 38.25989329094936 33.69939656429203 34.65635850815047 32.57081698945941 32.591533064030585 29.807536419232065 C 30.526707619910695 27.044255849004724 30.46563140824254 23.2686202092827 32.44 20.439999999999998 C 34.4376864380121 17.577972993512258 38.06026249946591 16.341388073254116 41.39099862504678 17.38453070599098 C 44.72173475062765 18.427673338727843 46.991764605476476 21.50974472727857 47 24.999999999999993 z" stroke-linecap="round" />
</g>
		<g transform="matrix(10.67 0 0 10.67 149.69 21.44)"  >
<path style="stroke: none; stroke-width: 1; stroke-dasharray: none; stroke-linecap: butt; stroke-dashoffset: 0; stroke-linejoin: miter; stroke-miterlimit: 4; fill: rgb(159,219,243); fill-rule: nonzero; opacity: 1;" vector-effect="non-scaling-stroke"  transform=" translate(-38.01, -26.01)" d="M 45 27 C 45.00458760617607 28.63256589985299 44.50135011882545 30.22615127646327 43.56 31.559999999999995 C 42.22615127646328 32.50135011882545 40.63256589985299 33.00458760617607 39 33 C 36.025425615814456 32.995110522300244 33.29916920351014 31.34024264002359 31.922082617207717 28.703625639420174 C 30.544996030905295 26.06700863881676 30.744486291884336 22.88404376794625 32.44 20.44 C 34.884043767946245 18.744486291884336 38.06700863881676 18.544996030905295 40.703625639420174 19.922082617207717 C 43.34024264002359 21.29916920351014 44.995110522300244 24.025425615814456 45 27 z" stroke-linecap="round" />
</g>
		<g transform="matrix(10.67 0 0 10.67 187.1 -15.98)"  >
<path style="stroke: none; stroke-width: 1; stroke-dasharray: none; stroke-linecap: butt; stroke-dashoffset: 0; stroke-linejoin: miter; stroke-miterlimit: 4; fill: rgb(237,235,242); fill-rule: nonzero; opacity: 1;" vector-effect="non-scaling-stroke"  transform=" translate(-41.51, -22.5)" d="M 44 26 C 43.4477152501692 26 43 25.552284749830793 43 25 C 43 22.790861000676827 41.20913899932317 21 39 21 C 38.4477152501692 21 38 20.552284749830793 38 20 C 38 19.447715250169207 38.4477152501692 19 39 19 C 44.519999999999996 19 46.41 26 44 26 z" stroke-linecap="round" />
</g>
		<g transform="matrix(10.67 0 0 10.67 0.29 -181.3)"  >
<path style="stroke: none; stroke-width: 1; stroke-dasharray: none; stroke-linecap: butt; stroke-dashoffset: 0; stroke-linejoin: miter; stroke-miterlimit: 4; fill: rgb(178,229,251); fill-rule: nonzero; opacity: 1;" vector-effect="non-scaling-stroke"  transform=" translate(-24, -7)" d="M 30 7 C 30 10.313708498984761 27.31370849898476 13 24 13 C 20.68629150101524 13 18 10.313708498984761 18 7 C 18 3.6862915010152393 20.68629150101524 1 24 1 C 27.31370849898476 1 30 3.6862915010152375 30 6.999999999999998 z" stroke-linecap="round" />
</g>
		<g transform="matrix(10.67 0 0 10.67 10.92 -170.61)"  >
<path style="stroke: none; stroke-width: 1; stroke-dasharray: none; stroke-linecap: butt; stroke-dashoffset: 0; stroke-linejoin: miter; stroke-miterlimit: 4; fill: rgb(159,219,243); fill-rule: nonzero; opacity: 1;" vector-effect="non-scaling-stroke"  transform=" translate(-25, -8)" d="M 20.88 12.12 C 17.599999999999998 6.799999999999999 23.81 0.6099999999999994 29.119999999999997 3.879999999999999 C 32.379999999999995 9.18 26.22 15.409999999999998 20.879999999999995 12.12 z" stroke-linecap="round" />
</g>
		<g transform="matrix(10.67 0 0 10.67 -15.74 -197.31)"  >
<path style="stroke: none; stroke-width: 1; stroke-dasharray: none; stroke-linecap: butt; stroke-dashoffset: 0; stroke-linejoin: miter; stroke-miterlimit: 4; fill: rgb(237,235,242); fill-rule: nonzero; opacity: 1;" vector-effect="non-scaling-stroke"  transform=" translate(-22.5, -5.5)" d="M 21 8 C 18.9 8 20.19 3 24 3 C 24.552284749830793 3 25 3.4477152501692063 25 4 C 25 4.552284749830793 24.552284749830793 5 24 5 C 22.895430500338414 5 22 5.8954305003384135 22 7 C 22 7.552284749830793 21.552284749830793 8 21 8 z" stroke-linecap="round" />
</g>
		<g transform="matrix(10.67 0 0 10.67 -170.39 -117.21)"  >
<path style="stroke: none; stroke-width: 1; stroke-dasharray: none; stroke-linecap: butt; stroke-dashoffset: 0; stroke-linejoin: miter; stroke-miterlimit: 4; fill: rgb(178,229,251); fill-rule: nonzero; opacity: 1;" vector-effect="non-scaling-stroke"  transform=" translate(-8, -13.01)" d="M 12 13 C 12.004069633746964 14.724757763919728 10.902132206582056 16.257899180588744 9.266039426028371 16.80379873136738 C 7.629946645474683 17.349698282146015 5.828179254075235 16.785408494729708 4.795766532015291 15.403768209616036 C 3.7633538099553476 14.022127924502364 3.73281570412127 12.13431010464135 4.719999999999999 10.72 C 5.718843219006051 9.28898649675613 7.530131249732956 8.670694036627058 9.195499312523392 9.192265352995491 C 10.860867375313827 9.713836669363925 11.995882302738242 11.254872363639288 12 13.000000000000002 z" stroke-linecap="round" />
</g>
		<g transform="matrix(10.67 0 0 10.67 -175.72 -111.98)"  >
<path style="stroke: none; stroke-width: 1; stroke-dasharray: none; stroke-linecap: butt; stroke-dashoffset: 0; stroke-linejoin: miter; stroke-miterlimit: 4; fill: rgb(159,219,243); fill-rule: nonzero; opacity: 1;" vector-effect="non-scaling-stroke"  transform=" translate(-7.5, -13.5)" d="M 10.28 16.28 C 8.691393526393218 17.367020238302306 6.55384327999554 17.168392391824288 5.192725444085627 15.807274555914375 C 3.831607608175714 14.446156720004462 3.6329797616976958 12.308606473606785 4.719999999999999 10.720000000000002 C 6.308606473606781 9.632979761697698 8.446156720004454 9.831607608175714 9.807274555914368 11.192725444085626 C 11.168392391824284 12.553843279995538 11.367020238302302 14.691393526393213 10.280000000000001 16.279999999999998 z" stroke-linecap="round" />
</g>
</g>
</g>
</svg>