<?xml version="1.0" encoding="utf-8"?>
<svg viewBox="0 0 326.726 344.375" xmlns="http://www.w3.org/2000/svg">
  <path d="M 193.098 -49.612 C 181.185 -40.059 170.926 -28.004 164.13 -14.031 C 172.593 -9.132 182.168 -6.264 191.856 -5.854 C 192.305 -5.912 192.779 -5.877 193.215 -6.026 C 193.212 -20.548 193.207 -35.07 193.217 -49.592 L 193.098 -49.612 Z M 193.029 82.724 C 192.964 82.726 192.912 82.802 192.864 82.87 C 188.451 97.231 187.192 112.409 186.701 127.401 C 186.623 137.856 186.613 148.395 188.323 158.732 C 189.233 163.574 190.019 168.813 192.987 172.812 C 193.217 172.444 193.092 171.955 193.138 171.552 C 193.12 141.961 193.144 112.369 193.126 82.776 C 193.09 82.737 193.058 82.722 193.029 82.723 L 193.029 82.724 Z M 153.019 88.951 C 146.805 95.638 141.58 103.407 138.074 111.982 C 135.567 118.374 133.659 125.274 134.323 132.237 C 134.809 141.3 135.492 150.363 136.744 159.353 C 137.297 162.871 137.82 166.429 139.019 169.785 C 139.463 170.891 139.95 172.245 141.201 172.554 C 143.207 173.24 146.059 173.221 147.165 171.023 C 147.469 168.005 148.231 165.061 149.141 162.185 C 152.68 151.697 158.166 142.032 164.192 132.897 C 164.433 132.329 164.478 133.158 164.691 133.313 C 161.066 119.177 157.296 105.079 153.692 90.937 C 153.218 90.43 153.339 89.405 153.019 88.951 Z M 148.993 101.192 C 149.334 101.178 149.661 101.437 149.662 101.826 C 149.953 103.701 149.441 105.554 149.056 107.37 C 148.15 110.983 146.944 114.528 145.339 117.873 C 143.968 120.872 142.943 124.034 141.481 126.988 C 141.23 127.429 140.686 128.407 140.126 127.866 C 138.78 125.103 139.138 121.835 139.831 118.923 C 141.051 113.989 143.096 109.313 145.439 104.854 C 146.375 103.522 147.322 102.036 148.759 101.246 C 148.833 101.214 148.912 101.195 148.993 101.191 L 148.993 101.192 Z" style="fill: rgb(58, 131, 205); transform-origin: 163.704px 61.67px;" transform="matrix(0, 1, -1, 0, 0.000019073486, -0.000011444092)"/>
  <path d="M 134.963 8.49 C 134.952 23.012 134.958 37.534 134.961 52.056 C 134.524 52.205 134.051 52.169 133.602 52.227 C 133.701 52.231 133.801 52.237 133.901 52.243 C 144.423 52.676 155.028 49.79 164.041 44.138 C 157.146 30.152 146.969 17.966 134.965 8.49 L 134.963 8.49 Z M 134.956 140.256 C 134.915 140.276 134.834 140.318 134.794 140.339 C 134.713 140.536 134.67 140.746 134.61 140.951 C 134.68 140.853 134.757 140.736 134.872 140.858 C 134.89 170.45 134.866 200.043 134.884 229.635 C 134.837 230.038 134.963 230.527 134.733 230.895 C 134.742 230.945 134.762 231.046 134.772 231.097 C 134.954 231.157 135.051 231.004 135.136 230.866 C 137.917 226.784 138.808 221.719 139.693 216.903 C 141.323 206.305 141.511 195.527 141.306 184.821 C 140.819 169.804 139.451 154.616 134.956 140.257 L 134.956 140.256 Z M 174.754 146.912 C 172.067 161.816 168.086 176.434 163.703 190.885 C 167.636 196.81 171.252 202.974 174.349 209.416 C 177.309 215.667 179.961 222.222 180.817 229.186 C 181.366 230.456 182.899 230.958 184.146 231.025 C 185.57 230.875 187.474 230.874 188.2 229.309 C 189.243 227.32 189.721 225.078 190.198 222.883 C 192.385 211.303 193.038 199.491 193.71 187.738 C 193.714 184.867 193.28 182.015 192.69 179.218 C 189.903 166.937 183.162 155.865 174.754 146.912 Z" style="fill: rgb(54, 121, 180); transform-origin: 163.655px 119.8px;" transform="matrix(0, 1, -1, 0, 0.000015258789, -0.000019073486)"/>
  <path d="M 144.65 -16.099 C 137.627 -2.07 133.998 13.543 132.363 29.193 C 131.499 37.194 134.323 88.116 134.219 88.871 C 137.821 103.014 141.587 117.111 145.21 131.248 C 145.753 133.239 146.321 135.225 147.021 137.166 C 148.775 141.938 150.239 146.85 152.064 151.603 C 154.594 153.004 157.381 153.885 160.007 155.012 C 162.224 155.731 164.495 156.3 166.799 156.615 C 167.46 156.675 168.223 157.042 168.827 156.667 C 167.119 146.33 167.128 135.792 167.206 125.335 C 167.698 110.345 168.955 95.166 173.365 80.804 C 173.427 80.599 173.469 80.389 173.549 80.192 C 173.75 69.395 173.574 58.488 173.634 47.649 C 167.246 47.439 161.375 43.713 157.473 38.597 C 151.849 31.193 151.904 19.872 157.664 12.563 C 161.438 7.53 167.489 4.45 173.634 4.466 C 173.659 0.373 173.573 -3.722 173.68 -7.813 C 173.34 -7.864 172.994 -7.874 172.655 -7.904 C 172.555 -7.911 172.455 -7.916 172.356 -7.921 C 162.675 -8.329 153.105 -11.199 144.648 -16.098 L 144.65 -16.099 Z" fill="#f9f9f9" style="transform-origin: 152.939px 70.367px;" transform="matrix(0, 1, -1, 0, 0, -0.000007629394)"/>
  <path d="M 130.941 33.735 C 141.464 34.167 152.069 31.28 161.082 25.628 C 164.323 32.043 166.817 38.858 168.751 45.815 C 173.103 61.661 174.358 78.219 174.764 94.62 C 175.286 105.959 173.695 117.265 171.795 128.405 C 169.108 143.309 165.127 157.927 160.744 172.378 C 160.03 174.628 159.298 176.872 158.604 179.13 C 156.872 183.842 155.495 188.715 153.585 193.352 C 151.056 194.656 148.372 195.608 145.751 196.659 C 143.566 197.287 141.369 197.891 139.123 198.232 C 138.329 198.258 137.513 198.594 136.734 198.395 C 138.365 187.796 138.553 177.018 138.347 166.312 C 137.86 151.296 136.492 136.108 131.997 121.749 C 131.956 121.77 131.875 121.812 131.835 121.833 C 132.034 111.035 131.859 100.128 131.919 89.289 C 138.243 89.662 144.596 86.681 148.603 81.607 C 153.687 75.389 154.756 66.027 151.224 58.743 C 147.631 51.356 139.988 46.014 131.92 46.104 C 131.946 42.012 131.86 37.916 131.967 33.825 C 131.627 33.774 131.281 33.765 130.941 33.735" fill="#e8e8e8" style="transform-origin: 152.903px 112.043px;" transform="matrix(0, 1, -1, 0, -0.000015258789, 0.000022888184)"/>
  <path d="M 115.023 28.917 C 115.435 28.734 115.938 29.019 115.939 29.504 C 116.234 31.402 115.714 33.276 115.324 35.115 C 114.405 38.771 113.182 42.359 111.554 45.744 C 110.163 48.779 109.123 51.979 107.639 54.968 C 107.386 55.415 106.833 56.406 106.265 55.858 C 104.901 53.062 105.263 49.753 105.966 46.806 C 107.205 41.814 109.278 37.081 111.655 32.568 C 112.605 31.221 113.565 29.717 115.023 28.917" style="fill: rgb(93, 162, 224); transform-origin: 110.684px 42.44px;" transform="matrix(0, 1, -1, 0, -0.000003814697, 0.000011444092)"/>
  <path d="M 44.699 71.854 C 44.657 71.854 44.609 71.908 44.549 72.05 C 38.527 81.185 33.044 90.85 29.508 101.338 C 28.599 104.215 27.838 107.159 27.533 110.176 C 34.039 99.692 40.295 88.875 46.858 78.385 C 46.157 76.445 45.59 74.458 45.047 72.467 C 44.888 72.35 44.823 71.856 44.699 71.854 Z M 102.294 71.957 C 101.582 74.207 100.849 76.452 100.156 78.709 C 100.234 78.773 100.321 78.831 100.396 78.906 C 106.777 89.314 113.039 99.906 119.409 110.258 C 118.553 103.295 115.902 96.739 112.942 90.488 C 109.845 84.046 106.228 77.883 102.294 71.957 Z" style="fill: rgb(43, 101, 144); transform-origin: 73.471px 91.057px;" transform="matrix(0, 1, -1, 0, 0, 0.000007629395)"/>
  <circle style="paint-order: fill; stroke: rgb(67, 67, 67); stroke-width: 46px; fill: rgb(58, 131, 205); transform-origin: 3154.4px 995.566px;" cx="3154.4" cy="995.566" transform="matrix(0, 0.079446017742, -0.082544013858, 0, -2960.127200199716, -904.077881835415)" r="296.826"/>
</svg>