<svg version="1.1" id="Capa_1" xmlns="http://www.w3.org/2000/svg"
	xmlns:xlink="http://www.w3.org/1999/xlink" x="0px" y="0px"
	viewBox="0 0 372.5 542.8" style="enable-background:new 0 0 372.5 542.8;" xml:space="preserve">
	<path fill="#E5E1E5" d="M142.9,227.2l16.7,315.6h47.2l16.7-315.6L142.9,227.2z"/>
	<path fill="#E5E1E5" d="M312.6,68.7c-4-0.9-7.3-4.4-8.8-9.2C293.8,24.8,266.8,0,235,0c-30.5,0-56.6,22.9-67.5,55.5
		c-2,6-8.2,8.3-12.5,4.4c-11.5-10-25.3-15.7-40.1-15.7c-38.2,0-69.1,37.9-69.1,84.7v34c0,4.6-2.7,8.5-6.5,9.3
		C17,177,0,200.9,0,229.8c0,32.2,21.3,58.5,47.7,58.5h113.5c0,0,31.6-3.9,57-7.4c10.2,13.7,24.9,22.4,41.1,22.4
		c25.7,0,47.4-21.5,53.6-50.7c1-4.8,3.9-8.5,7.8-9.9c30-11.1,51.9-45.3,51.9-85.6C372.4,112.7,346.5,76.3,312.6,68.7L312.6,68.7z"/>
	<path fill="#D7D0D6" d="M372.4,156.7c0-43.9-25.9-80.3-59.8-87.9c-4-0.9-7.3-4.4-8.8-9.2c-10-34.6-37-59.4-68.8-59.4
		c-19.4,0-37.1,9.3-50.1,24.7c151,37.9,109.6,214,60.5,276.1c4.5,1.4,9.1,2.1,13.8,2.1c25.7,0,47.4-21.5,53.6-50.7
		c1-4.8,3.9-8.5,7.8-9.9c30-11.1,51.9-45.3,51.9-85.6C372.4,112.7,346.5,76.3,312.6,68.7L312.6,68.7z"/>
	<path fill="#D7D0D6" d="M111.8,212.7c-4.9,0-9.5-4.1-10.8-10.2c-6.8-32.8,9.3-66.2,36.2-74.7c15.9-4.9,33,0,45.4,13.4
		c4.6,4.9,5,13.6,1,19.2c-4,5.6-11.1,6.2-15.7,1.2c-6.9-7.4-16.4-10.2-25.3-7.4c-14.9,4.6-24,23.2-20.1,41.6c1.6,7.2-2,14.6-8,16.6
		C113.6,212.7,112.8,212.7,111.8,212.7L111.8,212.7z"/>
</svg>