<svg id="Icon" enable-background="new 100 -100 300 300" height="512" viewBox="100 -100 300 300" width="512" xmlns="http://www.w3.org/2000/svg"><g id="XMLID_114_"><path id="XMLID_17_" d="m281.3 92.6-43.2-6.3-19.3-39.1c-3.8-7.7-14.9-7.7-18.7 0l-19.3 39.1-43.2 6.3c-8.6 1.2-12 11.8-5.8 17.8l31.2 30.4-7.4 43c-1.5 8.5 7.5 15 15.1 11l38.6-20.3 38.6 20.3c7.6 4 16.6-2.5 15.1-11l-7.4-43 31.2-30.4c6.5-6.1 3.1-16.6-5.5-17.8z" fill="#f5c003"/><path id="XMLID_96_" d="m174 36.9-7.4-1.1-3.3-6.7c-.7-1.3-2.6-1.3-3.2 0l-3.3 6.7-7.4 1.1c-1.5.2-2.1 2-1 3.1l5.4 5.2-1.3 7.4c-.3 1.5 1.3 2.6 2.6 1.9l6.7-3.5 6.7 3.5c1.3.7 2.9-.4 2.6-1.9l-1.3-7.4 5.4-5.2c.9-1.1.3-2.9-1.2-3.1z" fill="#f5c003"/><path id="XMLID_97_" d="m292.6 178.2-4.4-.6-2-4c-.4-.8-1.5-.8-1.9 0l-2 4-4.4.6c-.9.1-1.2 1.2-.6 1.8l3.2 3.1-.8 4.4c-.1.9.8 1.5 1.5 1.1l3.9-2.1 3.9 2.1c.8.4 1.7-.3 1.5-1.1l-.8-4.4 3.2-3.1c1-.6.6-1.7-.3-1.8z" fill="#f3b007"/><path id="XMLID_98_" d="m321.9 139.9-7.4-1.1-3.3-6.7c-.7-1.3-2.6-1.3-3.2 0l-3.3 6.7-7.4 1.1c-1.5.2-2.1 2-1 3.1l5.4 5.2-1.3 7.4c-.3 1.5 1.3 2.6 2.6 1.9l6.7-3.5 6.7 3.5c1.3.7 2.9-.4 2.6-1.9l-1.3-7.4 5.4-5.2c.9-1.1.3-2.9-1.2-3.1z" fill="#f5c003"/><path id="XMLID_1_" d="m282.1 92.7c-16.4 40.1-55.8 68.4-101.8 68.4-7 0-13.8-.7-20.4-1.9l-4.2 24.6c-1.5 8.5 7.5 15 15.1 11l38.6-20.3 38.6 20.3c7.6 4 16.6-2.5 15.1-11l-7.4-43 31.2-30.4c6.2-5.9 3.1-15.9-4.8-17.7z" fill="#f3b007"/><g id="XMLID_99_" fill="#f5c003"><path id="XMLID_100_" d="m366.9-95.1-123 150.1c-1.7 2.1-2 4.9-.8 7.3l3.5 7c1 2 2.9 3.4 5.1 3.7l7.8 1.1c2.6.4 5.3-.8 6.7-3.1l104.6-163.2c1.7-2.6-2-5.3-3.9-2.9z"/><path id="XMLID_129_" d="m359.8-13.3-60.5 83.2c-3 4.1-.5 10 4.5 10.7 2.7.4 5.4-.9 6.8-3.3l52.5-88.5c1.3-2.1-1.8-4.1-3.3-2.1z"/><path id="XMLID_130_" d="m292.1-62.7-67.9 77.2c-1.8 2.1-2.2 5-1 7.5 2.3 4.6 8.6 5.1 11.6 1l60.5-83.2c1.4-2-1.5-4.4-3.2-2.5z"/></g></g></svg>