<?xml version="1.0" encoding="utf-8"?>
<svg viewBox="0 0 326.726 344.375" xmlns="http://www.w3.org/2000/svg">
  <g id="Calque_2" data-name="Calque 2" transform="matrix(-0.8328540325164795, 0, 0, 0.8142009973526001, 299.4205627441406, 31.99226570129394)" style="">
    <g id="_44-_Submarine" data-name="44- Submarine">
      <path d="m313.663 191.373 -57.728 -41.117 -6.442 -4.587s24.425 -40.435 50.595 -45.711c5.009 -1.01 8.602 1.721 11.133 6.791 10.68 21.42 2.441 84.624 2.441 84.624" fill="#3e3e7a"/>
      <path d="M311.222 106.749c-4.565 -0.891 -8.513 1.7 -8.513 1.7 -30.081 18.213 -39.054 41.696 -39.054 41.696a29.45 29.45 0 0 1 -7.719 0.111l-6.442 -4.587s24.425 -40.435 50.595 -45.711c5.009 -1.01 8.602 1.721 11.133 6.791" fill="#2c2c61"/>
      <path d="M303.147 333.666c-2.932 4.416 -6.642 6.546 -11.333 5.143 -21.546 -6.465 -39.551 -37.673 -44.687 -47.329 -0.95 -1.803 -1.462 -2.858 -1.462 -2.858l68.11 -39.588s2.412 64.971 -10.629 84.632" fill="#3e3e7a"/>
      <path d="M303.147 333.666c-2.932 4.416 -6.642 6.546 -11.333 5.143 -21.546 -6.465 -39.551 -37.673 -44.687 -47.329a35.245 35.245 0 0 1 13.047 -6.004s6.761 24.21 35.031 45.125c0 0 2.709 2.19 7.941 3.066" fill="#2c2c61"/>
      <path d="M326.726 219.547c0 53.148 -103.008 107.179 -182.2 107.402a150.67 150.67 0 0 1 -22.837 -1.588c-43.671 -6.583 -79.963 -47.374 -79.963 -105.814s36.137 -100.359 79.963 -105.821c86.658 -10.799 174.674 31.305 198.669 80.193 4.134 8.416 6.368 17.041 6.368 25.628" fill="#a4a4f7"/>
      <path d="M326.726 219.547c0 53.148 -103.008 107.179 -182.2 107.402 8.372 -15.623 22.985 -33.725 43.143 -52.822 0 0 75.377 -17.672 132.688 -80.209 4.134 8.416 6.368 17.041 6.368 25.628" fill="#8888e8"/>
      <path cx="365.175" cy="287.997" fill="#3e3e7a" rx="50.44" ry="66.143" d="M308.464 213.748a37.436 49.09 0 0 1 -37.436 49.09 37.436 49.09 0 0 1 -37.436 -49.09 37.436 49.09 0 0 1 74.871 0"/>
      <path d="M298.404 213.75c0 19.824 -12.261 35.892 -27.379 35.892a21.185 21.185 0 0 1 -5.047 -0.609c-12.706 -3.103 -22.325 -17.723 -22.325 -35.284 0 -17.575 9.626 -32.203 22.347 -35.291a20.9 20.9 0 0 1 5.025 -0.609c15.118 0 27.379 16.076 27.379 35.9" fill="#2c2c61"/>
      <path d="M288.347 213.75c0 17.575 -9.634 32.189 -22.347 35.284h-0.022c-12.706 -3.103 -22.325 -17.723 -22.325 -35.284 0 -17.575 9.626 -32.203 22.347 -35.291 12.714 3.095 22.347 17.716 22.347 35.291" fill="#6fe1ff"/>
      <path d="M228.856 88.923v43.013s-14.391 11.348 -39.88 11.348l-35.632 -40.401 -6.861 -18.473z" fill="#8888e8"/>
      <path cx="244.354" cy="119.812" fill="#a4a4f7" rx="63.999" ry="14.222" d="M228.856 88.923a47.499 10.555 0 0 1 -47.499 10.555 47.499 10.555 0 0 1 -47.5 -10.555 47.499 10.555 0 0 1 94.999 0"/>
      <path d="M200.717 39.774v49.147s-12.165 4.906 -28.5 1.982a58.9 58.9 0 0 1 -7.912 -1.982V41.956h-23.557L128.279 5.136h37.807a34.63 34.63 0 0 1 34.63 34.638" fill="#3e3e7a"/>
      <path d="M172.217 41.956v48.947a58.9 58.9 0 0 1 -7.912 -1.982V41.956z" fill="#2c2c61"/>
      <path cx="170.006" cy="291.906" fill="#3e3e7a" rx="111.516" ry="172.094" d="M208.942 216.649A82.766 127.726 0 0 1 126.176 344.375a82.766 127.726 0 0 1 -82.766 -127.726 82.766 127.726 0 0 1 165.532 0"/>
      <path d="M177.049 217.149c0 58.061 -28.515 105.123 -81.359 105.123a87.4 87.4 0 0 1 -9.708 -0.535C37.696 316.395 0 271.611 0 217.149c0 -58.061 42.847 -105.131 95.691 -105.131A82.08 82.08 0 0 1 108.857 113.05c44.397 7.191 68.192 51.063 68.192 104.099" fill="#6fe1ff"/>
      <path d="M145.875 49.875c8.858 0 16.04 -11.164 16.04 -24.938S154.733 0 145.875 0h-19.184v49.875z" fill="#a4a4f7"/>
      <path d="M142.73 24.938c0 13.775 -7.177 24.938 -16.039 24.938 -5.885 0 -11.029 -4.929 -13.812 -12.268a35.72 35.72 0 0 1 -2.227 -12.669c0 -13.775 7.177 -24.938 16.039 -24.938 5.225 0 9.864 3.882 12.788 9.886a34.675 34.675 0 0 1 3.251 15.052" fill="#6fe1ff"/>
      <g fill="#a1edff">
        <path d="M85.983 321.738C37.696 316.395 0 271.611 0 217.149c0 -58.061 42.847 -105.131 95.691 -105.131A82.08 82.08 0 0 1 108.857 113.05C86.754 136.354 11.363 227.688 85.983 321.738"/>
        <path d="M139.479 9.886c-6.947 -0.364 -22.904 1.737 -26.6 27.721a35.72 35.72 0 0 1 -2.227 -12.669c0 -13.775 7.177 -24.938 16.039 -24.938 5.225 0 9.864 3.882 12.788 9.886"/>
      </g>
    </g>
  </g>
</svg>