<svg id="Line" height="512" viewBox="0 0 64 64" width="512" xmlns="http://www.w3.org/2000/svg"><path d="m13.24121 30.32324a4.344 4.344 0 0 0 1.21387 5.88819l1.73633 1.2207a7.29574 7.29574 0 0 1 3.65575 4.458c.81934 2.5952 1.83936 5.82567 4.57911 7.63426 1.11839.889 2.49744 1.70377 2.47461 3.28662l-.002 6.18848a1.00632 1.00632 0 0 0 1 1.00048h16.77983a1 1 0 0 0 1-1v-5.07419a2.85 2.85 0 0 1 .60156-1.77832 23.38506 23.38506 0 0 0 5.14159-13.82373v-7.90478a4.181 4.181 0 0 0 -6.42879-3.47061 4.18192 4.18192 0 0 0 -6.208-2.51611 4.16028 4.16028 0 0 0 -4.11909-3.5875 4.11534 4.11534 0 0 0 -2.14747.59814v-6.32764a4.1607 4.1607 0 0 0 -4.41506-4.13912 4.2095 4.2095 0 0 0 -3.87986 4.25827v16.7749c-1.47754-.99268-3.17675-2.0542-5.07666-3.17188a4.36983 4.36983 0 0 0 -5.90572 1.48584zm11.39942 4.40821a1.00718 1.00718 0 0 0 1.583-.81254v-18.68453a2.14859 2.14859 0 1 1 4.295-.11907v18.70451a1.00019 1.00019 0 0 0 2-.00006v-8.82757a2.15211 2.15211 0 0 1 4.3042 0v8.82763a1.00019 1.00019 0 0 0 2-.00006v-5.86126a2.14747 2.14747 0 0 1 4.29493 0v5.86132a1 1 0 0 0 2 0v-3.40082a2.15241 2.15241 0 0 1 4.30419.00009l.001 7.86612a21.39776 21.39776 0 0 1 -4.70216 12.61035c-1.50933 1.60181-.94664 5.10829-1.04354 7.10444h-14.77637v-5.18848a4.60715 4.60715 0 0 0 -1.38867-3.31052 18.43675 18.43675 0 0 0 -1.94532-1.61914c-2.18652-1.44434-3.05029-4.18018-3.81738-6.60938a9.24832 9.24832 0 0 0 -4.457-5.51074l-1.69482-1.1919a2.3519 2.3519 0 0 1 -.65625-3.19336 2.394 2.394 0 0 1 3.1997-.81054c2.55954 1.50584 4.74656 2.9072 6.49949 4.16551z"/><path d="m29.37109 7.61279v-2.61279a1.00018 1.00018 0 0 0 -2 .00006v2.61273a1.00019 1.00019 0 0 0 2 0z"/><path d="m34.94336 7.188-1.84766 1.84764a.9999.9999 0 1 0 1.41407 1.41407l1.84765-1.84766a1.00008 1.00008 0 0 0 -1.41406-1.41405z"/><path d="m35.1377 15.08936a1.00005 1.00005 0 0 0 1 1h2.61279a1 1 0 0 0 0-2h-2.61279a1 1 0 0 0 -1 1z"/><path d="m23.02441 10.94775a1.00663 1.00663 0 0 0 .707-1.707l-1.84762-1.84768a.99989.99989 0 0 0 -1.41406 1.41406l1.84765 1.84766a.99677.99677 0 0 0 .70703.29296z"/><path d="m17.28174 15.37939a1 1 0 0 0 1 1h2.61279a1 1 0 1 0 0-2h-2.61279a1.00005 1.00005 0 0 0 -1 1z"/></svg>