<svg xmlns="http://www.w3.org/2000/svg" version="1.1" xmlns:xlink="http://www.w3.org/1999/xlink"
    width="512" height="512" x="0" y="0" viewBox="0 0 512 512"
    style="enable-background:new 0 0 512 512" xml:space="preserve" class=""><g><path d="M436 62h-89.022l-9.842-31.023-.067-.208A44.946 44.946 0 0 0 294.377 0h-76.754a44.944 44.944 0 0 0-42.691 30.769l-.067.208L165.022 62H76c-24.813 0-45 20.187-45 45v30c0 8.284 6.716 15 15 15h16.189L88.57 470.953l.011.122C90.703 494.406 109.97 512 133.396 512h245.207c23.427 0 42.693-17.594 44.815-40.925l.011-.122L449.811 152H466c8.284 0 15-6.716 15-15v-30c0-24.813-20.187-45-45-45zM203.421 40.171A14.982 14.982 0 0 1 217.623 30h76.754a14.98 14.98 0 0 1 14.202 10.171L315.504 62H196.496l6.925-21.829zm190.116 428.236A14.926 14.926 0 0 1 378.604 482H133.396a14.928 14.928 0 0 1-14.934-13.593L92.292 152h327.416l-26.171 316.407zM451 122H61v-15c0-8.271 6.729-15 15-15h259.898c.033 0 .065.004.098.004.034 0 .069-.004.103-.004H436c8.271 0 15 6.729 15 15v15z" fill="#ffffff" opacity="1" data-original="#000000" class=""></path><path d="M166 182c-8.284 0-15 6.716-15 15v240c0 8.284 6.716 15 15 15s15-6.716 15-15V197c0-8.284-6.716-15-15-15zM256 182c-8.284 0-15 6.716-15 15v240c0 8.284 6.716 15 15 15s15-6.716 15-15V197c0-8.284-6.716-15-15-15zM346 182c-8.284 0-15 6.716-15 15v240c0 8.284 6.716 15 15 15s15-6.716 15-15V197c0-8.284-6.716-15-15-15z" fill="#ffffff" opacity="1" data-original="#000000" class=""></path></g></svg>