<?xml version="1.0" encoding="utf-8"?>
<!-- Generator: Adobe Illustrator 27.9.1, SVG Export Plug-In . SVG Version: 6.00 Build 0)  -->
<svg version="1.1" id="Capa_1" xmlns="http://www.w3.org/2000/svg"
	xmlns:xlink="http://www.w3.org/1999/xlink" x="0px" y="0px"
	viewBox="0 0 372.5 542.8" style="enable-background:new 0 0 372.5 542.8;" xml:space="preserve">
<g>
	<path style="fill:#45DCD1;" d="M317.3,106.9c0,59-57.7,21.3-128.8,21.3c-71.1,0-128.8,37.7-128.8-21.3S117.3,0,188.5,0
		C259.6,0,317.3,47.9,317.3,106.9z"/>
	<path style="fill:#41BAAE;" d="M317.3,106.9c0,59-57.7,21.3-128.8,21.3c-71.1,0,105.3,34.3,105.3-24.7c0-59-83.1-101.9-105.3-103.5
		C259.6,0,317.3,47.9,317.3,106.9z"/>
	<path style="fill:#989898;" d="M355.6,139.4c0,24.1-74.8,31-167.1,31s-167.1-6.9-167.1-31s74.8-43.7,167.1-43.7S355.6,115.2,355.6,139.4z"/>
	<path style="fill:#737373;" d="M352.1,144.2c0,19.4-73.1,28.8-163.2,28.8s-163.2-9.4-163.2-28.8c0-19.4,73.1-29.5,163.2-29.5
		S352.1,124.8,352.1,144.2z"/>
	<line style="fill:none;stroke:#88EDE5;stroke-width:5;" x1="92.8" y1="81.9" x2="127.6" y2="49"/>
	<line style="fill:none;stroke:#88EDE5;stroke-width:5;" x1="213.7" y1="81.9" x2="248.5" y2="49"/>
	<line style="fill:none;stroke:#88EDE5;stroke-width:5;" x1="150.7" y1="82.2" x2="199.5" y2="28.5"/>
	<ellipse style="fill:#404040;" cx="188.9" cy="149.5" rx="136.2" ry="12"/>
</g>
<linearGradient id="SVGID_1_" gradientUnits="userSpaceOnUse" x1="188.9213" y1="400.1374" x2="188.9213" y2="6.803" gradientTransform="matrix(1 0 0 -1 0 544)">
	<stop offset="0" style="stop-color:#8DFF8D"/>
	<stop offset="1.000000e-04" style="stop-color:#8DFF8D"/>
	<stop offset="0.45" style="stop-color:#7CFF7C;stop-opacity:0.7641"/>
	<stop offset="0.515" style="stop-color:#79FF79;stop-opacity:0.73"/>
	<stop offset="1" style="stop-color:#8DFF8D;stop-opacity:0"/>
</linearGradient>
<path style="fill:url(#SVGID_1_);fill-opacity:0.58;" d="M43.2,511.4l75.9-362.6c51.3-6.7,80.1-6.3,131.5,0l84,362.6C223.9,546.5,159.9,545.1,43.2,511.4z"/>
</svg>