<svg width="119" height="72" viewBox="0 0 119 72" fill="none" xmlns="http://www.w3.org/2000/svg">
<path d="M105.011 44.1663C105.011 68.5587 84.5457 52.9687 59.3004 52.9687C34.0552 52.9687 13.5898 68.5587 13.5898 44.1663C13.5898 19.7739 34.0552 0 59.3004 0C84.5457 0 105.011 19.7739 105.011 44.1663Z" fill="#45DCD1"/>
<path d="M105.011 44.1663C105.011 68.5587 84.5452 52.9687 59.2999 52.9687C34.0547 52.9687 96.6715 67.1688 96.6715 42.7765C96.6715 18.3841 67.1758 0.653125 59.2999 0C84.5452 0 105.011 19.7739 105.011 44.1663Z" fill="#41BAAE"/>
<path d="M118.6 57.6012C118.6 67.5799 92.0508 70.4187 59.3002 70.4187C26.5496 70.4187 0 67.5799 0 57.6012C0 47.6225 26.5496 39.5332 59.3002 39.5332C92.0508 39.5332 118.6 47.6225 118.6 57.6012Z" fill="#989898"/>
<path d="M117.365 59.609C117.365 67.626 91.4378 71.4999 59.4548 71.4999C27.4718 71.4999 1.54443 67.626 1.54443 59.609C1.54443 51.5919 27.4718 47.4092 59.4548 47.4092C91.4378 47.4092 117.365 51.5919 117.365 59.609Z" fill="#737373"/>
<line x1="25.3293" y1="33.8369" x2="37.6836" y2="20.2472" stroke="#88EDE5" stroke-width="5"/>
<line x1="68.2605" y1="33.8369" x2="80.6147" y2="20.2472" stroke="#88EDE5" stroke-width="5"/>
<line x1="45.8992" y1="33.9837" x2="63.1951" y2="11.7461" stroke="#88EDE5" stroke-width="5"/>
<ellipse cx="59.4545" cy="61.7708" rx="48.3359" ry="4.94168" fill="#404040"/>
</svg>
