<svg width="62" height="64" viewBox="0 0 62 64" fill="none" xmlns="http://www.w3.org/2000/svg">
<path d="M57.5714 25.1429H37.6429V4.57143C37.6429 2.04714 35.6597 0 33.2143 0H28.7857C26.3403 0 24.3571 2.04714 24.3571 4.57143V25.1429H4.42857C1.98317 25.1429 0 27.19 0 29.7143V34.2857C0 36.81 1.98317 38.8571 4.42857 38.8571H24.3571V59.4286C24.3571 61.9529 26.3403 64 28.7857 64H33.2143C35.6597 64 37.6429 61.9529 37.6429 59.4286V38.8571H57.5714C60.0168 38.8571 62 36.81 62 34.2857V29.7143C62 27.19 60.0168 25.1429 57.5714 25.1429Z" fill="white" fill-opacity="0.4"/>
</svg>
