<svg id="Layer_1" enable-background="new 0 0 512 512" height="512" viewBox="0 0 512 512" width="512" xmlns="http://www.w3.org/2000/svg"><g clip-rule="evenodd" fill-rule="evenodd"><circle cx="256" cy="256" fill="#ff5a54" r="240"/><path d="m495.941 260.673c-2.462 128.835-106.433 232.806-235.268 235.268-40.768-40.767-81.645-81.444-122.407-122.206-10.666-10.666-10.667-28.119-.001-38.786l78.949-78.949-78.949-78.949c-10.666-10.666-10.666-28.119 0-38.785s28.119-10.667 38.786-.001l78.949 78.949 78.949-78.949c10.666-10.666 28.119-10.666 38.786 0 40.762 40.762 81.438 81.64 122.206 122.408z" fill="#db3a3c"/><path d="m138.265 373.735c10.666 10.666 28.12 10.666 38.786 0l78.949-78.949 78.949 78.949c10.666 10.666 28.119 10.666 38.785 0 10.666-10.666 10.666-28.119 0-38.786l-78.948-78.949 78.949-78.949c10.666-10.666 10.666-28.119 0-38.785-10.666-10.666-28.119-10.666-38.786 0l-78.949 78.948-78.949-78.949c-10.666-10.666-28.119-10.666-38.785 0-10.666 10.666-10.666 28.119 0 38.785l78.948 78.95-78.949 78.949c-10.666 10.666-10.666 28.12 0 38.786z" fill="#fff"/></g></svg>